<svg version="1.0" xmlns="http://www.w3.org/2000/svg" width="93.333" height="93.333" viewBox="0 0 70 70"><path d="M0 35v35h70V0H0v35zm40.2-25c5.3 1.5 9.6 5.5 10.8 10.1l1.1 4 5-2.8c2.8-1.5 6.2-4 7.5-5.6 2.3-2.7 2.4-2.8 2.4-.6 0 5.8-6.7 14.4-12.7 16.3-2.2.7-2.3 1.3-2.3 10.5 0 10 .7 12.1 4.2 12.1 2.4 0 2.6 6.5.2 7.4-5.1 2-11.4-1-11.4-5.5 0-1.9-.2-1.9-3.5.6-7.4 5.7-19.8 7.2-27.5 3.2-7.6-3.9-10.1-12.5-6.1-21.3 1.5-3.3 3-4.7 7.3-6.8 5.8-2.8 17-5.6 23.1-5.6 6.5 0 5.9-5.8-1-8.1-4.4-1.4-16-.7-22 1.5l-4.2 1.5-1-3.1C9.5 16.1 9 14.4 9 13.9c0-.7 6.7-3.1 11.5-4.2 3.9-.9 16.1-.7 19.7.3z"/><path d="M34 34.1C19.4 36 13.4 41 16.1 49c2.1 5.9 13.6 6.7 22.3 1.6l4.6-2.7v-7.4c0-5.4-.4-7.5-1.2-7.4-.7.1-4.2.5-7.8 1z"/></svg>