<svg width="80" height="24" fill="none" xmlns="http://www.w3.org/2000/svg"><path d="M7.569.875h.155c1.962.23 3.047 1.38 3.59 3.188.853 3.125 1.784 6.242 2.714 9.305 0 .077 0 .233.078.31 0 .078.077.155.232.155.155 0 .155-.077.233-.155.155-.465.232-.93.388-1.396.775-2.869 1.628-5.645 2.404-8.452.387-1.334 1.24-2.264 2.559-2.807.31-.129.697-.092 1.008-.183h.077c.078.076.233.039.388.039L27.83.88c.698 0 .698 0 .698.73v20.8c0 .232.078.465-.078.62-.077.078-.232.078-.387.078h-6.592c-.232-.078-.232-.31-.232-.466V10.623c0-.155.155-.466-.155-.543-.155 0-.233.31-.233.465-.775 2.56-1.55 5.04-2.326 7.6l-1.396 4.42c-.078.232-.078.465-.388.543h-4.885c-.233 0-.233-.233-.31-.388l-1.86-6.05c-.62-2.093-1.319-4.187-1.94-6.281-.015-.078-.03-.078-.061-.155-.047-.078-.093-.155-.202-.155-.093 0-.1.155-.108.232-.016.078-.008.233-.008.388v11.632c0 .155.008.31-.016.465-.015.155-.03.31-.232.31H.605c-.139 0-.285 0-.423-.077-.053-.078-.03-.233-.03-.31V1.24c0-.141-.013-.246.02-.348.134-.08.28-.04.421-.04C2.78.848 4.967.85 7.138.847c.14 0 .287.037.427-.039m39.73.067h.155c.078.076.233.038.388.039 1.86.002 3.722.01 5.583-.006.388-.002.465.11.465.424v21.751c-.077.078-.077.078-.155.078-2.326.077-4.653 0-6.901 0-.233 0-.233-.233-.233-.388V10.676c0-.155.078-.465-.155-.465-.233-.078-.233.155-.31.31-1.163 2.559-2.327 5.04-3.49 7.6-.465.93-.853 1.86-1.318 2.791-.776 1.473-1.939 2.326-3.722 2.249H31.63c-.078 0-.078 0-.078-.078-.077-.155-.077-.31-.077-.543V1.383c0-.403.077-.436.465-.436h6.204c.465 0 .542.029.542.516v11.849c0 .155-.077.388 0 .543.233.232.388 0 .466-.155.31-.466.465-1.009.697-1.474 1.086-2.326 2.172-4.676 3.257-7.01.31-.682.62-1.373.93-2.055.544-1.024 1.32-1.714 2.405-2.11.233-.1.543-.057.853-.146m31.949 8.112v.62c0 .31 0 .388-.775.388-2.404-.078-4.963 0-7.522-.078-1.55 0-3.18.078-4.73 0-4.885-.232-9.15-3.69-10.314-8.685v-.22c0-.081 0-.118.078-.122.155-.007.233-.004.388-.004h15.974c1.473-.032 2.792.615 3.955 1.504 1.396 1.047 2.171 2.458 2.947 4.125V9.02v-.002zM63.893 23.13h-7.057V11.42c0-.31.078-.464.388-.464 7.056.077 14.035.077 21.247 0v.465c-1.24 2.869-3.567 4.498-6.824 4.653-2.404.077-4.885 0-7.29 0-.31 0-.387 0-.387.387v6.282c0 .155 0 .232-.077.387z" fill="#fff"/></svg>