<svg width="40" height="40" fill="none" xmlns="http://www.w3.org/2000/svg"><path d="M24.189 7.681H21.2V6.136h.726c.647 0 1.172-.525 1.172-1.172V1.172A1.17 1.17 0 0021.927 0h-3.795c-.648 0-1.172.525-1.172 1.172v.726l-.04-.002h-3.46a3.063 3.063 0 00-3.06 3.06v.72a1.172 1.172 0 002.344 0v-.72c0-.395.321-.716.716-.716h3.461l.04-.002v.726c0 .647.524 1.172 1.172 1.172h.725V7.68H15.87c-.648 0-1.172.525-1.172 1.172v1.677H25.36V8.853c0-.647-.525-1.172-1.172-1.172zm1.491 5.192H14.378a4.412 4.412 0 00-3.919 4.379v21.576c0 .647.525 1.172 1.172 1.172h16.798c.647 0 1.172-.525 1.172-1.172V17.252a4.412 4.412 0 00-3.92-4.379z" fill="#CE0058"/></svg>