<svg width="40" height="40" fill="none" xmlns="http://www.w3.org/2000/svg"><path d="M33.036 35.248l-.034.034a5.133 5.133 0 00-.033.033l.067-.067zm.256-.256l-.026.026a3.881 3.881 0 00.026-.026zm.076-.076l-.007.006.007-.006zm-.487.487l-.024.025-.021.02.045-.045z" fill="#CE0058"/><path d="M36.84 17.775v.644h-3.812a13.062 13.062 0 00-2.702-6.51l2.699-2.699.456.456c1.474 1.475 3.71-.76 2.235-2.235l-.225-.225-.026-.026-.03-.03.014.014-.035-.035-.01-.01-.028-.027-.414-.414-.046-.047-2.347-2.347c-1.477-1.476-3.714.757-2.235 2.235l.456.456-2.7 2.7a13.061 13.061 0 00-6.51-2.703V3.161h.645c2.089 0 2.091-3.161 0-3.161h-4.45c-2.089 0-2.09 3.161 0 3.161h.645v3.811a13.061 13.061 0 00-6.51 2.702l-2.7-2.699.456-.456c1.477-1.476-.756-3.713-2.235-2.235l-.426.427-2.72 2.72c-1.478 1.477.762 3.708 2.235 2.235l.455-.456 2.7 2.7a13.06 13.06 0 00-2.703 6.51H3.161v-.645c0-2.089-3.161-2.09-3.161 0v4.45c0 2.089 3.161 2.09 3.161 0v-.645h3.811a13.061 13.061 0 002.702 6.51l-2.699 2.7-.456-.456c-1.476-1.477-3.714.756-2.235 2.235l.225.225.575.575 2.347 2.347c1.477 1.476 3.714-.757 2.235-2.236l-.456-.455 2.7-2.7a13.06 13.06 0 006.51 2.703v3.81h-.645c-2.089 0-2.09 3.162 0 3.162h4.45c2.089 0 2.09-3.161 0-3.161h-.645v-3.811a13.062 13.062 0 006.51-2.702l2.7 2.699-.456.456c-1.477 1.476.762 3.707 2.235 2.235l.228-.229.06-.06a30.598 30.598 0 01.145-.145 323.844 323.844 0 01.366-.365l2.347-2.348c1.477-1.477-.756-3.714-2.235-2.235l-.456.456-2.698-2.7a13.06 13.06 0 002.702-6.51h3.81v.645c0 2.089 3.162 2.09 3.162 0v-4.45c0-2.089-3.16-2.09-3.16 0zm-19.686 3.238a3.485 3.485 0 110-6.97 3.485 3.485 0 010 6.97zm5.692 3.982a2.149 2.149 0 110-4.298 2.149 2.149 0 010 4.298z" fill="#CE0058"/><path d="M32.908 35.376l.061-.061-.031.032-.03.03z" fill="#CE0058"/></svg>