<svg width="70" height="24" fill="none" xmlns="http://www.w3.org/2000/svg"><path d="M62.54 15.147c-.6-2.699-1.126-5.398-1.725-8.098 0-.037-.075-.037-.075-.037a970.036 970.036 0 00-2.925 8.098h4.724v.037zm-13.273 7.574c.443-1.05.862-2.025 1.29-3.075C52.919 14.023 55.273 8.324 57.68 2.7c.375-.99 1.2-1.537 2.25-1.552 1.5-.03 3-.001 4.499-.014.225-.002.3.09.375.319.825 3.921 1.65 7.873 2.474 11.772.6 3.074 1.2 6.149 1.875 9.223.075.225 0 .375-.3.375h-4.424c-.225 0-.3-.075-.375-.375-.15-.825-.375-1.725-.525-2.55-.075-.225-.15-.375-.375-.375a97.224 97.224 0 01-6.614 0c-.24 0-.344.15-.427.3-.307.9-.645 1.8-.96 2.7-.06.225-.142.3-.345.3h-5.316c-.058 0-.114 0-.226-.075l.001-.027zM.005 1.71l.126-.584C.246 1.12.348 1.11.45 1.11c3.03 0 6.051-.002 9.073.003 1.425.003 2.4.848 2.7 2.295.75 4.056 1.499 8.173 2.324 12.222 0 0 0 .075.075.15.075-.15.15-.225.15-.375 1.874-4.649 3.674-9.298 5.548-13.947.075-.222.15-.317.45-.315 1.8.012 3.6.006 5.474.006-.075.136-.075.24-.15.338-2.924 7.011-5.849 14.022-8.773 21.07-.075.226-.15.3-.45.3h-5.249c-.224 0-.374-.074-.374-.3-1.5-5.698-3-11.397-4.425-17.096-.217-.892-.644-1.522-1.447-1.927-1.5-.742-3.089-1.177-4.694-1.59C.47 1.885.256 1.837 0 1.773m33.507 20.228c.34-1.574.667-3.15 1.005-4.724.524.225 1.012.45 1.507.675 1.732.6 3.517.9 5.376.525.525-.075 1.05-.3 1.5-.675.9-.525.974-1.65.3-2.4-.45-.45-.9-.75-1.425-1.05-.75-.449-1.537-.824-2.272-1.274-.547-.3-1.087-.675-1.575-1.05-2.137-1.8-2.692-4.206-1.537-6.74.877-1.928 2.46-3.075 4.372-3.802C42.37.873 44.094.69 45.819.753c1.425.05 2.85.342 4.274.795.075.03.15.06.225.098.075.015.075.045.15.082-.375 1.47-.675 2.954-.975 4.469-.375-.135-.675-.27-1.05-.382-1.574-.548-3.299-.788-4.948-.45-.6.127-1.2.39-1.575.9-.45.57-.45 1.222 0 1.747.3.345.675.644 1.125.87.75.45 1.5.824 2.25 1.274.6.375 1.199.675 1.724 1.125 2.324 1.65 2.924 3.974 2.1 6.598-.75 2.175-2.325 3.525-4.425 4.35-1.5.674-3.074.9-4.739.9-1.964 0-3.876-.226-5.743-.826-.232-.075-.454-.225-.705-.3m.764-20.882c-.3 1.485-.6 2.917-.9 4.342-1.2 5.489-2.4 11.022-3.524 16.496-.225.825-.225.825-1.05.825h-4.724c.15-.45.225-.9.3-1.35 1.35-6.448 2.775-12.972 4.124-19.42.225-.908.225-.908 1.125-.908l4.2.002h.449v.013z" fill="#fff"/></svg>