<svg width="40" height="40" fill="none" xmlns="http://www.w3.org/2000/svg"><path d="M14.775 20.23a7.009 7.009 0 002.048-4.974c0-.71-.209-1.505-.543-2.341-.376-.878-.878-1.755-1.463-2.675 0-.042-.042-.042-.042-.084-1.212-1.839-2.8-3.636-4.138-5.182l-.836-.962-.836.962C6.374 7.983 2.78 12.12 2.78 15.256c0 1.922.794 3.678 2.048 4.974a7.009 7.009 0 004.974 2.048c1.923 0 3.678-.795 4.974-2.048zM33.541.25L33.333 0l-.21.25c-1.546 1.798-3.678 4.264-3.678 6.02a3.85 3.85 0 003.888 3.887A3.85 3.85 0 0037.22 6.27c0-1.756-2.132-4.222-3.679-6.02z" fill="#CE0058"/><path d="M20.125 6.06c-.627.753-1.338 1.547-2.048 2.425L16.99 9.739c.502.794.92 1.588 1.254 2.382.46 1.087.71 2.132.71 3.135a9.132 9.132 0 01-2.675 6.479 9.059 9.059 0 01-6.478 2.675 7.322 7.322 0 01-1.672-.168c-.21-.041-.376-.083-.585-.125l-.251 1.003c-.125.627-.209 1.212-.209 1.84 0 3.594 1.463 6.854 3.803 9.236C13.27 38.58 16.53 40 20.125 40c3.594 0 6.855-1.463 9.237-3.804 2.382-2.34 3.804-5.642 3.804-9.237 0-5.726-6.395-13.082-10.993-18.432-.71-.92-1.38-1.714-2.048-2.466z" fill="#CE0058"/></svg>