<svg width="28" height="28" fill="none" xmlns="http://www.w3.org/2000/svg"><rect width="28" height="28" rx="14" fill="#00E676"/><path fill-rule="evenodd" clip-rule="evenodd" d="M11.848 10.211c-.149-.357-.262-.37-.488-.38a4.366 4.366 0 00-.258-.009c-.294 0-.602.086-.788.276-.226.231-.787.77-.787 1.874 0 1.105.805 2.173.914 2.322.113.15 1.57 2.45 3.833 3.387 1.77.733 2.295.665 2.697.579.589-.127 1.326-.562 1.512-1.086.185-.526.185-.974.131-1.069-.054-.095-.204-.149-.43-.262-.226-.114-1.326-.657-1.534-.73-.204-.076-.398-.049-.552.168-.217.304-.43.612-.602.797-.136.145-.357.163-.543.086-.249-.104-.946-.349-1.806-1.113-.665-.593-1.117-1.331-1.248-1.553-.132-.226-.014-.358.09-.48.113-.14.222-.24.335-.371.113-.131.176-.2.249-.353.077-.15.022-.303-.032-.417-.054-.113-.507-1.218-.693-1.666zm2.15-3.911c-4.244 0-7.697 3.454-7.697 7.7 0 1.684.543 3.246 1.466 4.513l-.96 2.861 2.96-.946a7.64 7.64 0 004.236 1.272c4.245 0 7.698-3.454 7.698-7.7s-3.453-7.7-7.698-7.7H14z" fill="#fff"/></svg>