<svg width="40" height="40" fill="none" xmlns="http://www.w3.org/2000/svg"><rect width="40" height="40" rx="4" fill="#CC181E"/><path fill-rule="evenodd" clip-rule="evenodd" d="M17.935 22.582v-5.593l5.403 2.806-5.403 2.787zM29.8 16.02s-.196-1.372-.795-1.976c-.76-.793-1.613-.796-2.004-.843C24.202 13 20.004 13 20.004 13h-.008s-4.198 0-6.997.201c-.392.047-1.243.05-2.005.843-.599.604-.794 1.976-.794 1.976s-.2 1.61-.2 3.22v1.51c0 1.612.2 3.222.2 3.222s.195 1.372.794 1.976c.762.793 1.761.768 2.206.85 1.6.154 6.8.201 6.8.201s4.203-.006 7.001-.208c.39-.046 1.243-.05 2.004-.843.6-.604.795-1.976.795-1.976s.2-1.61.2-3.221v-1.51c0-1.611-.2-3.222-.2-3.222z" fill="#fff"/></svg>