<svg width="28" height="28" viewBox="0 0 28 28" fill="none" xmlns="http://www.w3.org/2000/svg">
<path d="M14.0001 0C6.26859 0 0 6.26857 0 14C0 21.7313 6.26859 28 14.0001 28C21.7315 28 28 21.7313 28 14C28.0001 6.26857 21.7315 0 14.0001 0ZM21.393 20.4275L20.2721 21.5487C20.0719 21.7486 19.4859 21.8733 19.4671 21.8733C15.9209 21.9042 12.5064 20.5113 9.99768 18.0023C7.48206 15.4853 6.08751 12.0586 6.12496 8.50049C6.12496 8.49887 6.2533 7.92966 6.45326 7.73161L7.57416 6.61054C7.98434 6.19845 8.77227 6.01223 9.32423 6.1969L9.56003 6.27555C10.1104 6.46004 10.6882 7.06855 10.8403 7.62918L11.4041 9.69865C11.5562 10.2609 11.3511 11.0608 10.941 11.4709L10.1926 12.2195C10.9274 14.9399 13.0619 17.0748 15.7828 17.8115L16.531 17.0627C16.9431 16.6506 17.7426 16.4457 18.3037 16.5976L20.3729 17.1634C20.9336 17.3175 21.542 17.8917 21.7264 18.4419L21.8051 18.6811C21.9879 19.2315 21.8031 20.0192 21.393 20.4275Z" fill="black"/>
</svg>
