<svg width="28" height="28" viewBox="0 0 28 28" fill="none" xmlns="http://www.w3.org/2000/svg">
<path d="M26.2624 19.3107C24.4085 19.3107 22.5547 19.0017 20.7009 18.3837C20.2374 18.2293 19.6194 18.3837 19.156 18.6927L15.7574 22.0914C11.4318 19.9286 7.87862 16.2209 5.56135 11.8954L8.96002 8.49669C9.42348 8.03323 9.57796 7.41529 9.26899 6.95184C8.80554 5.2525 8.49657 3.39867 8.49657 1.54485C8.49657 0.617941 7.87862 0 6.95171 0H1.54473C0.617819 0 -0.00012207 0.617941 -0.00012207 1.54485C-0.00012207 16.0665 11.7408 27.8073 26.2624 27.8073C27.1893 27.8073 27.8072 27.1894 27.8072 26.2625V20.8555C27.8072 19.9286 27.1893 19.3107 26.2624 19.3107ZM24.7175 13.9037H27.8072C27.8072 6.17941 21.6278 0 13.9035 0V3.0897C19.9285 3.0897 24.7175 7.87875 24.7175 13.9037ZM18.5381 13.9037H21.6278C21.6278 9.57808 18.2291 6.17941 13.9035 6.17941V9.26911C16.5298 9.26911 18.5381 11.2774 18.5381 13.9037Z" fill="black"/>
</svg>
