<svg width="28" height="28" viewBox="0 0 28 28" fill="none" xmlns="http://www.w3.org/2000/svg">
<path d="M27.7942 21.9311C27.8531 22.3825 27.7155 22.775 27.3821 23.1086L23.4669 26.9942C23.2902 27.1904 23.0597 27.3574 22.7751 27.4946C22.4905 27.6321 22.2109 27.7204 21.9363 27.7596C21.9167 27.7596 21.8576 27.7646 21.7595 27.7744C21.6615 27.7842 21.5339 27.7892 21.3769 27.7892C21.0039 27.7892 20.4004 27.7254 19.5664 27.5978C18.7323 27.4702 17.7118 27.1562 16.505 26.6558C15.2978 26.1554 13.929 25.4046 12.3983 24.4038C10.8676 23.4031 9.23869 22.0292 7.51168 20.2826C6.13792 18.9284 4.99967 17.6332 4.09691 16.3968C3.19416 15.1604 2.46803 14.0172 1.91852 12.9673C1.36897 11.9173 0.956846 10.9655 0.682095 10.1118C0.407343 9.25815 0.220905 8.5222 0.122779 7.90401C0.0246535 7.28582 -0.0145968 6.8001 0.00502835 6.44685C0.0246535 6.0936 0.034466 5.89735 0.034466 5.8581C0.0737162 5.58334 0.162029 5.30369 0.299405 5.01912C0.436781 4.73456 0.603594 4.50396 0.799845 4.32734L4.71506 0.412127C4.98981 0.137376 5.30381 0 5.65706 0C5.91219 0 6.13788 0.0735942 6.33413 0.220782C6.53038 0.367971 6.69719 0.549503 6.83457 0.765379L9.9844 6.74123C10.161 7.05523 10.2101 7.39867 10.1316 7.77154C10.0531 8.14442 9.88627 8.45842 9.63115 8.71355L8.1887 10.156C8.14945 10.1952 8.11511 10.259 8.08567 10.3473C8.05623 10.4357 8.04151 10.5092 8.04151 10.5681C8.12001 10.9802 8.29664 11.4513 8.57139 11.9811C8.80689 12.4521 9.16996 13.0262 9.66058 13.7032C10.1512 14.3803 10.8479 15.1604 11.7507 16.0435C12.6338 16.9463 13.4188 17.6478 14.1057 18.1484C14.7924 18.6486 15.3666 19.0167 15.8278 19.2522C16.289 19.4877 16.6423 19.63 16.8875 19.6789L17.2554 19.7526C17.2947 19.7526 17.3586 19.7378 17.4468 19.7084C17.5351 19.6789 17.5989 19.6446 17.6382 19.6053L19.3161 17.898C19.6695 17.584 20.0815 17.427 20.5525 17.427C20.8862 17.427 21.151 17.4858 21.3473 17.6036H21.3767L27.0581 20.9595C27.4704 21.2148 27.7156 21.5386 27.7942 21.9311Z" fill="black"/>
</svg>
