<svg width="40" height="40" viewBox="0 0 40 40" fill="none" xmlns="http://www.w3.org/2000/svg">
<rect width="40" height="40" rx="4" fill="url(#paint0_radial)"/>
<rect width="40" height="40" rx="4" fill="url(#paint1_radial)"/>
<path fill-rule="evenodd" clip-rule="evenodd" d="M23.9374 14.8826C23.9374 15.5138 24.4503 16.0256 25.083 16.0256C25.7157 16.0256 26.2285 15.5138 26.2285 14.8826C26.2285 14.2513 25.7157 13.7395 25.083 13.7395C24.4503 13.7395 23.9374 14.2513 23.9374 14.8826ZM16.8049 19.9671C16.8049 18.2135 18.2296 16.792 19.987 16.792C21.7445 16.792 23.1692 18.2135 23.1692 19.9671C23.1692 21.7207 21.7445 23.1422 19.987 23.1422C18.2296 23.1422 16.8049 21.7207 16.8049 19.9671ZM19.987 24.8584C17.2796 24.8584 15.0848 22.6685 15.0848 19.967C15.0848 17.2656 17.2796 15.0757 19.987 15.0757C22.6945 15.0757 24.8893 17.2656 24.8893 19.967C24.8893 22.6685 22.6945 24.8584 19.987 24.8584ZM27.7368 12.2632C27.3527 11.879 26.9869 11.6411 26.4745 11.442C26.0877 11.2916 25.5064 11.1128 24.436 11.064C23.2784 11.0112 22.9312 11 20 11C17.0687 11 16.7215 11.0112 15.5639 11.064C14.4936 11.1128 13.9123 11.2916 13.5255 11.442C13.013 11.6411 12.6473 11.879 12.2632 12.2632C11.879 12.6473 11.6411 13.0131 11.442 13.5255C11.2916 13.9123 11.1128 14.4936 11.064 15.5639C11.0112 16.7215 11 17.0687 11 20C11 22.9313 11.0112 23.2784 11.064 24.4361C11.1128 25.5064 11.2916 26.0877 11.442 26.4745C11.6411 26.9869 11.879 27.3527 12.2632 27.7368C12.6473 28.121 13.013 28.3589 13.5255 28.558C13.9123 28.7083 14.4936 28.8872 15.5639 28.936C16.7214 28.9888 17.0685 29 20 29C22.9314 29 23.2786 28.9888 24.436 28.936C25.5064 28.8872 26.0877 28.7083 26.4745 28.558C26.9869 28.3589 27.3527 28.121 27.7368 27.7368C28.1209 27.3527 28.3589 26.9869 28.558 26.4745C28.7083 26.0877 28.8872 25.5064 28.936 24.4361C28.9888 23.2784 29 22.9313 29 20C29 17.0687 28.9888 16.7215 28.936 15.5639C28.8872 14.4936 28.7083 13.9123 28.558 13.5255C28.3589 13.0131 28.1209 12.6473 27.7368 12.2632Z" fill="white"/>
<defs>
<radialGradient id="paint0_radial" cx="0" cy="0" r="1" gradientUnits="userSpaceOnUse" gradientTransform="translate(10.6251 43.0808) rotate(-90) scale(39.643 36.8711)">
<stop stop-color="#FFDD55"/>
<stop offset="0.1" stop-color="#FFDD55"/>
<stop offset="0.5" stop-color="#FF543E"/>
<stop offset="1" stop-color="#C837AB"/>
</radialGradient>
<radialGradient id="paint1_radial" cx="0" cy="0" r="1" gradientUnits="userSpaceOnUse" gradientTransform="translate(-6.70021 2.88153) rotate(78.6806) scale(17.7206 73.0449)">
<stop stop-color="#3771C8"/>
<stop offset="0.128" stop-color="#3771C8"/>
<stop offset="1" stop-color="#6600FF" stop-opacity="0"/>
</radialGradient>
</defs>
</svg>
