<svg width="82" height="56" viewBox="0 0 82 56" fill="none" xmlns="http://www.w3.org/2000/svg">
<path d="M38.3974 34.04C34.5902 34.04 31.2306 35.9884 29.2602 38.9398L27.2752 34.0772L39.839 3.29961L35.405 1.48962L24.6889 27.7411L13.9727 1.48962L9.53873 3.29961L22.1025 34.0772L20.1174 38.9399C18.1469 35.9885 14.7873 34.04 10.9801 34.04C4.92549 34.04 0 38.9656 0 45.0201C0 51.0745 4.92549 56 10.98 56C15.8386 56 19.9675 52.8269 21.4101 48.445L24.6888 40.4132L27.9666 48.4429C29.4086 52.8259 33.5382 56 38.3976 56C44.452 56 49.3775 51.0745 49.3775 45.0201C49.3775 38.9656 44.4519 34.04 38.3974 34.04ZM10.98 51.2109C7.5664 51.2109 4.78916 48.4336 4.78916 45.0201C4.78916 41.6065 7.5664 38.8293 10.98 38.8293C14.3935 38.8293 17.1707 41.6065 17.1707 45.0201C17.1707 48.4336 14.3937 51.2109 10.98 51.2109ZM38.3974 51.2109C34.9837 51.2109 32.2065 48.4336 32.2065 45.0201C32.2065 41.6065 34.9837 38.8293 38.3974 38.8293C41.811 38.8293 44.5882 41.6065 44.5882 45.0201C44.5882 48.4336 41.8111 51.2109 38.3974 51.2109Z" fill="#CE0058"/>
<path d="M63.2432 0C59.5781 0 56.5962 2.98189 56.5962 6.64704V49.353C56.5962 53.0181 59.5781 56 63.2432 56H81.7348V51.2108H69.9085V48.6841H81.7348V43.8949H69.9085V41.3683H81.7348V36.5791H69.9085V34.0524H81.7348V29.2632H69.9085V26.7366H81.7348V21.9475H69.9085V19.4207H81.7348V14.6315H69.9085V12.1048H81.7348V7.31561H69.9085V4.789H81.7348V0H63.2432Z" fill="#CE0058"/>
</svg>
