<svg width="126" height="24" viewBox="0 0 126 24" fill="none" xmlns="http://www.w3.org/2000/svg">
<path d="M11.8509 0.742188C12.2273 0.789464 12.6037 0.842312 12.9801 0.882965C14.3352 1.01998 16.5183 1.86916 17.497 2.6295C14.6363 5.06863 13.0554 8.16272 13.0554 11.9644C13.0554 15.6533 14.561 18.8151 17.497 21.2994C17.0453 21.5252 16.6689 21.7511 16.2172 21.9769C15.1633 22.5039 13.9587 22.8803 12.679 23.0309C9.51712 23.4073 6.61124 22.5792 4.09683 20.5466C1.99647 18.8151 0.679033 16.5566 0.212286 13.9218C-0.341789 10.6847 0.36586 7.72608 2.3804 5.1138C4.04413 2.95321 6.23483 1.59814 8.91487 1.01094C9.36656 0.901032 9.89353 0.870167 10.4205 0.80166C10.4958 0.790142 10.5711 0.770945 10.6463 0.755437H11.8509V0.742188Z" fill="white"/>
<path d="M25.7032 0.741699C26.0796 0.788374 26.3807 0.830532 26.7571 0.881723C28.4133 1.11133 29.9942 1.7023 31.3493 2.64332C33.9089 4.38986 35.5651 6.78382 36.1674 9.83273C36.7696 13.2957 35.9415 16.4575 33.6078 19.1677C31.9516 21.2003 29.7684 22.4048 27.2088 22.9318C24.2728 23.4587 21.4874 22.9318 19.0031 21.2756C19.0031 21.2756 18.9278 21.2756 18.9278 21.2003C21.7885 18.7913 23.2942 15.7047 23.2942 11.9406C23.2942 8.16148 21.7885 5.08245 18.8525 2.60568C19.4548 2.27444 20.057 1.95073 20.6593 1.67971C21.7885 1.15199 23.0683 0.851611 24.3481 0.783857C24.4234 0.780093 24.4987 0.756003 24.574 0.741699H25.7032Z" fill="white"/>
<path d="M18.1739 3.14795C24.0459 7.6498 23.8201 16.4728 18.1739 20.6886C12.7536 16.5481 12.1514 7.96599 18.1739 3.14795Z" fill="white"/>
<path d="M45.4277 8.25164V9.15503C46.0299 8.32693 46.858 8.01074 47.7614 8.07097C48.7401 8.12366 49.4929 8.55277 50.0199 9.38087C50.0952 9.23031 50.1704 9.15503 50.2457 9.07974C50.7727 8.47749 51.4502 8.15378 52.2783 8.0785C52.8806 8.0258 53.5581 8.10108 54.1604 8.40221C54.9885 8.77862 55.4402 9.45615 55.5907 10.3595V11.1124V15.4034V15.7045H53.9345V15.4034V11.4888C53.9345 11.1876 53.9345 10.8865 53.8593 10.6607C53.5581 9.75728 52.9559 9.60672 52.2783 9.60672C51.7514 9.60672 51.2244 9.83256 50.848 10.2843C50.6974 10.5854 50.5468 10.9618 50.5468 11.3382V15.4034V15.7045H48.8907V15.4034C48.8907 14.0483 48.8907 12.6933 48.8154 11.3382C48.8154 11.0371 48.7401 10.6607 48.6648 10.4348C48.3637 9.83256 47.912 9.682 47.385 9.60672C46.6322 9.60672 45.8794 9.83256 45.5782 10.6607C45.503 10.9618 45.4277 11.3382 45.4277 11.7146V15.4034V15.7045H43.7715V8.25164H45.4277Z" fill="white"/>
<path d="M119.255 11.9782C119.277 12.1589 119.292 12.3471 119.322 12.5278C119.676 14.3345 121.603 14.7109 122.733 13.9581C123.598 13.4311 123.847 12.5278 123.704 11.534C123.5 10.1187 122.228 9.32828 120.843 9.70469C119.872 9.96065 119.27 10.849 119.255 11.9782ZM123.659 9.08738V5.28565L125.3 5.28369V15.6726H123.651V14.9198C123.312 15.1456 123.004 15.4467 122.635 15.5973C120.933 16.3501 118.615 15.5973 117.854 13.4894C117.267 11.8558 117.499 10.3125 118.765 9.04025C119.352 8.44553 120.098 8.1444 120.941 8.06912C121.761 7.98631 122.522 8.13687 123.184 8.64126C123.342 8.76171 123.47 8.90475 123.659 9.07037" fill="white"/>
<path d="M104.676 12.0158V12.6181C104.676 14.4249 106.934 14.726 107.687 13.8979C109.193 13.2956 109.193 12.5428 109.193 11.5641C108.44 10.1338 107.687 9.30569 106.182 9.75738C105.429 10.0585 104.676 10.8866 104.676 12.0158ZM109.193 14.8765C108.44 15.4035 107.687 15.7799 106.934 15.8552C105.429 16.0811 103.923 15.1024 103.17 13.3709C102.417 11.9406 102.417 10.5855 103.923 9.38097C104.676 8.62816 105.429 8.17646 106.182 8.08613C106.934 8.01084 107.687 8.10871 108.44 8.47759C108.44 8.62815 108.44 8.854 109.193 9.07985V8.25175H110.698V15.7046H109.193V14.8765Z" fill="white"/>
<path d="M63.1911 11.9408C63.2664 10.7363 62.363 9.68236 61.1585 9.60708C60.3304 9.60708 59.6529 9.83292 59.2012 10.5105C58.7495 11.1127 58.6742 11.715 58.7495 12.3925C58.9754 13.7476 60.0293 14.5004 61.4597 14.2746C62.6642 14.0487 63.2664 12.9948 63.1911 11.9408ZM63.1159 9.0801V8.40257C63.1159 8.32729 63.1911 8.25201 63.2664 8.25201H64.6968V15.7049H63.1159V14.8768L63.0406 14.9521C62.363 15.7049 61.4597 15.9308 60.481 15.8555C58.8248 15.7802 57.4697 14.5757 57.0933 12.9195C56.8675 11.715 57.0933 10.5105 57.8461 9.5318C58.4484 8.62841 59.3518 8.17672 60.4057 8.08638C61.3091 7.99605 62.1372 8.17672 62.8147 8.77898C62.89 8.85426 62.9653 9.00482 63.1159 9.0801Z" fill="white"/>
<path d="M86.6076 11.3385C86.6076 10.0587 85.8548 9.38112 84.3492 9.53169C83.5963 9.68225 82.8435 10.5104 82.8435 11.3385H86.6076ZM87.3604 13.5969C87.3604 13.9733 88.1133 14.3497 88.1133 14.6509V14.952C86.6076 15.7048 85.8548 15.9306 84.3492 15.8554C82.8435 15.7801 81.3379 14.7261 81.3379 12.9194C81.3379 11.6396 81.3379 10.4351 82.0907 9.45641C82.8435 8.62831 83.5963 8.17662 84.3492 8.08628C85.102 7.99594 85.8548 8.16156 86.6076 8.70359C88.1133 9.30584 88.1133 10.1339 88.1133 11.1126V12.6182H82.8435C82.8435 13.5969 83.5963 14.2744 84.3492 14.3497C85.8548 14.5003 86.6076 14.1992 87.3604 13.7475V13.5969Z" fill="white"/>
<path d="M66.2793 14.8767C66.5804 14.5003 66.8063 14.0486 67.1074 13.6722C67.1074 13.6722 67.1827 13.7474 67.258 13.7474C68.2366 14.425 69.2906 14.5755 70.4198 14.2744C70.6456 14.2744 70.8715 14.1239 71.0973 13.9733C71.3985 13.6722 71.3232 13.2205 70.9468 13.0699C70.4951 12.9193 70.1187 12.7688 69.667 12.7688C69.0647 12.6182 68.3872 12.5429 67.7849 12.2418C67.1074 11.9407 66.6557 11.4137 66.6557 10.6609C66.5051 9.75751 66.8816 9.07997 67.6344 8.553C68.1613 8.25187 68.7636 8.10884 69.3659 8.07872C70.4951 8.02603 71.4737 8.16906 72.4524 8.62828C72.5277 8.70356 72.6783 8.77884 72.7535 8.85413C72.5277 9.30582 72.3018 9.75751 72.076 10.1339C71.6243 9.98335 71.1726 9.75751 70.7962 9.68223C70.194 9.53166 69.5917 9.45638 68.9894 9.60694C68.6883 9.75751 68.3872 9.90807 68.3119 10.2845C68.3119 10.5856 68.3872 10.7362 68.613 10.8867C68.9894 10.962 69.3658 11.0373 69.8175 11.1126C70.4198 11.2631 71.0221 11.2631 71.6243 11.5643C72.3771 11.8654 72.9041 12.3924 72.9794 13.2205C73.0547 14.1239 72.6783 14.8014 71.9254 15.3284C71.3232 15.7048 70.6456 15.8553 69.8928 15.8553C68.7636 15.9306 67.6344 15.7801 66.6557 15.1778C66.5804 15.1025 66.4299 15.0272 66.3546 14.952L66.2793 14.8767Z" fill="white"/>
<path d="M75.312 9.75782H74.0322V8.25219H75.312V6.00879H76.8177V8.25219H78.3233H79.8289V8.47803V9.75782H76.8177V9.98367C76.8177 10.9623 76.8177 12.0163 77.5705 12.9949V13.5972C77.5705 14.1242 77.5705 14.4253 78.3233 14.2747C79.0761 14.1995 79.0761 14.0489 79.8289 13.9736V15.2534V15.404C79.0761 15.7804 78.3233 15.9309 77.5705 15.8557C77.5705 15.8557 76.8177 15.7051 76.0648 15.3287C76.0648 14.9523 75.312 14.4253 75.312 13.8983V10.8118V9.75782Z" fill="white"/>
<path d="M100.908 13.6723C101.661 14.124 101.661 14.5004 101.661 14.9521C101.661 15.2532 101.661 15.4791 100.908 15.6297C99.4024 16.0813 97.8968 16.0061 96.3911 15.0274C95.6383 14.5004 95.6383 13.8229 95.6383 12.9948C94.8855 11.7903 95.6383 10.7363 95.6383 9.68239C96.3911 8.77901 97.1439 8.32732 98.6496 8.13911C99.4024 7.98855 100.155 8.02619 100.908 8.4026C101.661 8.55316 101.661 8.70373 101.661 8.92957C101.661 9.38126 101.661 9.83295 100.908 10.2846C100.908 10.1341 100.908 9.90824 100.155 9.83295C99.4024 9.53183 98.6496 9.53183 97.8968 10.0588C97.1439 10.4352 97.1439 10.9622 97.1439 11.5644C97.1439 12.242 97.1439 12.9948 97.8968 13.597C97.8968 14.0487 98.6496 14.2746 98.6496 14.3499C99.4024 14.3499 100.155 14.1993 100.908 13.7476V13.6723Z" fill="white"/>
<path d="M90.374 15.7048V15.4037V8.47779V8.25194H91.8797V9.00476C91.8797 8.62835 92.6325 8.25194 93.3853 8.11643C93.3853 8.00351 94.1381 8.08632 94.8909 8.25194C94.8909 8.77891 94.8909 9.30589 94.1381 9.75758C94.1381 9.6823 93.3853 9.68229 93.3853 9.60701C92.6325 9.60701 91.8797 10.0587 91.8797 10.8115V11.6396V15.4037V15.7048H90.374Z" fill="white"/>
<path d="M112.954 8.252H114.46V8.40256V9.0801C115.213 7.9584 115.965 7.9057 117.471 8.252C117.471 8.77897 116.718 9.30595 116.718 9.83292C116.718 9.60707 115.965 9.60707 115.213 9.68236C115.213 9.75764 114.46 10.2093 114.46 10.8869V11.5644V15.4038V15.7049H112.954V8.252Z" fill="white"/>
</svg>
