<svg width="40" height="40" viewBox="0 0 40 40" fill="none" xmlns="http://www.w3.org/2000/svg">
<rect width="40" height="40" rx="4" fill="#EE8208"/>
<path fill-rule="evenodd" clip-rule="evenodd" d="M24.6747 14.5464C25.3341 17.234 23.2835 19.4027 21.0477 19.8721C15.1133 21.1226 12.5521 12.8328 18.8842 11.1633C21.7872 10.3992 24.1582 12.4499 24.6747 14.5464ZM22.2718 14.9619C21.9793 13.9402 20.8314 13.0067 19.3997 13.3833C16.32 14.1852 17.605 18.381 20.6045 17.6305C21.6616 17.3666 22.6454 16.2719 22.2718 14.9619ZM16.7605 20.6303C18.7493 21.6854 21.3572 21.6637 23.3211 20.5814C23.4253 20.5245 23.5251 20.4584 23.6259 20.3916C23.9327 20.1883 24.2492 19.9786 24.7286 20.0018C25.5856 20.0461 27.3176 21.4128 24.2707 22.8393C23.1611 23.3576 22.7536 23.4354 22.2227 23.5368C21.953 23.5883 21.6515 23.6459 21.2099 23.7703C21.3764 24.0747 22.7239 25.2687 23.6947 26.1288C24.0413 26.436 24.3399 26.7006 24.5196 26.8669C25.6553 27.9175 24.6888 29.1112 23.5242 28.9916C22.7846 28.9146 20.4633 26.6287 20.0423 26.1586C19.6214 26.3543 19.0575 26.907 18.4803 27.4727C17.7594 28.1793 17.0178 28.9061 16.5086 28.9826C15.2982 29.1646 14.2889 27.8858 15.5192 26.7808L18.7901 23.7912C18.6162 23.7054 18.2295 23.6297 17.8525 23.5558C17.5887 23.5041 17.3296 23.4534 17.1517 23.4008C12.3837 21.9816 14.0829 19.8804 15.4485 20.0063C15.8073 20.04 16.1396 20.2492 16.44 20.4383C16.5513 20.5084 16.6582 20.5757 16.7605 20.6303Z" fill="white"/>
</svg>
