<svg width="83" height="30" viewBox="0 0 83 30" fill="none" xmlns="http://www.w3.org/2000/svg">
<path fill-rule="evenodd" clip-rule="evenodd" d="M20.3157 26.1813C22.8896 26.1813 25.6829 27.054 28.7755 29.7603C29.0847 30.0318 29.4966 29.695 29.2272 29.3581C26.1888 25.5673 23.3784 24.8452 20.5751 24.2354C17.1462 23.4892 15.3833 21.5831 14.1534 19.4908C13.9097 19.0744 13.7999 19.1469 13.7771 19.6827C13.75 20.3366 13.7956 21.2036 13.9453 22.0564C13.8056 22.0621 13.6674 22.0593 13.5277 22.0593C8.62233 22.0593 4.64615 18.1306 4.64615 13.2851C4.64615 8.43814 8.62233 4.50943 13.5277 4.50943C18.4317 4.50943 22.4079 8.43814 22.4079 13.2851C22.4079 13.629 22.3908 13.9702 22.3523 14.3056C21.7038 14.1891 20.4283 14.1777 19.5305 14.253C19.1941 14.2815 19.2426 14.4378 19.4963 14.4819C22.4321 15.0064 24.4501 16.8044 24.9119 20.0665C24.9218 20.1418 25.0202 20.1631 25.0601 20.0992C26.3073 18.0442 26.9649 15.6872 26.9612 13.2851C26.9612 5.95213 20.9471 0.0107422 13.5277 0.0107422C6.10836 0.0107422 0.0927734 5.95356 0.0927734 13.2851C0.0927734 20.6166 6.10693 26.5608 13.5277 26.5608C15.4944 26.5608 17.4483 26.1813 20.3143 26.1813H20.3157ZM21.3133 21.3628C21.9119 21.8603 22.0943 22.4544 21.7779 22.8737C21.6026 23.104 21.3176 23.2291 20.9756 23.2291C20.6407 23.2291 20.2986 23.1068 20.0621 22.9022C19.5176 22.4331 19.358 21.6727 19.7129 21.2391C19.8511 21.0714 20.0777 20.9776 20.3471 20.9776C20.6749 20.9776 21.0183 21.1141 21.3148 21.3614L21.3133 21.3628ZM24.0724 20.0935C24.1608 20.6763 23.9741 20.9179 23.7874 20.9179C23.5836 20.9179 23.3271 20.6805 23.0264 20.2157C22.7271 19.7566 22.6188 19.2293 22.767 18.9635C22.8639 18.7872 23.0677 18.7105 23.3257 18.8071C23.8245 18.9919 24.0197 19.7453 24.0724 20.0935ZM42.695 17.0546L41.1458 15.2139C41.1092 15.1705 41.0858 15.1176 41.0785 15.0614C41.0712 15.0052 41.0803 14.9481 41.1046 14.8968C41.1289 14.8456 41.1675 14.8024 41.2158 14.7725C41.264 14.7425 41.3199 14.727 41.3767 14.7278H44.6175C44.7714 14.2729 44.8598 13.7897 44.8598 13.2851C44.8598 10.9796 43.1211 8.99248 40.7382 8.99248C38.3539 8.99248 36.6167 10.9796 36.6167 13.2851C36.6167 15.592 38.3554 17.5506 40.7382 17.5506C41.4608 17.5506 42.122 17.3687 42.695 17.0532V17.0546ZM49.7039 20.1646C49.872 20.3493 49.7324 20.645 49.4801 20.645H45.9443C45.8731 20.6451 45.8028 20.6297 45.7383 20.5997C45.6738 20.5697 45.6166 20.526 45.5709 20.4716L44.9723 19.7609C43.7095 20.5704 42.2394 20.9997 40.7382 20.9975C36.4342 20.9975 32.9326 17.5393 32.9326 13.2851C32.9326 9.03228 36.4342 5.57262 40.7382 5.57262C45.0422 5.57262 48.5438 9.03228 48.5438 13.2851C48.5438 14.8202 48.0877 16.2472 47.3039 17.4497L49.7039 20.1646ZM82.367 5.92797H79.4811C79.2687 5.92797 79.0963 6.09854 79.0963 6.30748V20.2655C79.0963 20.473 79.2687 20.6436 79.4811 20.6436H82.367C82.5779 20.6436 82.7504 20.473 82.7504 20.2641V6.30748C82.75 6.25746 82.7398 6.20799 82.7202 6.16192C82.7007 6.11584 82.6722 6.07406 82.6365 6.03895C82.6008 6.00384 82.5584 5.9761 82.512 5.9573C82.4655 5.9385 82.4157 5.92902 82.3656 5.92939L82.367 5.92797ZM77.5101 5.92797H74.2821C74.2004 5.92743 74.1207 5.95292 74.0546 6.00073C73.9884 6.04854 73.9393 6.11618 73.9144 6.19377L71.3591 14.4421L68.5516 6.18382C68.5252 6.10878 68.476 6.04381 68.4109 5.99795C68.3457 5.95209 68.2679 5.92763 68.1881 5.92797H65.935C65.855 5.92755 65.777 5.95195 65.7116 5.9978C65.6462 6.04365 65.5968 6.10867 65.5701 6.18382L62.7626 14.4421L60.2073 6.19377C60.1824 6.11641 60.1336 6.04894 60.0677 6.00115C60.0018 5.95336 59.9224 5.92773 59.841 5.92797H56.6116C56.5509 5.92775 56.491 5.94178 56.4368 5.96895C56.3826 5.99611 56.3355 6.03564 56.2995 6.08432C56.2642 6.13241 56.2412 6.18829 56.2322 6.24719C56.2233 6.30609 56.2288 6.36628 56.2482 6.42261L60.9897 20.3877C61.0163 20.4629 61.0658 20.5279 61.1311 20.5737C61.1965 20.6196 61.2746 20.644 61.3545 20.6436H63.9169C63.9966 20.6437 64.0744 20.6192 64.1395 20.5733C64.2046 20.5275 64.2538 20.4627 64.2804 20.3877L67.0608 12.229L69.8413 20.3877C69.868 20.4629 69.9174 20.5279 69.9828 20.5737C70.0482 20.6196 70.1262 20.644 70.2062 20.6436H72.7686C72.8483 20.6437 72.926 20.6192 72.9911 20.5733C73.0562 20.5275 73.1054 20.4627 73.132 20.3877L77.8749 6.42261C77.8941 6.36617 77.8994 6.30592 77.8902 6.24701C77.881 6.1881 77.8577 6.13229 77.8222 6.08432C77.7861 6.03564 77.7391 5.99611 77.6849 5.96895C77.6306 5.94178 77.5708 5.92775 77.5101 5.92797ZM55.0254 6.30748V20.2655C55.0254 20.473 54.8544 20.6436 54.6406 20.6436H51.7561C51.7058 20.644 51.656 20.6344 51.6094 20.6155C51.5628 20.5966 51.5204 20.5688 51.4847 20.5335C51.4489 20.4983 51.4205 20.4563 51.4011 20.4101C51.3816 20.3638 51.3715 20.3142 51.3713 20.2641V6.30748C51.3713 6.09854 51.5437 5.92939 51.7561 5.92939H54.642C54.853 5.92939 55.0254 6.09996 55.0254 6.3089V6.30748Z" fill="white"/>
</svg>
