<svg width="60" height="56" viewBox="0 0 60 56" fill="none" xmlns="http://www.w3.org/2000/svg">
<path d="M59.9572 20.2011V10.6139C59.9572 9.32388 58.9104 8.27727 57.6205 8.27727H40.9712V1.84533C40.9712 0.826877 40.1447 0 39.1261 0H20.8311C19.8124 0 18.986 0.826877 18.986 1.84533V8.27727H2.33664C1.04661 8.27748 0 9.32408 0 10.6141V20.2013H59.9572V20.2011ZM23.1082 4.12244H36.849V8.27748H23.1082V4.12244Z" fill="#CE0058"/>
<path d="M53.2518 25.6415V29.912C53.2518 30.4711 52.7984 30.9245 52.2393 30.9245H42.3453C41.7861 30.9245 41.3327 30.4711 41.3327 29.912V25.6415H18.6247V29.912C18.6247 30.4711 18.1712 30.9245 17.6121 30.9245H7.71792C7.15877 30.9245 6.70534 30.4711 6.70534 29.912V25.6415H0V53.6631C0 54.9532 1.04661 56 2.33664 56H57.6205C58.9104 56 59.9572 54.9532 59.9572 53.6631V25.6415H53.2518Z" fill="#CE0058"/>
</svg>
