<svg width="40" height="40" viewBox="0 0 40 40" fill="none" xmlns="http://www.w3.org/2000/svg">
<path d="M33.0359 35.2482C33.0245 35.2597 33.013 35.2711 33.0018 35.2823C32.9905 35.2935 32.9795 35.3045 32.9688 35.3153C32.9925 35.2916 33.0147 35.2694 33.0359 35.2482Z" fill="#CE0058"/>
<path d="M33.2921 34.9917C33.2839 34.9999 33.2751 35.0087 33.266 35.0178C33.2568 35.0269 33.2472 35.0365 33.2373 35.0465C33.2588 35.0251 33.2763 35.0076 33.2921 34.9917Z" fill="#CE0058"/>
<path d="M33.3677 34.9158C33.3664 34.9171 33.3643 34.9192 33.3613 34.9222C33.3682 34.9153 33.3704 34.9131 33.3677 34.9158Z" fill="#CE0058"/>
<path d="M32.8812 35.4034C32.8727 35.412 32.8645 35.4202 32.857 35.4277C32.8494 35.4353 32.8423 35.4423 32.8359 35.4488C32.8512 35.4334 32.8666 35.418 32.8812 35.4034Z" fill="#CE0058"/>
<path d="M36.8391 17.7748V18.4194H33.0279C32.734 15.9825 31.7703 13.7489 30.3258 11.9093L33.0247 9.21049L33.4806 9.66642C34.9552 11.141 37.1914 8.90658 35.7158 7.43126C35.6332 7.34869 35.5585 7.274 35.4907 7.20619C35.4817 7.1972 35.4735 7.189 35.4648 7.18033C35.4569 7.17236 35.4462 7.16173 35.4342 7.1497C35.4393 7.15478 35.4445 7.16001 35.449 7.16447C35.4369 7.15244 35.4251 7.14056 35.4135 7.129C35.4103 7.12579 35.4068 7.12228 35.4037 7.11915C35.3944 7.10994 35.3852 7.10072 35.3763 7.09181C35.2937 7.00923 35.1612 6.87665 34.9623 6.67775C34.9329 6.64837 34.9179 6.63337 34.9157 6.63118C34.4787 6.19423 33.7474 5.4629 32.5688 4.28431C31.0922 2.80774 28.8549 5.04095 30.3337 6.51947L30.7896 6.9754L28.0908 9.67424C26.2512 8.2297 24.0175 7.26603 21.5807 6.9722V3.16102H22.2253C24.3138 3.16102 24.316 0 22.2253 0H17.775C15.6864 0 15.6842 3.16102 17.775 3.16102H18.4196V6.9722C15.9826 7.26611 13.749 8.22978 11.9095 9.67424L9.21056 6.9754L9.6665 6.51947C11.1435 5.04282 8.90978 2.80594 7.43134 4.28431C7.2565 4.45915 7.1165 4.59915 7.00509 4.71056C6.67947 5.03618 5.90267 5.81298 4.28438 7.43126C2.80743 8.90799 5.04712 11.139 6.51954 9.66642L6.97548 9.21049L9.67432 11.9093C8.22978 13.7489 7.26611 15.9825 6.97228 18.4194H3.16102V17.7748C3.16102 15.6863 0 15.6841 0 17.7748V22.2251C0 24.3136 3.16102 24.3158 3.16102 22.2251V21.5805H6.9722C7.26611 24.0175 8.22978 26.2511 9.67424 28.0906L6.9754 30.7894L6.51947 30.3335C5.04282 28.857 2.80547 31.0901 4.28431 32.5687C4.36688 32.6512 4.44157 32.7259 4.50938 32.7937C4.92938 33.2137 5.07704 33.3614 5.08438 33.3687C5.52134 33.8057 6.25267 34.537 7.43126 35.7156C8.90783 37.1922 11.1454 34.9592 9.66642 33.4805L9.21049 33.0245L11.9093 30.3257C13.7489 31.7702 15.9825 32.7339 18.4194 33.0277V36.8389H17.7748C15.6863 36.8389 15.6841 39.9999 17.7748 39.9999H22.2251C24.3136 39.9999 24.3158 36.8389 22.2251 36.8389H21.5805V33.0277C24.0175 32.7338 26.2511 31.7701 28.0906 30.3257L30.7894 33.0245L30.3335 33.4805C28.8565 34.9572 31.0962 37.188 32.5687 35.7156C32.6525 35.6318 32.7283 35.556 32.7969 35.4874C32.7862 35.4981 32.8024 35.4819 32.8564 35.4279C32.8773 35.4069 32.9041 35.3801 32.9375 35.3468C32.9569 35.3273 32.978 35.3062 33.0021 35.2822C33.0698 35.2144 33.1572 35.127 33.266 35.0183C33.298 34.9863 33.3319 34.9524 33.3677 34.9165C33.8045 34.4798 34.5361 33.7482 35.7155 32.5687C37.1925 31.0921 34.9588 28.8552 33.4804 30.3336L33.0244 30.7895L30.3256 28.0907C31.7701 26.2511 32.7338 24.0175 33.0276 21.5806H36.8388V22.2252C36.8388 24.3137 39.9998 24.3159 39.9998 22.2252V17.7749C40.0001 15.6863 36.8391 15.6842 36.8391 17.7748ZM17.1541 21.0125C15.2294 21.0125 13.6692 19.4522 13.6692 17.5276C13.6692 15.603 15.2295 14.0427 17.1541 14.0427C19.0787 14.0427 20.639 15.603 20.639 17.5276C20.639 19.4522 19.0788 21.0125 17.1541 21.0125ZM22.846 24.995C21.6591 24.995 20.697 24.0329 20.697 22.846C20.697 21.6591 21.6591 20.697 22.846 20.697C24.0329 20.697 24.995 21.6591 24.995 22.846C24.995 24.0329 24.0329 24.995 22.846 24.995Z" fill="#CE0058"/>
<path d="M32.9082 35.3761C32.9295 35.3548 32.9498 35.3346 32.9694 35.3149C32.9586 35.3257 32.948 35.3363 32.9378 35.3465C32.9276 35.3567 32.9177 35.3667 32.9082 35.3761Z" fill="#CE0058"/>
</svg>
