<svg width="20" height="21" viewBox="0 0 20 21" fill="none" xmlns="http://www.w3.org/2000/svg">
<path fill-rule="evenodd" clip-rule="evenodd" d="M7.20571 5.44718C7.0118 4.98281 6.86477 4.96515 6.57102 4.95327C6.47102 4.94749 6.35961 4.94171 6.23602 4.94171C5.85383 4.94171 5.4543 5.05343 5.21321 5.30031C4.91946 5.60015 4.19055 6.29968 4.19055 7.73406C4.19055 9.16859 5.23665 10.5559 5.37774 10.7502C5.52477 10.9439 7.41727 13.9305 10.3559 15.1477C12.6538 16.1 13.3357 16.0117 13.8587 15.9002C14.6227 15.7356 15.5807 15.1709 15.8218 14.4892C16.0627 13.8072 16.0627 13.2252 15.9921 13.1017C15.9216 12.9783 15.7276 12.908 15.4338 12.7608C15.1401 12.6137 13.7118 11.9083 13.4415 11.8142C13.177 11.7144 12.9243 11.7497 12.7246 12.0319C12.4424 12.4258 12.1663 12.8256 11.9429 13.0666C11.7666 13.2547 11.4785 13.2783 11.2376 13.1783C10.9143 13.0433 10.0093 12.7255 8.89258 11.732C8.02852 10.962 7.44086 10.0039 7.27055 9.71578C7.10008 9.42187 7.2529 9.25124 7.38805 9.09265C7.53508 8.91031 7.67602 8.78109 7.8229 8.61046C7.96993 8.43999 8.05212 8.35187 8.14618 8.15187C8.24618 7.95796 8.17555 7.75796 8.10508 7.61093C8.03446 7.46359 7.4468 6.02906 7.20571 5.44718ZM9.99703 0.367676C4.48422 0.367676 0 4.85314 0 10.3675C0 12.5544 0.705313 14.5827 1.90422 16.2288L0.658125 19.9442L4.50188 18.7158C6.08281 19.7622 7.96938 20.3677 10.003 20.3677C15.5158 20.3677 20 15.8819 20 10.3678C20 4.85346 15.5158 0.367988 10.003 0.367988H9.99719V0.367676H9.99703Z" fill="white"/>
</svg>
