<svg width="28" height="28" viewBox="0 0 28 28" fill="none" xmlns="http://www.w3.org/2000/svg">
<rect width="28" height="28" rx="14" fill="#00E676"/>
<path fill-rule="evenodd" clip-rule="evenodd" d="M11.8485 10.2112C11.6992 9.85367 11.586 9.84008 11.3598 9.83093C11.2828 9.82648 11.197 9.82203 11.1019 9.82203C10.8076 9.82203 10.4999 9.90805 10.3143 10.0981C10.0881 10.329 9.52686 10.8677 9.52686 11.9721C9.52686 13.0767 10.3323 14.145 10.441 14.2945C10.5542 14.4437 12.0114 16.7434 14.2741 17.6806C16.0436 18.4139 16.5686 18.3459 16.9713 18.26C17.5596 18.1333 18.2973 17.6985 18.4829 17.1736C18.6684 16.6484 18.6684 16.2003 18.6141 16.1052C18.5598 16.0102 18.4104 15.956 18.1842 15.8427C17.958 15.7295 16.8582 15.1863 16.6501 15.1139C16.4464 15.037 16.2518 15.0642 16.0981 15.2814C15.8808 15.5848 15.6682 15.8926 15.4962 16.0782C15.3604 16.223 15.1386 16.2412 14.9531 16.1642C14.7041 16.0602 14.0073 15.8155 13.1474 15.0506C12.4821 14.4577 12.0296 13.7199 11.8985 13.4981C11.7672 13.2717 11.8849 13.1404 11.9889 13.0183C12.1021 12.8778 12.2107 12.7783 12.3238 12.647C12.437 12.5157 12.5003 12.4478 12.5727 12.2938C12.6497 12.1445 12.5953 11.9905 12.541 11.8773C12.4867 11.7639 12.0342 10.6593 11.8485 10.2112ZM13.9985 6.3C9.75363 6.3 6.30078 9.75381 6.30078 13.9999C6.30078 15.6838 6.84387 17.2456 7.76703 18.513L6.80754 21.374L9.76723 20.4281C10.9845 21.2338 12.4372 21.7 14.0031 21.7C18.2479 21.7 21.7008 18.246 21.7008 14.0001C21.7008 9.75405 18.2479 6.30024 14.0031 6.30024H13.9986V6.3H13.9985Z" fill="white"/>
</svg>
