<svg width="60" height="60" viewBox="0 0 60 60" fill="none" xmlns="http://www.w3.org/2000/svg">
<path d="M30.1743 -0.000183105L31.7608 4.88233H36.8943L32.741 7.8998L34.3275 12.7823L30.1743 9.76465L26.0208 12.7823L27.6074 7.8998L23.4541 4.88233H28.5877L30.1743 -0.000183105Z" fill="#FFDA44"/>
<path d="M9.08421 8.73553L13.6588 11.0661L17.2887 7.43628L16.4854 12.5066L21.0598 14.8373L15.9893 15.6404L15.1862 20.7111L12.8554 16.1367L7.78516 16.94L11.4151 13.3101L9.08421 8.73553Z" fill="#FFDA44"/>
<path d="M0.348633 29.8252L5.23114 28.2386V23.105L8.24843 27.2584L13.1311 25.6719L10.1133 29.8252L13.1311 33.9784L8.24843 32.3921L5.23114 36.5453V31.4117L0.348633 29.8252Z" fill="#FFDA44"/>
<path d="M9.08421 50.9153L11.4149 46.3408L7.78516 42.7108L12.8556 43.5143L15.186 38.9399L15.9893 44.0104L21.0596 44.8135L16.4858 47.1443L17.2887 52.2145L13.6588 48.5846L9.08421 50.9153Z" fill="#FFDA44"/>
<path d="M30.1743 59.6511L28.5875 54.7686H23.4541L27.6076 51.7511L26.0208 46.869L30.1743 49.8863L34.3275 46.869L32.741 51.7511L36.8943 54.7686H31.7606L30.1743 59.6511Z" fill="#FFDA44"/>
<path d="M51.2642 50.9153L46.6899 48.5848L43.0597 52.2147L43.863 47.1441L39.2891 44.8135L44.3593 44.0104L45.1625 38.9399L47.493 43.5143L52.5633 42.7108L48.9333 46.3411L51.2642 50.9153Z" fill="#FFDA44"/>
<path d="M59.9989 29.8252L55.1164 31.4117V36.5453L52.0989 32.3919L47.2168 33.9784L50.2343 29.8252L47.2168 25.6719L52.0991 27.2584L55.1164 23.105V28.2388L59.9989 29.8252Z" fill="#FFDA44"/>
<path d="M51.2642 8.73534L48.9335 13.3099L52.5635 16.9398L47.4928 16.1363L45.1625 20.7107L44.3593 15.6402L39.2891 14.8369L43.863 12.5064L43.0597 7.43628L46.6901 11.0661L51.2642 8.73534Z" fill="#FFDA44"/>
</svg>
