<svg width="62" height="62" viewBox="0 0 62 62" fill="none" xmlns="http://www.w3.org/2000/svg">
<path d="M28.7369 1.53799C29.9427 0.185788 32.0573 0.185788 33.2631 1.53799C34.2449 2.63909 35.8767 2.87372 37.129 2.09383C38.6669 1.13609 40.6959 1.73187 41.4718 3.36899C42.1036 4.7021 43.6033 5.38697 45.0246 4.99148C46.7699 4.5058 48.5489 5.64908 48.8322 7.43849C49.0628 8.89561 50.3088 9.97523 51.7839 9.99618C53.5954 10.0219 54.9802 11.6201 54.7479 13.4168C54.5587 14.8799 55.45 16.2668 56.8595 16.7025C58.5904 17.2375 59.4688 19.1611 58.7397 20.8196C58.146 22.1701 58.6104 23.752 59.8401 24.5671C61.3501 25.5681 61.651 27.6613 60.4842 29.0471C59.534 30.1757 59.534 31.8243 60.4842 32.9529C61.651 34.3387 61.3501 36.4319 59.8401 37.4329C58.6104 38.248 58.146 39.8299 58.7397 41.1804C59.4688 42.8389 58.5904 44.7625 56.8595 45.2975C55.45 45.7332 54.5587 47.1201 54.7479 48.5832C54.9802 50.3799 53.5954 51.9781 51.7839 52.0038C50.3088 52.0248 49.0628 53.1044 48.8322 54.5615C48.5489 56.3509 46.7699 57.4942 45.0246 57.0085C43.6033 56.613 42.1036 57.2979 41.4718 58.631C40.6959 60.2681 38.6669 60.8639 37.129 59.9062C35.8767 59.1263 34.2449 59.3609 33.2631 60.462C32.0573 61.8142 29.9427 61.8142 28.7369 60.462C27.7551 59.3609 26.1233 59.1263 24.871 59.9062C23.3331 60.8639 21.3041 60.2681 20.5282 58.631C19.8964 57.2979 18.3967 56.613 16.9754 57.0085C15.2301 57.4942 13.4511 56.3509 13.1678 54.5615C12.9372 53.1044 11.6912 52.0248 10.2161 52.0038C8.40458 51.9781 7.01976 50.3799 7.25211 48.5832C7.44131 47.1201 6.54999 45.7332 5.14053 45.2975C3.40964 44.7625 2.53117 42.8389 3.2603 41.1804C3.85404 39.8299 3.38956 38.248 2.15994 37.4329C0.649908 36.4319 0.348958 34.3387 1.51581 32.9529C2.46597 31.8243 2.46597 30.1757 1.51581 29.0471C0.348958 27.6613 0.649908 25.5681 2.15994 24.5671C3.38956 23.752 3.85404 22.1701 3.2603 20.8196C2.53117 19.1611 3.40964 17.2375 5.14053 16.7025C6.54999 16.2668 7.44131 14.8799 7.25211 13.4168C7.01976 11.6201 8.40458 10.0219 10.2161 9.99618C11.6912 9.97523 12.9372 8.89561 13.1678 7.43849C13.4511 5.64908 15.2301 4.5058 16.9754 4.99148C18.3967 5.38697 19.8964 4.7021 20.5282 3.36899C21.3041 1.73187 23.3331 1.13609 24.871 2.09383C26.1233 2.87372 27.7551 2.63909 28.7369 1.53799Z" fill="#CE0058"/>
</svg>
