<svg width="28" height="28" fill="none" xmlns="http://www.w3.org/2000/svg"><path d="M26.262 19.31c-1.854 0-3.707-.308-5.561-.926-.464-.155-1.082 0-1.545.309l-3.399 3.398c-4.325-2.162-7.878-5.87-10.196-10.196L8.96 8.497c.463-.464.618-1.082.309-1.545-.463-1.7-.772-3.553-.772-5.407C8.497.618 7.879 0 6.952 0H1.545C.618 0 0 .618 0 1.545c0 14.522 11.74 26.262 26.262 26.262.927 0 1.545-.618 1.545-1.544v-5.408c0-.926-.618-1.544-1.545-1.544zm-1.544-5.406h3.09A13.848 13.848 0 0013.902 0v3.09c6.025 0 10.815 4.789 10.815 10.814zm-6.18 0h3.09c0-4.326-3.399-7.725-7.725-7.725v3.09c2.627 0 4.635 2.008 4.635 4.635z" fill="#000"/></svg>