<svg width="28" height="28" fill="none" xmlns="http://www.w3.org/2000/svg"><path d="M14 0C6.27 0 0 6.269 0 14s6.269 14 14 14c7.732 0 14-6.269 14-14S21.732 0 14 0zm7.393 20.427l-1.12 1.122c-.201.2-.787.324-.806.324a13.23 13.23 0 01-9.47-3.87A13.245 13.245 0 016.126 8.5c0-.001.128-.57.328-.768l1.12-1.122c.41-.413 1.198-.599 1.75-.414l.236.079c.55.184 1.128.793 1.28 1.353l.564 2.07c.152.562-.053 1.362-.463 1.772l-.748.748a7.95 7.95 0 005.59 5.592l.748-.748c.412-.412 1.212-.617 1.773-.465l2.069.565c.56.154 1.169.729 1.353 1.279l.08.24c.182.55-.003 1.337-.413 1.745z" fill="#000"/></svg>