<svg width="28" height="28" fill="none" xmlns="http://www.w3.org/2000/svg"><path d="M27.794 21.931c.06.451-.079.844-.412 1.178l-3.915 3.885a2.204 2.204 0 01-.692.5 2.857 2.857 0 01-.839.266 3.4 3.4 0 00-.177.014c-.098.01-.225.015-.382.015-.373 0-.977-.064-1.81-.191-.835-.128-1.855-.442-3.062-.942-1.207-.5-2.576-1.251-4.107-2.252-1.53-1-3.16-2.375-4.886-4.121-1.374-1.355-2.512-2.65-3.415-3.886-.903-1.237-1.629-2.38-2.178-3.43-.55-1.05-.962-2.002-1.237-2.855-.275-.854-.461-1.59-.56-2.208C.026 7.286-.014 6.8.006 6.447c.02-.353.03-.55.03-.589.039-.275.127-.554.264-.839.138-.284.305-.515.5-.692L4.716.412C4.99.137 5.304 0 5.657 0c.255 0 .48.074.677.22.196.148.363.33.5.545l3.15 5.976c.177.314.226.658.148 1.03a1.835 1.835 0 01-.5.943l-1.443 1.442a.49.49 0 00-.103.191.727.727 0 00-.044.221c.078.412.255.883.53 1.413.235.471.598 1.045 1.089 1.722.49.677 1.187 1.457 2.09 2.34.883.903 1.668 1.605 2.355 2.105.686.5 1.26.869 1.722 1.104.461.236.814.378 1.06.427l.367.074c.04 0 .104-.015.192-.045a.492.492 0 00.191-.103l1.678-1.707a1.803 1.803 0 011.236-.471c.334 0 .599.059.795.177h.03l5.681 3.355c.412.256.658.58.736.972z" fill="#000"/></svg>