<svg width="40" height="40" fill="none" xmlns="http://www.w3.org/2000/svg"><rect width="40" height="40" rx="4" fill="url(#paint0_radial)"/><rect width="40" height="40" rx="4" fill="url(#paint1_radial)"/><path fill-rule="evenodd" clip-rule="evenodd" d="M23.937 14.883c0 .63.513 1.143 1.146 1.143a1.144 1.144 0 100-2.287c-.633 0-1.146.512-1.146 1.144zm-7.132 5.084a3.179 3.179 0 013.182-3.175 3.179 3.179 0 013.182 3.175 3.179 3.179 0 01-3.182 3.175 3.179 3.179 0 01-3.182-3.175zm3.182 4.891a4.897 4.897 0 01-4.902-4.891 4.897 4.897 0 014.902-4.891 4.897 4.897 0 014.902 4.891 4.897 4.897 0 01-4.902 4.891zm7.75-12.595a3.4 3.4 0 00-1.262-.821c-.387-.15-.969-.33-2.039-.378C23.278 11.011 22.931 11 20 11s-3.279.011-4.436.064c-1.07.049-1.652.228-2.039.378a3.4 3.4 0 00-1.262.821 3.4 3.4 0 00-.821 1.262c-.15.387-.33.969-.378 2.039C11.011 16.72 11 17.069 11 20s.011 3.278.064 4.436c.049 1.07.228 1.652.378 2.038.2.513.437.879.821 1.263a3.4 3.4 0 001.262.821c.387.15.969.33 2.039.378C16.72 28.989 17.069 29 20 29s3.279-.011 4.436-.064c1.07-.049 1.652-.228 2.038-.378a3.4 3.4 0 001.263-.821c.384-.384.622-.75.821-1.262.15-.387.33-.969.378-2.039.053-1.158.064-1.505.064-4.436s-.011-3.279-.064-4.436c-.049-1.07-.228-1.652-.378-2.039a3.401 3.401 0 00-.821-1.262z" fill="#fff"/><defs><radialGradient id="paint0_radial" cx="0" cy="0" r="1" gradientUnits="userSpaceOnUse" gradientTransform="matrix(0 -39.643 36.8711 0 10.625 43.08)"><stop stop-color="#FD5"/><stop offset=".1" stop-color="#FD5"/><stop offset=".5" stop-color="#FF543E"/><stop offset="1" stop-color="#C837AB"/></radialGradient><radialGradient id="paint1_radial" cx="0" cy="0" r="1" gradientUnits="userSpaceOnUse" gradientTransform="matrix(3.47805 17.37593 -71.62415 14.33662 -6.7 2.882)"><stop stop-color="#3771C8"/><stop offset=".128" stop-color="#3771C8"/><stop offset="1" stop-color="#60F" stop-opacity="0"/></radialGradient></defs></svg>