<svg width="126" height="24" fill="none" xmlns="http://www.w3.org/2000/svg"><path d="M11.85.742c.377.047.754.1 1.13.141 1.355.137 3.538.986 4.517 1.747-2.86 2.439-4.442 5.533-4.442 9.334 0 3.69 1.506 6.851 4.442 9.335-.452.226-.828.452-1.28.678a10.76 10.76 0 01-3.538 1.054c-3.162.376-6.068-.452-8.582-2.484-2.1-1.732-3.418-3.99-3.885-6.625-.554-3.237.154-6.196 2.168-8.808 1.664-2.16 3.855-3.516 6.535-4.103C9.367.9 9.894.87 10.42.8c.075-.01.15-.03.225-.046h1.205V.742zm13.853 0c.377.046.678.089 1.054.14 1.656.23 3.237.82 4.592 1.761 2.56 1.747 4.216 4.14 4.818 7.19.603 3.463-.226 6.624-2.56 9.335-1.655 2.032-3.839 3.237-6.398 3.764-2.936.527-5.722 0-8.206-1.656 0 0-.075 0-.075-.076 2.86-2.409 4.366-5.495 4.366-9.26 0-3.779-1.506-6.858-4.442-9.334a25.645 25.645 0 011.807-.926c1.13-.528 2.41-.828 3.69-.896.074-.004.15-.028.225-.042h1.13z" fill="#fff"/><path d="M18.174 3.148c5.872 4.502 5.646 13.325 0 17.54-5.42-4.14-6.023-12.722 0-17.54zm27.254 5.104v.903c.602-.828 1.43-1.144 2.333-1.084.98.053 1.732.482 2.259 1.31.075-.15.15-.226.226-.301.527-.603 1.204-.926 2.032-1.002.603-.052 1.28.023 1.882.324.829.377 1.28 1.054 1.43 1.958v5.344h-1.656V11.49c0-.301 0-.603-.075-.828-.3-.904-.903-1.054-1.58-1.054-.528 0-1.055.226-1.431.677-.15.301-.301.678-.301 1.054v4.365H48.89v-.3c0-1.356 0-2.71-.076-4.066 0-.3-.075-.677-.15-.903-.301-.602-.753-.753-1.28-.828-.753 0-1.506.226-1.807 1.054-.075.3-.15.677-.15 1.054v3.989h-1.656V8.252h1.656zm73.827 3.726c.022.18.037.37.067.55.354 1.806 2.281 2.183 3.411 1.43.865-.527 1.114-1.43.971-2.424-.204-1.415-1.476-2.206-2.861-1.83-.971.257-1.573 1.145-1.588 2.274zm4.404-2.89V5.285l1.641-.002v10.389h-1.649v-.753c-.339.226-.647.527-1.016.677-1.702.753-4.02 0-4.781-2.108-.587-1.633-.355-3.177.911-4.449.587-.594 1.333-.896 2.176-.97.82-.084 1.581.067 2.243.571.158.12.286.264.475.43m-18.983 2.946v.602c0 1.807 2.258 2.108 3.011 1.28 1.506-.602 1.506-1.355 1.506-2.334-.753-1.43-1.506-2.258-3.011-1.807a2.455 2.455 0 00-1.506 2.259zm4.517 2.86c-.753.527-1.506.904-2.259.98-1.505.225-3.011-.754-3.764-2.485-.753-1.43-.753-2.786.753-3.99.753-.753 1.506-1.205 2.259-1.295a4.081 4.081 0 012.258.392c0 .15 0 .376.753.602v-.828h1.505v7.453h-1.505v-.829zM63.191 11.94c.075-1.204-.828-2.258-2.033-2.333-.828 0-1.505.226-1.957.904-.452.602-.527 1.204-.452 1.882.226 1.355 1.28 2.107 2.71 1.882 1.205-.226 1.807-1.28 1.732-2.334zm-.075-2.86v-.677c0-.076.075-.151.15-.151h1.43v7.453h-1.58v-.828l-.075.075c-.678.753-1.581.979-2.56.903-1.656-.075-3.011-1.28-3.388-2.936-.226-1.204 0-2.409.753-3.387.602-.904 1.506-1.355 2.56-1.446.903-.09 1.731.09 2.409.693.075.075.15.226.3.301zm23.492 2.258c0-1.28-.753-1.957-2.259-1.806-.753.15-1.505.978-1.505 1.806h3.764zm.752 2.259c0 .376.753.753.753 1.054v.301c-1.505.753-2.258.979-3.764.903-1.505-.075-3.011-1.129-3.011-2.936 0-1.28 0-2.484.753-3.463.753-.828 1.505-1.28 2.258-1.37.753-.09 1.506.076 2.259.618 1.505.602 1.505 1.43 1.505 2.409v1.505h-5.27c0 .979.753 1.656 1.506 1.732 1.506.15 2.259-.15 3.011-.602v-.151zm-21.08 1.28c.3-.377.526-.828.827-1.205 0 0 .076.075.151.075.979.678 2.033.829 3.162.527.226 0 .451-.15.677-.3.302-.302.226-.754-.15-.904-.452-.15-.828-.301-1.28-.301-.602-.15-1.28-.226-1.882-.527-.678-.301-1.13-.828-1.13-1.581-.15-.903.227-1.581.98-2.108.526-.301 1.129-.444 1.73-.474 1.13-.053 2.109.09 3.087.55.076.075.226.15.302.225-.226.452-.452.904-.678 1.28-.452-.15-.903-.376-1.28-.452-.602-.15-1.204-.226-1.807-.075-.3.15-.602.301-.677.678 0 .3.075.451.301.602.376.075.753.15 1.204.226.603.15 1.205.15 1.807.451.753.301 1.28.828 1.355 1.656.076.904-.3 1.581-1.054 2.108-.602.377-1.28.527-2.032.527-1.13.076-2.259-.075-3.237-.677-.076-.076-.226-.15-.301-.226l-.076-.075zm9.032-5.119h-1.28V8.252h1.28V6.01h1.506v2.243h3.011v1.506h-3.011v.226c0 .978 0 2.032.752 3.01v.603c0 .527 0 .828.753.678.753-.075.753-.226 1.506-.301v1.43c-.753.376-1.506.527-2.258.452 0 0-.753-.15-1.506-.527 0-.377-.753-.904-.753-1.43V9.757zm25.596 3.914c.753.452.753.828.753 1.28 0 .301 0 .527-.753.678-1.506.451-3.011.376-4.517-.603-.753-.527-.753-1.204-.753-2.032-.753-1.205 0-2.259 0-3.313.753-.903 1.506-1.355 3.012-1.543.752-.15 1.505-.113 2.258.264.753.15.753.3.753.527 0 .451 0 .903-.753 1.355 0-.15 0-.377-.753-.452-.753-.301-1.505-.301-2.258.226-.753.376-.753.903-.753 1.505 0 .678 0 1.43.753 2.033 0 .452.753.678.753.753.752 0 1.505-.15 2.258-.602v-.076zm-10.534 2.033V8.252h1.506v.753c0-.377.752-.753 1.505-.889 0-.112.753-.03 1.506.136 0 .527 0 1.054-.753 1.506 0-.076-.753-.076-.753-.151-.753 0-1.505.452-1.505 1.205v4.892h-1.506zm22.58-7.453h1.506v.828c.753-1.122 1.505-1.174 3.011-.828 0 .527-.753 1.054-.753 1.58 0-.225-.753-.225-1.505-.15 0 .076-.753.527-.753 1.205v4.817h-1.506V8.253z" fill="#fff"/></svg>