<svg width="82" height="56" fill="none" xmlns="http://www.w3.org/2000/svg"><path d="M38.397 34.04c-3.807 0-7.166 1.948-9.137 4.9l-1.985-4.863L39.84 3.3l-4.434-1.81-10.717 26.25L13.973 1.49 9.539 3.3l12.563 30.777-1.985 4.863c-1.97-2.951-5.33-4.9-9.137-4.9C4.925 34.04 0 38.966 0 45.02S4.925 56 10.98 56c4.859 0 8.988-3.173 10.43-7.555l3.279-8.032 3.278 8.03C29.409 52.826 33.538 56 38.397 56c6.055 0 10.98-4.925 10.98-10.98 0-6.054-4.925-10.98-10.98-10.98zM10.98 51.21a6.198 6.198 0 01-6.19-6.19 6.198 6.198 0 016.19-6.19 6.198 6.198 0 016.19 6.19 6.198 6.198 0 01-6.19 6.19zm27.417 0a6.198 6.198 0 01-6.19-6.19 6.198 6.198 0 016.19-6.19 6.198 6.198 0 016.191 6.19 6.198 6.198 0 01-6.19 6.19zM63.243 0a6.655 6.655 0 00-6.647 6.647v42.706A6.655 6.655 0 0063.243 56h18.492v-4.79H69.909v-2.526h11.826v-4.79H69.909v-2.526h11.826V36.58H69.909v-2.527h11.826v-4.789H69.909v-2.526h11.826v-4.79H69.909v-2.526h11.826v-4.79H69.909v-2.526h11.826v-4.79H69.909V4.79h11.826V0H63.243z" fill="#CE0058"/></svg>