<svg height="512" viewBox="0 0 192 192" width="512" xmlns="http://www.w3.org/2000/svg"><path d="M96 0a32.036 32.036 0 00-32 32v56a24.027 24.027 0 0024 24h16a24.027 24.027 0 0024-24V32A32.036 32.036 0 0096 0z"/><path d="M136 40.867V88a32.036 32.036 0 01-32 32H88a32.036 32.036 0 01-32-32V41.126A57.24 57.24 0 0040 80.85V192h112V80a55.8 55.8 0 00-16-39.133zM120 176H72v-8h48zm0-16H72v-8h48zM36 48a12.013 12.013 0 01-12-12 4 4 0 00-8 0A12.013 12.013 0 014 48a4 4 0 000 8 12.013 12.013 0 0112 12 4 4 0 008 0 12.013 12.013 0 0112-12 4 4 0 000-8zm147-32a12.013 12.013 0 01-12-12 4 4 0 00-8 0 12.013 12.013 0 01-12 12 4 4 0 000 8 12.013 12.013 0 0112 12 4 4 0 008 0 12.013 12.013 0 0112-12 4 4 0 000-8z"/></svg>