<svg width="40" height="40" fill="none" xmlns="http://www.w3.org/2000/svg"><rect width="40" height="40" rx="4" fill="#EE8208"/><path fill-rule="evenodd" clip-rule="evenodd" d="M24.675 14.546c.66 2.688-1.392 4.857-3.627 5.326-5.935 1.25-8.496-7.04-2.164-8.709 2.903-.764 5.274 1.287 5.79 3.383zm-2.403.416a2.343 2.343 0 00-2.872-1.579c-3.08.802-1.795 4.998 1.205 4.248 1.057-.264 2.04-1.36 1.667-2.67zM16.76 20.63c1.988 1.055 4.596 1.034 6.56-.049.104-.056.204-.123.305-.19.307-.203.623-.412 1.103-.39.857.045 2.589 1.412-.458 2.838-1.11.519-1.517.596-2.048.698-.27.051-.572.109-1.013.233.166.305 1.514 1.499 2.485 2.359.346.307.645.572.825.738 1.135 1.05.169 2.244-.996 2.125-.74-.077-3.06-2.363-3.482-2.833-.42.195-.985.748-1.562 1.314-.72.706-1.462 1.433-1.971 1.51-1.21.182-2.22-1.097-.99-2.202l3.271-2.99c-.174-.086-.56-.161-.938-.235-.263-.052-.522-.103-.7-.155-4.768-1.42-3.07-3.52-1.704-3.395.36.034.692.243.992.432.111.07.218.138.32.192z" fill="#fff"/></svg>