<svg width="83" height="30" fill="none" xmlns="http://www.w3.org/2000/svg"><path fill-rule="evenodd" clip-rule="evenodd" d="M20.316 26.181c2.574 0 5.367.873 8.46 3.58.309.27.72-.066.451-.403-3.038-3.79-5.849-4.513-8.652-5.123-3.429-.746-5.192-2.652-6.422-4.744-.243-.417-.353-.344-.376.192-.027.654.019 1.52.168 2.373-.14.006-.278.003-.417.003-4.906 0-8.882-3.928-8.882-8.774 0-4.847 3.976-8.776 8.882-8.776 4.904 0 8.88 3.93 8.88 8.776 0 .344-.017.685-.056 1.02-.648-.116-1.924-.127-2.822-.052-.336.028-.287.185-.034.229 2.936.524 4.954 2.322 5.416 5.585a.08.08 0 00.148.032 13.094 13.094 0 001.901-6.814c0-7.333-6.014-13.274-13.433-13.274C6.108.01.093 5.954.093 13.285c0 7.332 6.014 13.276 13.435 13.276 1.966 0 3.92-.38 6.786-.38h.002zm.997-4.818c.599.497.781 1.091.465 1.51-.175.231-.46.356-.802.356-.335 0-.677-.122-.914-.327-.544-.469-.704-1.23-.35-1.663.14-.168.366-.261.635-.261.328 0 .671.136.968.383l-.002.002zm2.76-1.27c.088.583-.099.825-.286.825-.203 0-.46-.238-.76-.702-.3-.46-.408-.987-.26-1.253.097-.176.3-.253.559-.156.498.185.694.938.746 1.287zm18.622-3.038l-1.55-1.841a.296.296 0 01.232-.486h3.24c.154-.455.243-.938.243-1.443 0-2.305-1.739-4.293-4.122-4.293-2.384 0-4.121 1.988-4.121 4.293 0 2.307 1.738 4.266 4.121 4.266.723 0 1.384-.182 1.957-.498v.002zm7.009 3.11c.168.184.028.48-.224.48h-3.536a.487.487 0 01-.373-.173l-.599-.711a7.825 7.825 0 01-4.234 1.236c-4.304 0-7.805-3.458-7.805-7.712 0-4.253 3.501-7.712 7.805-7.712s7.806 3.46 7.806 7.712a7.595 7.595 0 01-1.24 4.165l2.4 2.715zM82.367 5.928h-2.886a.383.383 0 00-.385.38v13.957c0 .208.173.379.385.379h2.886c.21 0 .383-.171.383-.38V6.307a.38.38 0 00-.384-.378l.001-.001zm-4.857 0h-3.228a.384.384 0 00-.368.266l-2.555 8.248-2.807-8.258a.383.383 0 00-.364-.256h-2.253a.385.385 0 00-.365.256l-2.807 8.258-2.556-8.248a.383.383 0 00-.366-.266h-3.23a.387.387 0 00-.311.156.37.37 0 00-.052.339l4.742 13.965a.384.384 0 00.364.256h2.563a.385.385 0 00.363-.256l2.78-8.159 2.781 8.159a.384.384 0 00.365.256h2.563a.385.385 0 00.363-.256l4.743-13.965a.369.369 0 00-.053-.339.387.387 0 00-.312-.156zm-22.485.38v13.957a.382.382 0 01-.384.379h-2.885a.382.382 0 01-.385-.38V6.307c0-.208.173-.378.385-.378h2.886c.211 0 .383.171.383.38v-.002z" fill="#fff"/></svg>