<svg width="40" height="40" fill="none" xmlns="http://www.w3.org/2000/svg"><g clip-path="url(#clip0)" fill="#CE0058"><path d="M37.072 3.636h-29.8c-.089 0-.17.034-.255.06l-.733-2.407A1.818 1.818 0 004.545 0H.91A.91.91 0 000 .91v1.817c0 .502.407.91.91.91h2.289l5.68 18.665-2.122 2.475c-.838.978-1.216 2.326-.83 3.555.494 1.572 1.881 2.577 3.48 2.577h26.048a.91.91 0 00.909-.91v-1.817a.91.91 0 00-.91-.91H9.409l2.882-3.361c.072-.085.125-.18.18-.275h17.617c1.41 0 2.691-.813 3.291-2.088l6.344-13.48a2.96 2.96 0 00.278-1.246v-.258a2.928 2.928 0 00-2.928-2.928zM10.909 40a3.636 3.636 0 100-7.273 3.636 3.636 0 000 7.273zm21.818 0a3.636 3.636 0 100-7.273 3.636 3.636 0 000 7.273z"/></g><defs><clipPath id="clip0"><path fill="#fff" d="M0 0h40v40H0z"/></clipPath></defs></svg>