<svg width="60" height="56" fill="none" xmlns="http://www.w3.org/2000/svg"><path d="M59.957 20.201v-9.587a2.337 2.337 0 00-2.337-2.337H40.971V1.845A1.846 1.846 0 0039.126 0H20.831a1.846 1.846 0 00-1.845 1.845v6.432H2.336A2.338 2.338 0 000 10.614v9.587h59.957zM23.108 4.122H36.85v4.155H23.11V4.122zm30.144 21.52v4.27c0 .56-.454 1.012-1.013 1.012h-9.894a1.012 1.012 0 01-1.012-1.012v-4.27H18.625v4.27c0 .56-.454 1.012-1.013 1.012H7.718c-.56 0-1.013-.453-1.013-1.012v-4.27H0v28.021A2.337 2.337 0 002.337 56H57.62a2.338 2.338 0 002.337-2.337V25.642h-6.705z" fill="#CE0058"/></svg>