<svg width="20" height="21" fill="none" xmlns="http://www.w3.org/2000/svg"><path fill-rule="evenodd" clip-rule="evenodd" d="M7.206 5.447c-.194-.464-.341-.482-.635-.494a5.669 5.669 0 00-.335-.011c-.382 0-.782.111-1.023.358-.294.3-1.022 1-1.022 2.434 0 1.435 1.046 2.822 1.187 3.016.147.194 2.04 3.18 4.978 4.398 2.298.952 2.98.864 3.503.752.764-.164 1.722-.73 1.963-1.41.24-.683.24-1.265.17-1.388-.07-.124-.264-.194-.558-.341-.294-.147-1.722-.853-1.992-.947-.265-.1-.518-.064-.717.218-.283.394-.559.794-.782 1.035-.176.188-.464.211-.705.111-.324-.135-1.229-.453-2.345-1.446-.864-.77-1.452-1.728-1.622-2.016-.17-.294-.018-.465.117-.623.147-.183.288-.312.435-.483.147-.17.23-.258.323-.458.1-.194.03-.394-.04-.541-.072-.147-.66-1.582-.9-2.164zM9.997.367C4.484.368 0 4.854 0 10.368c0 2.187.705 4.216 1.904 5.862L.658 19.944l3.844-1.228a9.92 9.92 0 005.501 1.652c5.513 0 9.997-4.486 9.997-10 0-5.515-4.484-10-9.997-10h-.006z" fill="#fff"/></svg>