<svg width="1312" height="248" fill="none" xmlns="http://www.w3.org/2000/svg"><g opacity=".04" fill="#fff"><path d="M178.861 70.174c5.504 6.192 6.192 13.072 6.192 13.072 13.071-16.512 28.207-23.391 47.471-23.391 23.392 0 38.528 8.255 46.784 24.08 13.072-15.137 30.272-24.08 50.912-24.08 36.463 0 53.663 20.64 53.663 58.479 0 0-1.376 55.728 1.376 61.92 4.128 12.384 10.32 13.072 14.448 16.512l-6.88-2.064s-28.208.688-31.648-13.76c-3.44-15.136-2.752-63.984-2.752-63.984 0-23.392-6.192-37.84-28.895-37.84-19.952 0-33.024 7.568-44.72 22.704.688 4.816 1.376 9.632 1.376 15.136v77.744H261.42v-77.744c0-23.392-6.192-37.84-28.896-37.84-20.64 0-33.024 8.256-45.408 23.392v92.192h-24.767V61.918c-.688 0 10.32 2.065 16.512 8.256zm394.235-.686c4.816 6.192 6.192 13.072 6.192 13.072 13.071-16.512 27.519-23.392 46.095-23.392s29.584 4.816 41.28 19.264l-16.512 15.136c-7.568-9.632-17.2-13.76-26.832-13.76-19.952 0-30.96 7.568-41.967 23.392v91.503h-24.768V61.92c-.688 0 11.696 2.064 16.512 7.568zm100.45 21.327l38.527 77.744h1.376l39.904-107.328h26.832l-65.36 158.927c-6.88 17.2-23.392 27.52-41.967 27.52-6.88 0-11.008-1.376-17.888-3.44l3.44-19.264c3.44.688 6.88 1.376 10.32 1.376 12.384 0 21.327-4.128 27.519-18.576l4.816-11.695-42.655-90.128 15.136-15.136zM819.415 10.32c8.256 8.944 7.568 22.016 7.568 22.016v123.151c0 13.072 4.816 17.888 19.264 17.888v22.704c-2.064 0-4.128.688-6.192.688-28.208 0-37.84-16.512-37.84-44.032V0s8.944 1.376 17.2 10.32zm81.161 13.07c0 8.945-6.192 16.513-17.2 16.513s-17.2-8.256-17.2-16.512c0-8.944 6.192-16.512 17.2-16.512 10.32 0 17.2 7.568 17.2 16.512zm-5.504 40.593v133.471h-24.768V63.983h24.768zm121.098 22.703c-13.76-6.192-26.143-8.256-40.591-8.256-23.392 0-33.024 7.568-33.024 17.888 0 13.072 12.384 16.512 35.776 19.264 33.019 3.44 52.289 14.448 52.289 41.968 0 27.52-24.77 40.592-63.297 40.592-19.264 0-33.024-2.064-48.847-8.944l6.192-19.952c13.759 6.192 26.831 9.632 41.279 9.632 27.52 0 41.283-6.88 41.283-21.328 0-13.072-8.947-17.888-36.467-20.64-34.4-3.44-51.599-14.448-51.599-38.528 0-21.328 18.575-38.528 57.103-38.528 19.264 0 30.963 2.065 47.473 8.256l-7.57 18.576zM7.568 68.111c19.952-8.256 34.4-11.696 57.104-11.696 39.215 0 57.791 13.76 57.791 46.096v55.727c0 13.072 3.44 16.512 16.512 16.512v17.888c-6.192 2.064-10.32 2.752-17.888 2.752-11.008 0-17.888-8.256-18.576-22.016-12.384 14.448-30.271 22.016-55.04 22.016C16.512 195.39 0 179.566 0 154.798c0-11.696 3.44-21.327 12.384-31.647 24.08-7.568 48.16-15.824 86-16.512l-.689-13.072c0-7.568-7.568-16.512-33.711-16.512-16.512 0-33.024 3.44-50.224 11.008L7.568 68.11zm90.815 50.912c-30.96.688-54.351 4.128-68.111 17.2-4.128 4.127-5.504 9.631-5.504 15.823 0 14.448 9.632 22.016 26.144 22.016 17.887 0 32.335-4.816 47.471-17.888v-37.151z"/><path d="M107.323 119.711c-8.944.688-20.64 0-28.208 1.376-20.64 3.44-41.968 2.064-57.104 22.015 4.128-13.76-20.64-8.944-11.696-18.575 19.264-19.952 75.68-24.768 99.072-26.144 11.696-.688 51.599-17.888 52.287-36.464 3.44 24.768-13.072 39.904-17.888 44.032-8.256 6.88-15.823 10.32-29.583 13.76m288.962-51.6c19.952-8.256 34.399-11.696 57.103-11.696 39.216 0 57.792 13.76 57.792 46.096v55.727c0 13.072 3.44 16.512 16.512 16.512v17.888c-6.192 2.064-10.32 2.752-17.888 2.752-11.008 0-17.888-8.256-18.576-22.016-12.384 14.448-30.272 22.016-55.04 22.016-30.959 0-47.471-15.824-47.471-40.592 0-11.696 3.44-21.327 12.384-31.647 24.079-7.568 48.159-15.824 85.999-16.512l-.688-13.072c0-7.568-7.568-16.512-33.712-16.512-16.512 0-33.024 3.44-50.223 11.008l-6.192-19.952zm90.127 50.912c-30.96.688-54.352 4.128-68.112 17.2-4.127 4.127-5.503 9.631-5.503 15.823 0 14.448 9.631 22.016 26.143 22.016 17.888 0 32.336-4.816 47.472-17.888v-37.151z"/><path d="M502.924 119.711c-8.944.688-20.64 0-28.208 1.376-20.64 3.44-41.968 2.064-57.104 22.015 4.128-13.76-20.64-8.944-11.696-18.575 19.264-19.952 75.68-24.768 99.072-26.144 11.696-.688 51.599-17.888 52.287-36.464 3.44 24.768-13.072 39.904-17.888 44.032-8.255 6.88-15.823 10.32-29.583 13.76m560.036 61.919c0 6.192-4.13 11.008-11.01 11.008s-11.01-4.816-11.01-11.008c0-6.192 4.13-11.008 11.01-11.008s11.01 4.816 11.01 11.008zm70.86-114.206c24.76 0 41.96 13.072 41.96 34.4 0 13.76-9.63 27.519-28.89 32.335l37.84 57.104h-17.2l-35.09-55.04h-33.02v55.04h-14.45V67.423h48.85zm-34.4 57.103h31.64c17.89 0 30.28-7.568 30.28-22.703 0-15.136-11.01-22.016-30.96-22.016h-31.65v44.719h.69zm116.95-57.103v70.175c0 30.272 14.45 44.032 37.15 44.032s37.15-14.448 37.15-44.032V67.424H1312v68.799c0 39.904-19.95 57.792-51.6 57.792-31.65 0-51.6-17.888-51.6-57.792v-68.8h14.45z"/></g></svg>