<svg width="60" height="60" fill="none" xmlns="http://www.w3.org/2000/svg"><path d="M30.174 0l1.587 4.882h5.133L32.741 7.9l1.587 4.882-4.154-3.017-4.153 3.017L27.607 7.9l-4.153-3.018h5.134L30.174 0zM9.084 8.736l4.575 2.33 3.63-3.63-.804 5.07 4.575 2.331-5.07.803-.804 5.071-2.33-4.574-5.07.803 3.63-3.63-2.332-4.574zM.349 29.825L5.23 28.24v-5.134l3.017 4.153 4.883-1.586-3.018 4.153 3.018 4.153-4.883-1.586-3.017 4.153v-5.133L.35 29.825zm8.735 21.09l2.33-4.574-3.629-3.63 5.07.803 2.331-4.574.803 5.07 5.07.803-4.573 2.331.803 5.07-3.63-3.63-4.575 2.331zm21.09 8.736l-1.587-4.882h-5.133l4.154-3.018-1.587-4.882 4.153 3.017 4.154-3.017-1.587 4.882 4.153 3.018h-5.133l-1.587 4.882zm21.09-8.736l-4.574-2.33-3.63 3.63.803-5.07-4.574-2.332 5.07-.803.803-5.07 2.331 4.574 5.07-.803-3.63 3.63 2.331 4.574zm8.735-21.09l-4.883 1.587v5.133L52.1 32.392l-4.882 1.586 3.017-4.153-3.017-4.153 4.882 1.586 3.017-4.153v5.134L60 29.825zm-8.735-21.09l-2.33 4.575 3.63 3.63-5.071-.804-2.33 4.575-.804-5.07-5.07-.804 4.574-2.33-.803-5.07 3.63 3.63 4.574-2.332z" fill="#FFDA44"/></svg>