<svg width="62" height="62" fill="none" xmlns="http://www.w3.org/2000/svg"><path d="M28.737 1.538a3.032 3.032 0 014.526 0 3.032 3.032 0 003.866.556 3.032 3.032 0 014.343 1.275 3.032 3.032 0 003.553 1.622 3.032 3.032 0 013.807 2.447 3.032 3.032 0 002.952 2.558 3.032 3.032 0 012.964 3.42 3.032 3.032 0 002.111 3.287 3.032 3.032 0 011.88 4.117 3.032 3.032 0 001.101 3.747 3.032 3.032 0 01.644 4.48 3.032 3.032 0 000 3.906 3.032 3.032 0 01-.644 4.48 3.032 3.032 0 00-1.1 3.747 3.032 3.032 0 01-1.88 4.117 3.032 3.032 0 00-2.112 3.286 3.032 3.032 0 01-2.964 3.42 3.032 3.032 0 00-2.952 2.559 3.032 3.032 0 01-3.807 2.447 3.032 3.032 0 00-3.553 1.622 3.032 3.032 0 01-4.343 1.275 3.032 3.032 0 00-3.866.556 3.032 3.032 0 01-4.526 0 3.032 3.032 0 00-3.866-.556 3.032 3.032 0 01-4.343-1.275 3.032 3.032 0 00-3.553-1.623 3.032 3.032 0 01-3.807-2.447 3.032 3.032 0 00-2.952-2.557 3.032 3.032 0 01-2.964-3.42 3.032 3.032 0 00-2.111-3.287 3.032 3.032 0 01-1.88-4.117 3.032 3.032 0 00-1.101-3.747 3.032 3.032 0 01-.644-4.48 3.032 3.032 0 000-3.906 3.032 3.032 0 01.644-4.48 3.032 3.032 0 001.1-3.747 3.032 3.032 0 011.88-4.117 3.032 3.032 0 002.112-3.286 3.032 3.032 0 012.964-3.42 3.032 3.032 0 002.952-2.559 3.032 3.032 0 013.807-2.447 3.032 3.032 0 003.553-1.622 3.032 3.032 0 014.343-1.275 3.032 3.032 0 003.866-.556z" fill="#CE0058"/></svg>