<svg width="234" height="32" fill="none" xmlns="http://www.w3.org/2000/svg"><path d="M22.918 9.256a3.27 3.27 0 01.794 1.675c1.675-2.115 3.614-2.997 6.082-2.997 2.997 0 4.937 1.058 5.995 3.085 1.675-1.939 3.878-3.085 6.523-3.085 4.672 0 6.876 2.645 6.876 7.493 0 0-.176 7.14.176 7.934.53 1.587 1.323 1.675 1.852 2.116l-.882-.265s-3.614.088-4.055-1.763c-.44-1.94-.353-8.198-.353-8.198 0-2.997-.793-4.849-3.702-4.849-2.556 0-4.231.97-5.73 2.91.088.616.176 1.234.176 1.939v9.961h-3.173v-9.961c0-2.997-.794-4.849-3.703-4.849-2.644 0-4.231 1.058-5.818 2.998v11.812h-3.173V8.198c-.089 0 1.322.265 2.115 1.058zm50.513-.088a4.48 4.48 0 01.793 1.675c1.675-2.116 3.526-2.997 5.907-2.997 2.38 0 3.79.617 5.289 2.468l-2.116 1.94c-.97-1.235-2.204-1.764-3.438-1.764-2.556 0-3.967.97-5.377 2.998v11.724h-3.174V8.198c-.088 0 1.499.265 2.116.97zm12.871 2.733l4.937 9.961h.176L96.528 8.11h3.438L91.59 28.474C90.71 30.678 88.594 32 86.214 32c-.882 0-1.41-.176-2.292-.44l.44-2.469c.441.088.882.176 1.323.176 1.587 0 2.733-.529 3.526-2.38l.617-1.498-5.465-11.549 1.939-1.939zm18.691-10.314c1.058 1.146.97 2.82.97 2.82v15.78c0 1.675.617 2.292 2.468 2.292v2.91c-.265 0-.529.088-.793.088-3.615 0-4.849-2.116-4.849-5.642V.265s1.146.176 2.204 1.322zm10.399 1.675c0 1.146-.793 2.115-2.204 2.115-1.41 0-2.204-1.057-2.204-2.115 0-1.146.794-2.116 2.204-2.116 1.323 0 2.204.97 2.204 2.116zm-.705 5.2v17.103h-3.174V8.463h3.174zm15.516 2.91c-1.763-.793-3.349-1.058-5.201-1.058-2.997 0-4.231.97-4.231 2.292 0 1.675 1.587 2.116 4.584 2.468 4.231.441 6.7 1.852 6.7 5.378s-3.174 5.2-8.111 5.2c-2.468 0-4.231-.264-6.258-1.145l.793-2.557c1.763.794 3.438 1.235 5.289 1.235 3.526 0 5.289-.882 5.289-2.733 0-1.675-1.146-2.292-4.672-2.645-4.407-.44-6.611-1.851-6.611-4.936 0-2.733 2.38-4.937 7.316-4.937 2.469 0 3.967.264 6.083 1.058l-.97 2.38zM.97 8.992c2.556-1.058 4.407-1.499 7.316-1.499 5.025 0 7.405 1.763 7.405 5.906v7.14c0 1.676.441 2.116 2.116 2.116v2.293c-.793.264-1.322.352-2.292.352-1.41 0-2.292-1.058-2.38-2.82-1.587 1.85-3.879 2.82-7.052 2.82C2.116 25.3 0 23.273 0 20.1c0-1.5.44-2.734 1.587-4.056 3.085-.97 6.17-2.028 11.019-2.116l-.088-1.675c0-.97-.97-2.115-4.32-2.115-2.115 0-4.231.44-6.435 1.41L.97 8.992zm11.636 6.523c-3.967.088-6.964.529-8.727 2.204-.53.529-.705 1.234-.705 2.027 0 1.852 1.234 2.821 3.35 2.821 2.291 0 4.143-.617 6.082-2.292v-4.76z" fill="#fff"/><path d="M13.752 15.603c-1.146.088-2.644 0-3.614.177-2.645.44-5.378.264-7.317 2.82.529-1.763-2.645-1.146-1.499-2.38 2.469-2.556 9.697-3.173 12.695-3.35 1.498-.088 6.611-2.291 6.7-4.672.44 3.174-1.676 5.113-2.293 5.642-1.058.882-2.027 1.322-3.79 1.763m37.024-6.611c2.557-1.058 4.408-1.499 7.317-1.499 5.025 0 7.405 1.763 7.405 5.906v7.14c0 1.676.441 2.116 2.116 2.116v2.293c-.793.264-1.322.352-2.292.352-1.41 0-2.292-1.058-2.38-2.82-1.587 1.85-3.879 2.82-7.053 2.82-3.967 0-6.082-2.027-6.082-5.2 0-1.5.44-2.734 1.587-4.056 3.085-.97 6.17-2.028 11.019-2.116l-.088-1.675c0-.97-.97-2.115-4.32-2.115-2.116 0-4.231.44-6.435 1.41l-.794-2.556zm11.549 6.523c-3.967.088-6.965.529-8.728 2.204-.529.529-.705 1.234-.705 2.027 0 1.852 1.234 2.821 3.35 2.821 2.292 0 4.143-.617 6.083-2.292v-4.76z" fill="#fff"/><path d="M64.44 15.603c-1.145.088-2.644 0-3.614.177-2.644.44-5.377.264-7.316 2.82.529-1.763-2.645-1.146-1.499-2.38 2.468-2.556 9.697-3.173 12.694-3.35 1.499-.088 6.612-2.291 6.7-4.672.44 3.174-1.675 5.113-2.292 5.642-1.058.882-2.028 1.322-3.79 1.763M2.114.176l1.852 4.32.264.793h.088l.353-.793L6.522.176h.882v5.819h-.706V1.85l.088-.97-.352.97-1.851 4.144h-.617L2.202 1.85 1.85.881l.088.97v4.144h-.705V.176h.881zm7.32.97V.441C9.963.176 10.58.088 11.197.088s1.058.088 1.322.353c.265.264.53.529.617.793.089.353.089.617.089.97v3.702h-.617v-.97c-.353.706-1.058 1.058-1.852 1.058-.44 0-.793-.088-1.058-.264-.264-.176-.529-.353-.617-.617-.176-.265-.176-.529-.176-.793 0-.794.353-1.323.97-1.587.617-.265 1.41-.441 2.38-.441h.352v-.176c0-1.058-.44-1.587-1.322-1.587-.793.176-1.322.264-1.851.617zm2.997 1.851h-.617c-.705 0-1.234.088-1.675.265-.44.176-.617.529-.617 1.058 0 .176.088.44.176.617.089.176.265.264.441.352.177.088.353.177.53.177.352 0 .704-.089.969-.265.264-.176.44-.44.617-.705.176-.265.176-.617.176-1.058v-.44zM15.076.176h3.526v.617H15.78v5.202h-.705V.176zm4.67.97V.441c.529-.265 1.146-.353 1.763-.353s1.058.088 1.322.353c.265.264.53.529.617.793.088.353.088.617.088.97v3.702h-.617v-.97c-.352.706-1.058 1.058-1.85 1.058-.442 0-.794-.088-1.059-.264-.264-.176-.529-.353-.617-.617-.176-.176-.264-.44-.264-.705 0-.794.352-1.323.97-1.587.616-.265 1.41-.44 2.38-.44h.352v-.177c0-1.058-.44-1.587-1.322-1.587-.617.088-1.234.176-1.763.529zm3.085 1.851h-.617c-.705 0-1.234.088-1.675.265-.44.176-.617.529-.617 1.058 0 .176.088.44.176.617.089.176.265.264.441.352.176.088.353.177.53.177.352 0 .704-.089.969-.265.264-.176.44-.44.617-.705.176-.265.176-.617.176-1.058v-.44zm3.086.265v-.617h.53c.44 0 .793-.089.969-.265.264-.176.352-.44.352-.793a.952.952 0 00-.264-.617c-.176-.177-.529-.353-1.146-.353-.44 0-.97.088-1.41.353V.353c.529-.177.97-.265 1.498-.265.617 0 1.146.176 1.499.44.352.265.529.706.529 1.147 0 .264-.088.529-.265.793-.176.177-.352.353-.617.441.265.088.53.176.794.44.264.177.352.53.352 1.059 0 .264-.088.529-.264.793-.177.265-.441.44-.706.617-.352.176-.793.265-1.322.265a4.202 4.202 0 01-1.763-.353l.088-.617c.53.264 1.058.44 1.675.44a2.43 2.43 0 001.146-.264c.265-.176.441-.44.441-.793 0-.265-.088-.53-.176-.705-.088-.177-.353-.265-.53-.353-.264-.088-.528-.088-.88-.088h-.53v-.088zM30.503.176h.705v4.849l.353-.617L34.558.176h.793v5.819h-.705V1.146l-.353.617-2.997 4.232h-.793V.176zm6.697 0h.706v2.469h3.173V.176h.705v5.819h-.705V3.262h-3.173v2.733H37.2V.176zM47.252.088h.705v2.557L50.602.088h.882l-2.822 2.733 3.174 3.085h-.97l-2.909-2.909v2.91h-.705V.087zm5.2 2.909c0-.44.088-.793.176-1.146.088-.352.264-.705.529-.97.264-.264.529-.528.881-.617A2.44 2.44 0 0155.184 0c.53 0 1.058.176 1.499.44.44.265.705.618.882 1.059.176.44.264.97.264 1.498 0 .53-.088 1.058-.353 1.499-.176.44-.529.793-.881 1.058-.44.264-.882.44-1.499.44-.529 0-1.058-.176-1.498-.44-.441-.265-.706-.617-.882-1.058a4.118 4.118 0 01-.264-1.499zm.793 0c0 .265 0 .53.088.794s.176.529.353.793c.176.264.352.44.617.617.264.176.529.265.881.265.353 0 .617-.089.882-.265a2.06 2.06 0 00.617-.617c.176-.264.264-.529.353-.793.088-.265.088-.53.088-.794 0-.352-.088-.705-.177-1.146A1.617 1.617 0 0056.33.97c-.264-.265-.617-.353-1.146-.353-.44 0-.793.088-1.146.353-.264.264-.529.529-.617.881-.176.353-.176.705-.176 1.146zM63.12.176v.618c-.442-.177-.97-.265-1.588-.265-.44 0-.793.088-1.057.353-.265.176-.53.529-.706.881-.176.353-.264.794-.264 1.234 0 .706.176 1.146.44 1.587.265.353.618.617.882.705.353.089.529.177.794.177.528 0 1.057-.088 1.41-.265l.088.617c-.44.177-.97.265-1.498.265-.53 0-1.058-.088-1.411-.353-.44-.264-.793-.617-.97-1.058-.264-.44-.352-.97-.352-1.586 0-.618.088-1.146.352-1.587.265-.441.53-.794.97-1.058.44-.265.882-.353 1.322-.353C62.062 0 62.59 0 63.12.176zm2.29-.088l1.85 4.32.265.793h.088l.353-.793 1.851-4.32h.882v5.818h-.705V1.763l.088-.97-.353.97-1.851 4.143h-.617l-1.763-4.143-.353-.97.088.97v4.143h-.705V.088h.882zm11.46 3.086h-4.144c0 .352.089.793.265 1.146.176.352.44.617.705.793.353.176.705.353 1.146.353.44 0 .97-.177 1.587-.441v.617a3.458 3.458 0 01-1.587.352c-.352 0-.705-.088-1.058-.176-.352-.088-.617-.264-.881-.529-.265-.264-.441-.617-.617-.97a3.655 3.655 0 01-.265-1.41c0-.529.088-1.058.265-1.499.176-.44.529-.793.881-1.057C73.52.088 73.961 0 74.49 0c.705 0 1.234.176 1.586.529.353.353.53.705.617 1.146.088.44.088.881.088 1.322v.177h.089zm-4.055-.618h3.35c0-.528-.089-.97-.353-1.41-.177-.44-.617-.617-1.234-.617-.353 0-.706.088-.97.264-.264.177-.44.441-.617.794-.176.352-.176.705-.176.97zM77.488.088h4.32v.617h-1.852v5.201h-.705v-5.2H77.4V.087h.088zm5.377 0h.705v4.849l.353-.617L86.92.088h.793v5.818h-.705V1.058l-.353.617-2.997 4.231h-.793V.088zm6.701 0h.705v2.557L92.916.088h.881l-2.82 2.733 3.173 3.085h-.97l-2.909-2.909v2.91h-.705V.087zm5.551 0h.705v4.849l.353-.617L99.172.088h.793v5.818h-.617V1.058l-.352.617-2.998 4.231h-.793V.088h-.088zm41.963 23.449c0 .793-.529 1.41-1.41 1.41-.882 0-1.411-.617-1.411-1.41 0-.793.529-1.41 1.411-1.41.881 0 1.41.617 1.41 1.41z" fill="#fff"/><path d="M150.196 25.132c-1.525 0-2.904-.337-4.136-1.012a7.537 7.537 0 01-2.882-2.794c-.689-1.203-1.034-2.545-1.034-4.026 0-1.481.345-2.816 1.034-4.004a7.446 7.446 0 012.904-2.816c1.232-.675 2.611-1.012 4.136-1.012 1.144 0 2.2.19 3.168.572a6.57 6.57 0 012.464 1.672l-1.034 1.034c-1.203-1.217-2.721-1.826-4.554-1.826-1.217 0-2.325.279-3.322.836a6.192 6.192 0 00-2.354 2.288c-.557.968-.836 2.053-.836 3.256 0 1.203.279 2.288.836 3.256a6.191 6.191 0 002.354 2.288c.997.557 2.105.836 3.322.836 1.848 0 3.366-.616 4.554-1.848l1.034 1.034a6.753 6.753 0 01-2.486 1.694c-.968.381-2.024.572-3.168.572zm15.534 0c-1.525 0-2.911-.337-4.158-1.012a7.653 7.653 0 01-2.904-2.816c-.689-1.188-1.034-2.523-1.034-4.004 0-1.481.345-2.816 1.034-4.004a7.493 7.493 0 012.904-2.794c1.247-.69 2.633-1.034 4.158-1.034 1.526 0 2.897.337 4.114 1.012a7.446 7.446 0 012.904 2.816c.704 1.188 1.056 2.523 1.056 4.004 0 1.481-.352 2.823-1.056 4.026a7.492 7.492 0 01-2.904 2.794c-1.217.675-2.588 1.012-4.114 1.012zm0-1.452c1.218 0 2.318-.271 3.3-.814a6.067 6.067 0 002.31-2.288c.558-.983.836-2.075.836-3.278 0-1.203-.278-2.288-.836-3.256a5.87 5.87 0 00-2.31-2.288c-.982-.557-2.082-.836-3.3-.836-1.217 0-2.324.279-3.322.836a6.03 6.03 0 00-2.332 2.288c-.557.968-.836 2.053-.836 3.256 0 1.203.279 2.295.836 3.278a6.24 6.24 0 002.332 2.288c.998.543 2.105.814 3.322.814zM193.447 9.6V25h-1.562V12.68l-6.05 10.362h-.77l-6.05-10.296V25h-1.562V9.6h1.342l6.688 11.418L192.105 9.6h1.342zm4.842 15.51a1.14 1.14 0 01-.836-.352c-.22-.235-.33-.52-.33-.858 0-.337.11-.616.33-.836a1.14 1.14 0 01.836-.352c.323 0 .601.117.836.352.235.22.352.499.352.836 0 .337-.117.623-.352.858a1.142 1.142 0 01-.836.352zm10.849.022c-1.995 0-3.55-.572-4.664-1.716-1.115-1.144-1.672-2.809-1.672-4.994V9.6h1.628v8.756c0 1.79.403 3.124 1.21 4.004.806.88 1.972 1.32 3.498 1.32 1.54 0 2.713-.44 3.52-1.32.806-.88 1.21-2.215 1.21-4.004V9.6h1.584v8.822c0 2.185-.558 3.85-1.672 4.994-1.1 1.144-2.648 1.716-4.642 1.716zm20.555-4.246h-8.58L219.265 25h-1.694l7.04-15.4h1.606l7.04 15.4h-1.716l-1.848-4.114zm-.594-1.32l-3.696-8.272-3.696 8.272h7.392z" fill="#FFFEFE"/></svg>