<svg width="80" height="24" viewBox="0 0 80 24" fill="none" xmlns="http://www.w3.org/2000/svg">
<path d="M7.56854 0.875383H7.72363C9.68553 1.10492 10.7712 2.25569 11.314 4.0625C12.167 7.18758 13.0975 10.3049 14.0281 13.3679C14.0281 13.4455 14.0281 13.6006 14.1056 13.6781C14.1056 13.7557 14.1832 13.8332 14.3383 13.8332C14.4933 13.8332 14.4933 13.7557 14.5709 13.6781C14.726 13.2129 14.8035 12.7476 14.9586 12.2823C15.7341 9.41313 16.5871 6.63701 17.3625 3.82986C17.7503 2.49608 18.6033 1.56554 19.9215 1.02272C20.2317 0.893994 20.6194 0.931216 20.9296 0.840488L21.0072 0.840255C21.0847 0.916482 21.2398 0.878563 21.3949 0.878718C23.5662 0.881432 25.6599 0.880656 27.8312 0.880656C28.5291 0.880656 28.5291 0.880656 28.5291 1.61191V6.97805V22.4096C28.5291 22.6422 28.6066 22.8749 28.4515 23.0299C28.374 23.1075 28.2189 23.1075 28.0638 23.1075H21.4724C21.2398 23.0299 21.2398 22.7973 21.2398 22.6422V20.8587V10.6227C21.2398 10.4676 21.3949 10.1574 21.0847 10.0799C20.9296 10.0799 20.8521 10.39 20.8521 10.5451C20.0766 13.1041 19.3012 15.5856 18.5257 18.1446L17.1299 22.5647C17.0523 22.7973 17.0523 23.0299 16.7422 23.1075H11.8568C11.6242 23.1075 11.6242 22.8749 11.5466 22.7198L9.68553 16.6712C9.06517 14.5775 8.36726 12.4838 7.7469 10.39C7.73139 10.3125 7.71588 10.3125 7.68486 10.235C7.63833 10.1574 7.59181 10.0799 7.48324 10.0799C7.39019 10.0799 7.38243 10.235 7.37468 10.3125C7.35917 10.39 7.36693 10.5451 7.36693 10.7002V22.332C7.36693 22.4871 7.37468 22.6422 7.35142 22.7973C7.33591 22.9524 7.3204 23.1075 7.11878 23.1075H0.604966C0.46616 23.1075 0.320375 23.1075 0.181568 23.0299C0.129458 22.9524 0.152566 22.7973 0.152566 22.7198C0.151357 15.508 0.151434 8.37387 0.151985 1.23969C0.151985 1.09856 0.139112 0.993873 0.171371 0.891513C0.305525 0.812416 0.452861 0.851654 0.593218 0.851499C2.78 0.848553 4.96678 0.850259 7.13805 0.847545C7.27763 0.847389 7.42497 0.885309 7.56455 0.809082" fill="white"/>
<path d="M47.2948 0.875H47.4499C47.5275 0.950994 47.6826 0.912997 47.8377 0.913773C49.6988 0.916099 51.5598 0.923078 53.4209 0.908345C53.8087 0.906018 53.8862 1.01768 53.8862 1.33174V1.6807V22.4629V23.0832C53.8087 23.1608 53.8087 23.1608 53.7311 23.1608C51.4048 23.2383 49.0784 23.1608 46.8296 23.1608C46.5969 23.1608 46.5969 22.9281 46.5969 22.773V21.765V10.676C46.5969 10.5209 46.6745 10.2107 46.4418 10.2107C46.2092 10.1331 46.2092 10.3658 46.1317 10.5209C44.9685 13.0799 43.8053 15.5613 42.6421 18.1203C42.1768 19.0509 41.7891 19.9814 41.3238 20.912C40.5484 22.3853 39.3852 23.2383 37.6017 23.1608H31.6307C31.5531 23.1608 31.5531 23.1608 31.5531 23.0832C31.4756 22.9281 31.4756 22.773 31.4756 22.5404V1.60315V1.38292C31.4756 0.980462 31.5531 0.947117 31.9409 0.947117C34.0346 0.945566 36.0508 0.946342 38.1445 0.946342C38.6098 0.947117 38.6873 0.975809 38.6873 1.46279V6.86771V13.3117C38.6873 13.4668 38.6098 13.6995 38.6873 13.8545C38.9199 14.0872 39.075 13.8545 39.1526 13.6995C39.4628 13.2342 39.6179 12.6914 39.8505 12.2261C40.9361 9.89973 42.0218 7.55011 43.1074 5.21599C43.4176 4.53359 43.7278 3.84344 44.0379 3.16104C44.5808 2.13744 45.3562 1.44728 46.4418 1.0518C46.6745 0.950219 46.9847 0.993644 47.2948 0.905243" fill="white"/>
<path d="M79.2435 9.01684V9.6372C79.2435 9.94738 79.2435 10.0249 78.4681 10.0249C76.0641 9.94738 73.5051 10.0249 70.9462 9.94738C69.3952 9.94738 67.7668 10.0249 66.2159 9.94738C61.3305 9.71475 57.0655 6.25622 55.9023 1.2623V1.04285C55.9023 0.96065 55.9023 0.924204 55.9799 0.919551C56.135 0.912572 56.2125 0.915674 56.3676 0.915674H71.7992H72.342C73.8153 0.88388 75.1336 1.53061 76.2968 2.42005C77.6926 3.46692 78.4681 4.87824 79.2435 6.54547V7.92578V8.00332V8.86408V9.01917V9.01684Z" fill="white"/>
<path d="M63.8926 23.1302H57.3012H56.8359V11.4208C56.8359 11.1107 56.9135 10.9556 57.2237 10.9556C64.2803 11.0331 71.2594 11.0331 78.4711 10.9556V11.4208C77.2304 14.29 74.904 15.9185 71.6471 16.0736C69.2432 16.1511 66.7618 16.0736 64.3578 16.0736C64.0477 16.0736 63.9701 16.0736 63.9701 16.4613V22.7425C63.9701 22.8976 63.9701 22.9751 63.8926 23.1302Z" fill="white"/>
</svg>
