<svg width="40" height="40" viewBox="0 0 40 40" fill="none" xmlns="http://www.w3.org/2000/svg">
<g clip-path="url(#clip0)">
<path d="M37.0721 3.63639H7.2727C7.18296 3.63639 7.10106 3.67014 7.01694 3.69546L6.28449 1.28855C6.05157 0.523125 5.34554 0 4.54543 0H0.90912C0.407046 0 0 0.407046 0 0.90912V2.72727C0 3.22935 0.407046 3.63639 0.90912 3.63639H3.19875L8.87881 22.302L6.75742 24.7769C5.91895 25.7551 5.5414 27.1029 5.92731 28.332C6.42086 29.9041 7.80827 30.9091 9.4079 30.9091H35.4546C35.9566 30.9091 36.3637 30.502 36.3637 29.9999V28.1818C36.3637 27.6797 35.9566 27.2727 35.4546 27.2727H9.40782L12.2896 23.9106C12.3621 23.8261 12.4153 23.7306 12.4703 23.6363H30.087C31.4961 23.6363 32.7783 22.8225 33.3783 21.5476L39.7222 8.06719C39.9041 7.67924 40 7.24867 40 6.8216V6.56412C40 4.94728 38.6891 3.63639 37.0721 3.63639Z" fill="#CE0058"/>
<path d="M10.9089 40.0001C12.9172 40.0001 14.5453 38.372 14.5453 36.3637C14.5453 34.3554 12.9172 32.7273 10.9089 32.7273C8.90053 32.7273 7.27246 34.3554 7.27246 36.3637C7.27246 38.372 8.90053 40.0001 10.9089 40.0001Z" fill="#CE0058"/>
<path d="M32.7272 40.0001C34.7355 40.0001 36.3636 38.372 36.3636 36.3637C36.3636 34.3554 34.7355 32.7273 32.7272 32.7273C30.7189 32.7273 29.0908 34.3554 29.0908 36.3637C29.0908 38.372 30.7189 40.0001 32.7272 40.0001Z" fill="#CE0058"/>
</g>
<defs>
<clipPath id="clip0">
<rect width="40" height="40" fill="white"/>
</clipPath>
</defs>
</svg>
