<svg width="40" height="40" viewBox="0 0 40 40" fill="none" xmlns="http://www.w3.org/2000/svg">
<path d="M24.1888 7.68102H21.2011V6.13586H21.9267C22.5739 6.13586 23.0986 5.61117 23.0986 4.96398V1.17188C23.0986 0.524687 22.5739 0 21.9267 0H18.1316C17.4844 0 16.9597 0.524687 16.9597 1.17188V1.89805C16.9464 1.89758 16.9336 1.89602 16.9202 1.89602H13.4588C11.7718 1.89602 10.3994 3.26844 10.3994 4.95539V5.67688C10.3994 6.32406 10.9241 6.84875 11.5713 6.84875C12.2185 6.84875 12.7432 6.32406 12.7432 5.67688V4.95539C12.7432 4.56078 13.0642 4.23977 13.4588 4.23977H16.9202C16.9336 4.23977 16.9465 4.2382 16.9597 4.23773V4.96391C16.9597 5.61109 17.4844 6.13578 18.1316 6.13578H18.8573V7.68094H15.8695C15.2223 7.68094 14.6976 8.20563 14.6976 8.85281V10.5296H25.3607V8.85289C25.3607 8.2057 24.836 7.68102 24.1888 7.68102Z" fill="#CE0058"/>
<path d="M25.6808 12.8732H14.3771C12.176 13.1165 10.458 14.9869 10.458 17.2518V38.8279C10.458 39.4751 10.9827 39.9998 11.6299 39.9998H28.428C29.0752 39.9998 29.5999 39.4751 29.5999 38.8279V17.2518C29.5999 14.9869 27.8819 13.1165 25.6808 12.8732Z" fill="#CE0058"/>
</svg>
