<svg width="70" height="24" viewBox="0 0 70 24" fill="none" xmlns="http://www.w3.org/2000/svg">
<path d="M62.5392 15.1474C61.9393 12.4481 61.4144 9.74865 60.8145 7.04926C60.8145 7.01177 60.7396 7.01177 60.7396 7.01177C59.7648 9.67367 58.79 12.3731 57.8152 15.11H62.5392V15.1474ZM49.2671 22.7208C49.7103 21.671 50.1294 20.6962 50.5568 19.6464C52.9188 14.0227 55.2733 8.32397 57.6802 2.70023C58.0552 1.71045 58.88 1.16307 59.9297 1.14808C61.4294 1.11868 62.9291 1.14658 64.4287 1.13383C64.6537 1.13158 64.7287 1.22381 64.8037 1.45251C65.6285 5.37413 66.4533 9.32575 67.2781 13.2249C67.878 16.2992 68.4778 19.3735 69.1527 22.4478C69.2277 22.6728 69.1527 22.8227 68.8527 22.8227H64.4287C64.2038 22.8227 64.1288 22.7477 64.0538 22.4478C63.9039 21.623 63.6789 20.7232 63.5289 19.8984C63.454 19.6734 63.379 19.5235 63.154 19.5235C60.9795 19.5985 58.73 19.5985 56.5405 19.5235C56.3006 19.5235 56.1956 19.6734 56.1131 19.8234C55.8057 20.7232 55.4682 21.623 55.1533 22.5228C55.0933 22.7477 55.0108 22.8227 54.8084 22.8227H49.4921C49.4343 22.8227 49.3781 22.8227 49.2656 22.7477L49.2671 22.7208Z" fill="white"/>
<path d="M0.00524883 1.70953C0.0500138 1.50183 0.0892301 1.32187 0.131221 1.12616C0.245945 1.11994 0.347922 1.11019 0.449899 1.11019C3.47922 1.11019 6.50105 1.10839 9.52287 1.11326C10.9476 1.11574 11.9223 1.96057 12.2223 3.40775C12.9721 7.46434 13.7219 11.5809 14.5467 15.63C14.5467 15.63 14.5467 15.705 14.6217 15.78C14.6967 15.63 14.7717 15.555 14.7717 15.4051C16.6463 10.7561 18.4459 6.10715 20.3205 1.45819C20.3954 1.23623 20.4704 1.14101 20.7704 1.14251C22.57 1.15525 24.3696 1.14918 26.2441 1.14918C26.1692 1.2849 26.1692 1.38838 26.0942 1.48735C23.1698 8.49829 20.2455 15.5092 17.3211 22.5576C17.2461 22.7826 17.1712 22.8576 16.8712 22.8576H11.6224C11.3975 22.8576 11.2475 22.7826 11.2475 22.5576C9.74782 16.8589 8.24816 11.1602 6.82348 5.46147C6.60602 4.56916 6.17862 3.93931 5.3763 3.5344C3.87663 2.79206 2.28699 2.35716 0.682348 1.94475C0.469395 1.88476 0.256443 1.83603 0 1.77229" fill="white"/>
<path d="M33.5068 22.0012C33.8465 20.4266 34.1742 18.8519 34.5116 17.2773C35.0365 17.5022 35.5239 17.7272 36.0188 17.9521C37.7509 18.552 39.5355 18.8519 41.3951 18.477C41.92 18.402 42.4448 18.1771 42.8947 17.8022C43.7945 17.2773 43.8695 16.1525 43.1947 15.4027C42.7448 14.9528 42.2949 14.6529 41.77 14.3529C41.0202 13.903 40.2328 13.5281 39.498 13.0782C38.9506 12.7783 38.4107 12.4034 37.9233 12.0285C35.7863 10.2289 35.2315 7.8219 36.3862 5.28746C37.2635 3.36039 38.8456 2.21315 40.7577 1.48581C42.3699 0.873198 44.0945 0.690989 45.8191 0.753225C47.2438 0.803464 48.6684 1.09515 50.0931 1.54805C50.1681 1.57804 50.2431 1.60803 50.3181 1.64553C50.3931 1.66052 50.3931 1.69052 50.468 1.72801C50.0931 3.19768 49.7932 4.68235 49.4933 6.19701C49.1183 6.06204 48.8184 5.92707 48.4435 5.81459C46.8688 5.26722 45.1442 5.02727 43.4946 5.36469C42.8947 5.49217 42.2949 5.75461 41.92 6.26449C41.4701 6.83437 41.4701 7.48672 41.92 8.0116C42.2199 8.35653 42.5948 8.65646 43.0447 8.88141C43.7945 9.33131 44.5444 9.70622 45.2942 10.1561C45.8941 10.531 46.4939 10.831 47.0188 11.2809C49.3433 12.9305 49.9432 15.255 49.1183 17.8794C48.3685 20.0539 46.7939 21.4036 44.6943 22.2284C43.1947 22.9033 41.62 23.1282 39.9554 23.1282C37.9908 23.1282 36.0788 22.9033 34.2117 22.3034C33.98 22.2284 33.758 22.0785 33.5068 22.0035" fill="white"/>
<path d="M34.271 1.12144C33.971 2.60611 33.6711 4.03829 33.3712 5.46297C32.1714 10.9517 30.9717 16.4855 29.847 21.9593C29.622 22.7841 29.622 22.7841 28.7972 22.7841H24.5231H24.0732C24.2232 22.3342 24.2982 21.8843 24.3732 21.4344C25.7229 14.9858 27.1476 8.4623 28.4973 2.01374C28.7222 1.10645 28.7222 1.10645 29.622 1.10645C30.9717 1.10645 32.3964 1.1072 33.8211 1.10795H34.271V1.12144Z" fill="white"/>
</svg>
