<svg width="40" height="40" viewBox="0 0 40 40" fill="none" xmlns="http://www.w3.org/2000/svg">
<rect width="40" height="40" rx="4" fill="#507299"/>
<path fill-rule="evenodd" clip-rule="evenodd" d="M19.7425 25.9453H21.1772C21.1772 25.9453 21.6102 25.9003 21.8314 25.6742C22.0357 25.4658 22.0289 25.0755 22.0289 25.0755C22.0289 25.0755 22.0009 23.2483 22.8941 22.9787C23.7746 22.7132 24.9059 24.7448 26.1041 25.5261C27.0109 26.1175 27.6998 25.988 27.6998 25.988L30.9048 25.9453C30.9048 25.9453 32.581 25.8472 31.7861 24.596C31.7208 24.4938 31.3225 23.6699 29.4031 21.9778C27.393 20.2068 27.6625 20.4932 30.0836 17.4292C31.5573 15.5641 32.1471 14.4248 31.9623 13.9372C31.7869 13.4721 30.7031 13.5952 30.7031 13.5952L27.0939 13.6162C27.0939 13.6162 26.8261 13.5816 26.6278 13.6942C26.4346 13.8044 26.31 14.0619 26.31 14.0619C26.31 14.0619 25.738 15.5054 24.9771 16.7333C23.3703 19.3241 22.7271 19.4609 22.4644 19.3C21.8535 18.925 22.006 17.7945 22.006 16.9907C22.006 14.4795 22.4077 13.4327 21.2255 13.1615C20.8332 13.0722 20.5442 13.0127 19.5408 13.003C18.2536 12.9902 17.1638 13.0063 16.5469 13.2935C16.1359 13.4842 15.819 13.9098 16.0122 13.934C16.2503 13.9646 16.791 14.0724 17.0774 14.4425C17.4469 14.9204 17.4342 15.993 17.4342 15.993C17.4342 15.993 17.6469 18.9484 16.9376 19.3161C16.4511 19.5671 15.7842 19.0538 14.3512 16.7027C13.6174 15.499 13.0632 14.1681 13.0632 14.1681C13.0632 14.1681 12.9564 13.9195 12.7657 13.7859C12.5344 13.625 12.2115 13.5735 12.2115 13.5735L8.78199 13.5952C8.78199 13.5952 8.26761 13.6089 8.07863 13.8213C7.91 14.0104 8.06508 14.4015 8.06508 14.4015C8.06508 14.4015 10.7497 20.3653 13.7894 23.3706C16.5774 26.1264 19.7425 25.9453 19.7425 25.9453Z" fill="white"/>
</svg>
