<svg width="40" height="40" viewBox="0 0 40 40" fill="none" xmlns="http://www.w3.org/2000/svg">
<path d="M14.7751 20.2295C16.029 18.9756 16.8232 17.2201 16.8232 15.2556C16.8232 14.5451 16.6142 13.7509 16.2798 12.915C15.9036 12.0373 15.4021 11.1595 14.8169 10.24C14.8169 10.1982 14.7751 10.1982 14.7751 10.1564C13.563 8.3173 11.9747 6.52001 10.6372 4.97351L9.80124 4.01218L8.9653 4.97351C6.37386 7.98292 2.7793 12.1208 2.7793 15.2556C2.7793 17.1783 3.57345 18.9338 4.82736 20.2295C6.08128 21.4834 7.83677 22.2776 9.80124 22.2776C11.7239 22.2776 13.4794 21.4834 14.7751 20.2295Z" fill="#CE0058"/>
<path d="M33.5414 0.250784L33.3325 0L33.1235 0.250784C31.577 2.04807 29.4453 4.51411 29.4453 6.26959C29.4453 7.35632 29.8633 8.31766 30.5738 9.02821C31.2844 9.73877 32.2457 10.1567 33.3325 10.1567C34.4192 10.1567 35.3805 9.73877 36.0911 9.02821C36.8016 8.31766 37.2196 7.35632 37.2196 6.26959C37.2196 4.51411 35.0879 2.04807 33.5414 0.250784Z" fill="#CE0058"/>
<path d="M20.1247 6.06061C19.4978 6.81296 18.7872 7.60711 18.0767 8.48485L16.9899 9.73877C17.4915 10.5329 17.9095 11.3271 18.2439 12.1212C18.7036 13.2079 18.9544 14.2529 18.9544 15.256C18.9544 17.7638 17.9513 20.0627 16.2794 21.7346C14.6075 23.4065 12.3504 24.4096 9.80081 24.4096C9.21565 24.4096 8.67228 24.3678 8.12892 24.2424C7.91993 24.2006 7.75274 24.1588 7.54375 24.117C7.46016 24.4514 7.37657 24.7858 7.29297 25.1202C7.16758 25.7471 7.08398 26.3323 7.08398 26.9592C7.08398 30.5538 8.54689 33.814 10.8875 36.1964C13.27 38.5789 16.5302 40 20.1247 40C23.7193 40 26.9795 38.5371 29.3619 36.1964C31.7444 33.8558 33.1655 30.5538 33.1655 26.9592C33.1655 21.233 26.7705 13.8767 22.1728 8.52665C21.4623 7.60711 20.7935 6.81296 20.1247 6.06061Z" fill="#CE0058"/>
</svg>
