<svg width="40" height="40" viewBox="0 0 40 40" fill="none" xmlns="http://www.w3.org/2000/svg">
<rect width="40" height="40" rx="4" fill="#CC181E"/>
<path fill-rule="evenodd" clip-rule="evenodd" d="M17.935 22.5817L17.9344 16.989L23.3381 19.795L17.935 22.5817ZM29.8 16.0199C29.8 16.0199 29.6044 14.6484 29.005 14.0444C28.2444 13.2513 27.3919 13.2476 27.0012 13.2015C24.2025 13 20.0044 13 20.0044 13H19.9956C19.9956 13 15.7975 13 12.9987 13.2015C12.6075 13.2476 11.7556 13.2513 10.9944 14.0444C10.395 14.6484 10.2 16.0199 10.2 16.0199C10.2 16.0199 10 17.631 10 19.2414V20.7517C10 22.3628 10.2 23.9732 10.2 23.9732C10.2 23.9732 10.395 25.3448 10.9944 25.9488C11.7556 26.7419 12.755 26.717 13.2 26.7997C14.8 26.9527 20 27 20 27C20 27 24.2025 26.9938 27.0012 26.7922C27.3919 26.7456 28.2444 26.7419 29.005 25.9488C29.6044 25.3448 29.8 23.9732 29.8 23.9732C29.8 23.9732 30 22.3628 30 20.7517V19.2414C30 17.631 29.8 16.0199 29.8 16.0199Z" fill="white"/>
</svg>
