<svg width="164" height="164" viewBox="0 0 164 164" fill="none" xmlns="http://www.w3.org/2000/svg">
<path d="M78.2681 4.18524C80.2564 1.95541 83.7436 1.95541 85.7319 4.18524L89.3511 8.2441C90.9701 10.0599 93.6611 10.4468 95.7262 9.1607L100.342 6.28589C102.878 4.70655 106.224 5.689 107.504 8.38868L109.833 13.3028C110.875 15.5011 113.348 16.6305 115.691 15.9783L120.93 14.5205C123.809 13.7195 126.742 15.6049 127.209 18.5557L128.06 23.9269C128.44 26.3297 130.495 28.1101 132.927 28.1446L138.365 28.2218C141.352 28.2642 143.635 30.8997 143.252 33.8625L142.555 39.2557C142.243 41.6684 143.713 43.9555 146.037 44.6739L151.233 46.2799C154.087 47.1623 155.535 50.3343 154.333 53.0692L152.144 58.0474C151.165 60.2745 151.931 62.883 153.959 64.2272L158.492 67.2319C160.982 68.8826 161.478 72.3343 159.554 74.6197L156.051 78.7797C154.484 80.6407 154.484 83.3593 156.051 85.2203L159.554 89.3803C161.478 91.6657 160.982 95.1174 158.492 96.7681L153.959 99.7728C151.931 101.117 151.165 103.726 152.144 105.953L154.333 110.931C155.535 113.666 154.087 116.838 151.233 117.72L146.037 119.326C143.713 120.045 142.243 122.332 142.555 124.744L143.252 130.137C143.635 133.1 141.352 135.736 138.365 135.778L132.927 135.855C130.495 135.89 128.44 137.67 128.06 140.073L127.209 145.444C126.742 148.395 123.809 150.28 120.93 149.48L115.691 148.022C113.348 147.37 110.875 148.499 109.833 150.697L107.504 155.611C106.224 158.311 102.878 159.293 100.342 157.714L95.7261 154.839C93.6611 153.553 90.9701 153.94 89.3511 155.756L85.7319 159.815C83.7436 162.045 80.2564 162.045 78.2681 159.815L74.6489 155.756C73.0299 153.94 70.3389 153.553 68.2738 154.839L63.6578 157.714C61.1218 159.293 57.7759 158.311 56.4963 155.611L54.1673 150.697C53.1253 148.499 50.6524 147.37 48.3087 148.022L43.0696 149.48C40.1914 150.28 37.2578 148.395 36.7907 145.444L35.9404 140.073C35.5601 137.67 33.5055 135.89 31.0729 135.855L25.6354 135.778C22.6481 135.736 20.3645 133.1 20.7477 130.137L21.4451 124.744C21.7571 122.332 20.2873 120.045 17.963 119.326L12.7675 117.72C9.91319 116.838 8.46457 113.666 9.66693 110.931L11.8555 105.953C12.8346 103.726 12.0687 101.117 10.041 99.7728L5.50838 96.7681C3.01828 95.1174 2.52201 91.6657 4.44618 89.3803L7.94866 85.2203C9.51552 83.3593 9.51552 80.6407 7.94866 78.7797L4.44618 74.6197C2.522 72.3343 3.01828 68.8826 5.50838 67.2319L10.041 64.2272C12.0687 62.883 12.8346 60.2745 11.8555 58.0475L9.66693 53.0692C8.46457 50.3343 9.91319 47.1623 12.7675 46.2799L17.963 44.6739C20.2873 43.9555 21.7571 41.6684 21.4451 39.2557L20.7477 33.8625C20.3645 30.8997 22.6481 28.2642 25.6354 28.2218L31.0729 28.1446C33.5055 28.1101 35.5601 26.3297 35.9404 23.9269L36.7907 18.5557C37.2578 15.6049 40.1914 13.7195 43.0696 14.5205L48.3087 15.9783C50.6524 16.6305 53.1253 15.5011 54.1673 13.3028L56.4963 8.38868C57.7759 5.68901 61.1218 4.70655 63.6578 6.2859L68.2739 9.1607C70.3389 10.4468 73.0299 10.0599 74.6489 8.2441L78.2681 4.18524Z" fill="#0052B4"/>
</svg>
