<svg width="234" height="32" viewBox="0 0 234 32" fill="none" xmlns="http://www.w3.org/2000/svg">
<path d="M22.9183 9.25627C23.6235 10.0497 23.7117 10.9312 23.7117 10.9312C25.3866 8.8155 27.326 7.93396 29.7943 7.93396C32.7915 7.93396 34.7309 8.99181 35.7888 11.0194C37.4637 9.07996 39.6675 7.93396 42.3122 7.93396C46.9843 7.93396 49.1882 10.5786 49.1882 15.4271C49.1882 15.4271 49.0119 22.5675 49.3645 23.3609C49.8934 24.9477 50.6868 25.0358 51.2157 25.4766L50.3342 25.2121C50.3342 25.2121 46.7199 25.3003 46.2791 23.4491C45.8383 21.5097 45.9265 15.2507 45.9265 15.2507C45.9265 12.2535 45.1331 10.4023 42.224 10.4023C39.6676 10.4023 37.9926 11.372 36.494 13.3114C36.5822 13.9284 36.6703 14.5455 36.6703 15.2507V25.2121H33.4968V15.2507C33.4968 12.2535 32.7034 10.4023 29.7943 10.4023C27.1497 10.4023 25.5629 11.4601 23.9761 13.3995V25.2121H20.8026V8.19842C20.7144 8.19842 22.1249 8.46288 22.9183 9.25627V9.25627Z" fill="white"/>
<path d="M73.431 9.16814C74.0481 9.96152 74.2244 10.8431 74.2244 10.8431C75.8993 8.72737 77.7505 7.84583 80.1307 7.84583C82.5109 7.84583 83.9213 8.4629 85.4199 10.3141L83.3042 12.2535C82.3346 11.0194 81.1004 10.4904 79.8662 10.4904C77.3098 10.4904 75.8993 11.4601 74.4888 13.4877V25.2122H71.3153V8.19844C71.2271 8.19844 72.8139 8.4629 73.431 9.16814V9.16814Z" fill="white"/>
<path d="M86.302 11.901L91.2386 21.8624H91.4149L96.5278 8.11035H99.9658L91.5912 28.4739C90.7097 30.6778 88.594 32.0001 86.2138 32.0001C85.3323 32.0001 84.8034 31.8238 83.9218 31.5593L84.3626 29.091C84.8034 29.1792 85.2441 29.2673 85.6849 29.2673C87.2717 29.2673 88.4177 28.7384 89.2111 26.8872L89.8281 25.3885L84.3626 13.8404L86.302 11.901V11.901Z" fill="white"/>
<path d="M104.993 1.58684C106.051 2.73284 105.963 4.40777 105.963 4.40777V20.1873C105.963 21.8623 106.58 22.4793 108.431 22.4793V25.3884C108.166 25.3884 107.902 25.4766 107.638 25.4766C104.023 25.4766 102.789 23.3609 102.789 19.8347V0.264526C102.789 0.264526 103.935 0.440834 104.993 1.58684V1.58684Z" fill="white"/>
<path d="M115.392 3.26169C115.392 4.4077 114.599 5.37739 113.188 5.37739C111.778 5.37739 110.984 4.31954 110.984 3.26169C110.984 2.11569 111.778 1.146 113.188 1.146C114.511 1.146 115.392 2.11569 115.392 3.26169ZM114.687 8.46278V25.5647H111.513V8.46278H114.687V8.46278Z" fill="white"/>
<path d="M130.203 11.372C128.44 10.5786 126.854 10.3141 125.002 10.3141C122.005 10.3141 120.771 11.2838 120.771 12.6061C120.771 14.281 122.358 14.7218 125.355 15.0744C129.586 15.5152 132.055 16.9257 132.055 20.4518C132.055 23.978 128.881 25.6529 123.944 25.6529C121.476 25.6529 119.713 25.3885 117.686 24.5069L118.479 21.9504C120.242 22.7438 121.917 23.1846 123.768 23.1846C127.294 23.1846 129.057 22.3031 129.057 20.4518C129.057 18.7769 127.911 18.1598 124.385 17.8072C119.978 17.3664 117.774 15.956 117.774 12.8706C117.774 10.1378 120.154 7.93396 125.09 7.93396C127.559 7.93396 129.057 8.19842 131.173 8.99181L130.203 11.372V11.372Z" fill="white"/>
<path d="M0.969694 8.99166C3.52616 7.93381 5.3774 7.49304 8.28648 7.49304C13.3113 7.49304 15.6914 9.25612 15.6914 13.3994V20.5398C15.6914 22.2148 16.1322 22.6555 17.8071 22.6555V24.9475C17.0137 25.212 16.4848 25.3002 15.5151 25.3002C14.1046 25.3002 13.2231 24.2423 13.135 22.4792C11.5482 24.3305 9.25617 25.3002 6.08263 25.3002C2.1157 25.3002 0 23.2726 0 20.0991C0 18.6004 0.44077 17.3663 1.58677 16.044C4.67216 15.0743 7.75755 14.0164 12.606 13.9283L12.5179 12.2534C12.5179 11.2837 11.5482 10.1377 8.19832 10.1377C6.08263 10.1377 3.96693 10.5784 1.76308 11.5481L0.969694 8.99166V8.99166ZM12.606 15.5151C8.63909 15.6032 5.64186 16.044 3.87878 17.7189C3.34985 18.2478 3.17354 18.9531 3.17354 19.7465C3.17354 21.5977 4.4077 22.5674 6.5234 22.5674C8.8154 22.5674 10.6666 21.9503 12.606 20.2754V15.5151Z" fill="white"/>
<path d="M13.7522 15.6033C12.6062 15.6915 11.1076 15.6033 10.1379 15.7796C7.49326 16.2204 4.76048 16.0441 2.8211 18.6005C3.35002 16.8375 0.176475 17.4545 1.32248 16.2204C3.79079 13.6639 11.0194 13.0468 14.0167 12.8705C15.5153 12.7824 20.6282 10.5785 20.7164 8.19836C21.1571 11.3719 19.0414 13.3113 18.4244 13.8402C17.3665 14.7218 16.3968 15.1625 14.6337 15.6033" fill="white"/>
<path d="M51.6585 8.99166C54.2149 7.93381 56.0662 7.49304 58.9753 7.49304C64 7.49304 66.3802 9.25612 66.3802 13.3994V20.5398C66.3802 22.2148 66.821 22.6555 68.4959 22.6555V24.9475C67.7025 25.212 67.1736 25.3002 66.2039 25.3002C64.7934 25.3002 63.9119 24.2423 63.8237 22.4792C62.237 24.3305 59.945 25.3002 56.7714 25.3002C52.8045 25.3002 50.6888 23.2726 50.6888 20.0991C50.6888 18.6004 51.1296 17.3663 52.2756 16.044C55.3609 15.0743 58.4463 14.0164 63.2948 13.9283L63.2067 12.2534C63.2067 11.2837 62.237 10.1377 58.8871 10.1377C56.7714 10.1377 54.6557 10.5784 52.4519 11.5481L51.6585 8.99166V8.99166ZM63.2067 15.5151C59.2397 15.6032 56.2425 16.044 54.4794 17.7189C53.9505 18.2478 53.7742 18.9531 53.7742 19.7465C53.7742 21.5977 55.0083 22.5674 57.124 22.5674C59.416 22.5674 61.2673 21.9503 63.2067 20.2754V15.5151Z" fill="white"/>
<path d="M64.4407 15.6033C63.2947 15.6915 61.7961 15.6033 60.8264 15.7796C58.1817 16.2204 55.449 16.0441 53.5096 18.6005C54.0385 16.8375 50.865 17.4545 52.011 16.2204C54.4793 13.6639 61.7079 13.0468 64.7051 12.8705C66.2037 12.7824 71.3167 10.5785 71.4048 8.19836C71.8456 11.3719 69.7299 13.3113 69.1128 13.8402C68.055 14.7218 67.0853 15.1625 65.3222 15.6033" fill="white"/>
<path d="M2.11433 0.176392L3.96556 4.49594L4.23002 5.28933H4.31818L4.6708 4.49594L6.52203 0.176392H7.40357V5.99456H6.69834V1.85132L6.78649 0.881624L6.43388 1.85132L4.58264 5.99456H3.96556L2.20248 1.85132L1.84987 0.881624L1.93802 1.85132V5.99456H1.23279V0.176392H2.11433V0.176392Z" fill="white"/>
<path d="M9.43395 1.14598V0.440751C9.96288 0.176289 10.58 0.0881348 11.197 0.0881348C11.8141 0.0881348 12.2549 0.176289 12.5193 0.440751C12.7838 0.705213 13.0483 0.969675 13.1364 1.23414C13.2246 1.58675 13.2246 1.85122 13.2246 2.20383V5.9063H12.6075V4.93661C12.2549 5.64184 11.5497 5.99446 10.7563 5.99446C10.3155 5.99446 9.96288 5.9063 9.69842 5.72999C9.43395 5.55368 9.16949 5.37738 9.08134 5.11291C8.90503 4.84845 8.90503 4.58399 8.90503 4.31953C8.90503 3.52614 9.25765 2.99722 9.87472 2.73276C10.4918 2.46829 11.2852 2.29199 12.2549 2.29199H12.6075V2.11568C12.6075 1.05783 12.1667 0.528905 11.2852 0.528905C10.4918 0.705213 9.96288 0.793367 9.43395 1.14598V1.14598ZM12.4312 2.99722H11.8141C11.1089 2.99722 10.58 3.08537 10.1392 3.26168C9.69842 3.43799 9.52211 3.7906 9.52211 4.31953C9.52211 4.49584 9.61026 4.7603 9.69842 4.93661C9.78657 5.11291 9.96288 5.20107 10.1392 5.28922C10.3155 5.37738 10.4918 5.46553 10.6681 5.46553C11.0207 5.46553 11.3733 5.37738 11.6378 5.20107C11.9023 5.02476 12.0786 4.7603 12.2549 4.49584C12.4312 4.23137 12.4312 3.87876 12.4312 3.43799V2.99722V2.99722Z" fill="white"/>
<path d="M15.0757 0.176392H18.6018V0.79347H15.7809V5.99456H15.0757V0.176392V0.176392Z" fill="white"/>
<path d="M19.7458 1.14598V0.440751C20.2747 0.176289 20.8918 0.0881348 21.5089 0.0881348C22.126 0.0881348 22.5667 0.176289 22.8312 0.440751C23.0957 0.705213 23.3601 0.969675 23.4483 1.23414C23.5364 1.58675 23.5364 1.85122 23.5364 2.20383V5.9063H22.9193V4.93661C22.5667 5.64184 21.8615 5.99446 21.0681 5.99446C20.6273 5.99446 20.2747 5.9063 20.0103 5.72999C19.7458 5.55368 19.4813 5.37738 19.3932 5.11291C19.2169 4.93661 19.1287 4.67214 19.1287 4.40768C19.1287 3.6143 19.4813 3.08537 20.0984 2.82091C20.7155 2.55645 21.5089 2.38014 22.4786 2.38014H22.8312V2.20383C22.8312 1.14598 22.3904 0.617059 21.5089 0.617059C20.8918 0.705213 20.2747 0.793367 19.7458 1.14598V1.14598ZM22.8312 2.99722H22.2141C21.5089 2.99722 20.98 3.08537 20.5392 3.26168C20.0984 3.43799 19.9221 3.7906 19.9221 4.31953C19.9221 4.49584 20.0103 4.7603 20.0984 4.93661C20.1866 5.11291 20.3629 5.20107 20.5392 5.28922C20.7155 5.37738 20.8918 5.46553 21.0681 5.46553C21.4207 5.46553 21.7733 5.37738 22.0378 5.20107C22.3023 5.02476 22.4786 4.7603 22.6549 4.49584C22.8312 4.23137 22.8312 3.87876 22.8312 3.43799V2.99722V2.99722Z" fill="white"/>
<path d="M25.9173 3.26168V2.6446H26.4462C26.887 2.6446 27.2396 2.55645 27.4159 2.38014C27.6803 2.20383 27.7685 1.93937 27.7685 1.58675C27.7685 1.41045 27.6803 1.14598 27.504 0.969675C27.3277 0.793367 26.9751 0.617059 26.358 0.617059C25.9173 0.617059 25.3883 0.705213 24.9476 0.969675V0.352597C25.4765 0.176289 25.9173 0.0881348 26.4462 0.0881348C27.0633 0.0881348 27.5922 0.264443 27.9448 0.528905C28.2974 0.793367 28.4737 1.23414 28.4737 1.67491C28.4737 1.93937 28.3856 2.20383 28.2093 2.46829C28.033 2.6446 27.8567 2.82091 27.5922 2.90906C27.8567 2.99722 28.1211 3.08537 28.3856 3.34983C28.65 3.52614 28.7382 3.87876 28.7382 4.40768C28.7382 4.67214 28.65 4.93661 28.4737 5.20107C28.2974 5.46553 28.033 5.64184 27.7685 5.81815C27.4159 5.99445 26.9751 6.08261 26.4462 6.08261C25.8291 6.08261 25.3002 5.99445 24.6831 5.72999L24.7713 5.11291C25.3002 5.37738 25.8291 5.55368 26.4462 5.55368C26.887 5.55368 27.2396 5.46553 27.5922 5.28922C27.8567 5.11291 28.033 4.84845 28.033 4.49584C28.033 4.23137 27.9448 3.96691 27.8567 3.7906C27.7685 3.6143 27.504 3.52614 27.3277 3.43799C27.0633 3.34983 26.7988 3.34983 26.4462 3.34983H25.9173V3.26168Z" fill="white"/>
<path d="M30.5027 0.176392H31.2079V5.02486L31.5605 4.40779L34.5578 0.176392H35.3512V5.99456H34.6459V1.14609L34.2933 1.76316L31.2961 5.99456H30.5027V0.176392V0.176392Z" fill="white"/>
<path d="M37.2003 0.176392H37.9055V2.6447H41.079V0.176392H41.7843V5.99456H41.079V3.26178H37.9055V5.99456H37.2003V0.176392Z" fill="white"/>
<path d="M47.2521 0.0881348H47.9573V2.6446L50.6019 0.0881348H51.4835L48.6625 2.82091L51.8361 5.9063H50.8664L47.9573 2.99722V5.9063H47.2521V0.0881348Z" fill="white"/>
<path d="M52.4516 2.99724C52.4516 2.55647 52.5398 2.20385 52.6279 1.85123C52.7161 1.49862 52.8924 1.146 53.1568 0.88154C53.4213 0.617078 53.6858 0.352616 54.0384 0.264462C54.391 0.0881538 54.7436 0 55.1844 0C55.7133 0 56.2422 0.176308 56.683 0.44077C57.1238 0.705232 57.3882 1.05785 57.5645 1.49862C57.7408 1.93939 57.829 2.46831 57.829 2.99724C57.829 3.52616 57.7408 4.05508 57.4764 4.49585C57.3001 4.93662 56.9475 5.28924 56.5948 5.5537C56.1541 5.81817 55.7133 5.99447 55.0962 5.99447C54.5673 5.99447 54.0384 5.81817 53.5976 5.5537C53.1568 5.28924 52.8924 4.93662 52.7161 4.49585C52.5398 4.05508 52.4516 3.52616 52.4516 2.99724V2.99724ZM53.245 2.99724C53.245 3.2617 53.245 3.52616 53.3331 3.79062C53.4213 4.05509 53.5094 4.31955 53.6858 4.58401C53.8621 4.84847 54.0384 5.02478 54.3028 5.20109C54.5673 5.3774 54.8318 5.46555 55.1844 5.46555C55.537 5.46555 55.8015 5.3774 56.0659 5.20109C56.3304 5.02478 56.5067 4.84847 56.683 4.58401C56.8593 4.31955 56.9475 4.05509 57.0356 3.79062C57.1238 3.52616 57.1238 3.2617 57.1238 2.99724C57.1238 2.64462 57.0356 2.292 56.9475 1.85123C56.8593 1.49862 56.5948 1.146 56.3304 0.969694C56.0659 0.705232 55.7133 0.617078 55.1844 0.617078C54.7436 0.617078 54.391 0.705232 54.0384 0.969694C53.7739 1.23416 53.5094 1.49862 53.4213 1.85123C53.245 2.20385 53.245 2.55647 53.245 2.99724V2.99724Z" fill="white"/>
<path d="M63.1191 0.176454V0.793532C62.6783 0.617224 62.1494 0.52907 61.5323 0.52907C61.0915 0.52907 60.7389 0.617224 60.4745 0.881686C60.21 1.05799 59.9455 1.41061 59.7692 1.76323C59.5929 2.11584 59.5048 2.55661 59.5048 2.99738C59.5048 3.70261 59.6811 4.14338 59.9455 4.58415C60.21 4.93677 60.5626 5.20123 60.8271 5.28939C61.1797 5.37754 61.356 5.4657 61.6205 5.4657C62.1494 5.4657 62.6783 5.37754 63.0309 5.20123L63.1191 5.81831C62.6783 5.99462 62.1494 6.08277 61.6205 6.08277C61.0915 6.08277 60.5626 5.99462 60.21 5.73016C59.7692 5.4657 59.4166 5.11308 59.2403 4.67231C58.9759 4.23154 58.8877 3.70261 58.8877 3.08554C58.8877 2.46846 58.9759 1.93953 59.2403 1.49876C59.5048 1.05799 59.7692 0.705378 60.21 0.440916C60.6508 0.176454 61.0915 0.0882999 61.5323 0.0882999C62.0612 0.000145857 62.5902 0.000145779 63.1191 0.176454V0.176454Z" fill="white"/>
<path d="M65.4097 0.0881348L67.2609 4.40768L67.5254 5.20107H67.6135L67.9661 4.40768L69.8174 0.0881348H70.6989V5.9063H69.9937V1.76306L70.0818 0.793367L69.7292 1.76306L67.878 5.9063H67.2609L65.4978 1.76306L65.1452 0.793367L65.2334 1.76306V5.9063H64.5281V0.0881348H65.4097V0.0881348Z" fill="white"/>
<path d="M76.8696 3.17354H72.7264C72.7264 3.52616 72.8146 3.96693 72.9909 4.31955C73.1672 4.67216 73.4316 4.93663 73.6961 5.11293C74.0487 5.28924 74.4013 5.46555 74.8421 5.46555C75.2829 5.46555 75.8118 5.28924 76.4289 5.02478V5.64186C75.9 5.90632 75.371 5.99447 74.8421 5.99447C74.4895 5.99447 74.1369 5.90632 73.7843 5.81817C73.4316 5.73001 73.1672 5.5537 72.9027 5.28924C72.6383 5.02478 72.462 4.67216 72.2856 4.31955C72.1093 3.87878 72.0212 3.43801 72.0212 2.90908C72.0212 2.38016 72.1093 1.85123 72.2856 1.41046C72.462 0.969694 72.8146 0.617078 73.1672 0.352616C73.5198 0.0881537 73.9606 0 74.4895 0C75.1947 0 75.7236 0.176308 76.0763 0.528924C76.4289 0.88154 76.6052 1.23416 76.6933 1.67493C76.7815 2.1157 76.7815 2.55647 76.7815 2.99724V3.17354H76.8696ZM72.8146 2.55647H76.1644C76.1644 2.02754 76.0763 1.58677 75.8118 1.146C75.6355 0.705232 75.1947 0.528924 74.5776 0.528924C74.225 0.528924 73.8724 0.617078 73.608 0.793386C73.3435 0.969694 73.1672 1.23416 72.9909 1.58677C72.8146 1.93939 72.8146 2.292 72.8146 2.55647V2.55647Z" fill="white"/>
<path d="M77.4881 0.0881348H81.8076V0.705213H79.9564V5.9063H79.2511V0.705213H77.3999V0.0881348H77.4881Z" fill="white"/>
<path d="M82.8646 0.0881348H83.5699V4.93661L83.9225 4.31953L86.9197 0.0881348H87.7131V5.9063H87.0079V1.05783L86.6552 1.67491L83.658 5.9063H82.8646V0.0881348Z" fill="white"/>
<path d="M89.566 0.0881348H90.2713V2.6446L92.9159 0.0881348H93.7974L90.9765 2.82091L94.15 5.9063H93.1804L90.2713 2.99722V5.9063H89.566V0.0881348Z" fill="white"/>
<path d="M95.1168 0.0881348H95.8221V4.93661L96.1747 4.31953L99.1719 0.0881348H99.9653V5.9063H99.3482V1.05783L98.9956 1.67491L95.9984 5.9063H95.205V0.0881348H95.1168Z" fill="white"/>
<path d="M137.08 23.5371C137.08 24.3304 136.551 24.9475 135.67 24.9475C134.788 24.9475 134.259 24.3304 134.259 23.5371C134.259 22.7437 134.788 22.1266 135.67 22.1266C136.551 22.1266 137.08 22.7437 137.08 23.5371V23.5371Z" fill="white"/>
<path d="M150.196 25.132C148.671 25.132 147.292 24.7947 146.06 24.12C144.843 23.4454 143.882 22.514 143.178 21.326C142.489 20.1234 142.144 18.7814 142.144 17.3C142.144 15.8187 142.489 14.484 143.178 13.296C143.882 12.0934 144.85 11.1547 146.082 10.48C147.314 9.80535 148.693 9.46802 150.218 9.46802C151.362 9.46802 152.418 9.65868 153.386 10.04C154.354 10.4214 155.175 10.9787 155.85 11.712L154.816 12.746C153.613 11.5287 152.095 10.92 150.262 10.92C149.045 10.92 147.937 11.1987 146.94 11.756C145.943 12.3134 145.158 13.076 144.586 14.044C144.029 15.012 143.75 16.0974 143.75 17.3C143.75 18.5027 144.029 19.588 144.586 20.556C145.158 21.524 145.943 22.2867 146.94 22.844C147.937 23.4014 149.045 23.68 150.262 23.68C152.11 23.68 153.628 23.064 154.816 21.832L155.85 22.866C155.175 23.5994 154.347 24.164 153.364 24.56C152.396 24.9414 151.34 25.132 150.196 25.132Z" fill="#FFFEFE"/>
<path d="M165.73 25.132C164.205 25.132 162.819 24.7947 161.572 24.12C160.34 23.4307 159.372 22.492 158.668 21.304C157.979 20.116 157.634 18.7814 157.634 17.3C157.634 15.8187 157.979 14.484 158.668 13.296C159.372 12.108 160.34 11.1767 161.572 10.502C162.819 9.81268 164.205 9.46802 165.73 9.46802C167.256 9.46802 168.627 9.80535 169.844 10.48C171.076 11.1547 172.044 12.0934 172.748 13.296C173.452 14.484 173.804 15.8187 173.804 17.3C173.804 18.7814 173.452 20.1234 172.748 21.326C172.044 22.514 171.076 23.4454 169.844 24.12C168.627 24.7947 167.256 25.132 165.73 25.132ZM165.73 23.68C166.948 23.68 168.048 23.4087 169.03 22.866C170.013 22.3087 170.783 21.546 171.34 20.578C171.898 19.5954 172.176 18.5027 172.176 17.3C172.176 16.0974 171.898 15.012 171.34 14.044C170.783 13.0614 170.013 12.2987 169.03 11.756C168.048 11.1987 166.948 10.92 165.73 10.92C164.513 10.92 163.406 11.1987 162.408 11.756C161.426 12.2987 160.648 13.0614 160.076 14.044C159.519 15.012 159.24 16.0974 159.24 17.3C159.24 18.5027 159.519 19.5954 160.076 20.578C160.648 21.546 161.426 22.3087 162.408 22.866C163.406 23.4087 164.513 23.68 165.73 23.68Z" fill="#FFFEFE"/>
<path d="M193.447 9.60002V25H191.885V12.68L185.835 23.042H185.065L179.015 12.746V25H177.453V9.60002H178.795L185.483 21.018L192.105 9.60002H193.447Z" fill="#FFFEFE"/>
<path d="M198.289 25.11C197.966 25.11 197.688 24.9927 197.453 24.758C197.233 24.5234 197.123 24.2374 197.123 23.9C197.123 23.5627 197.233 23.284 197.453 23.064C197.688 22.8294 197.966 22.712 198.289 22.712C198.612 22.712 198.89 22.8294 199.125 23.064C199.36 23.284 199.477 23.5627 199.477 23.9C199.477 24.2374 199.36 24.5234 199.125 24.758C198.89 24.9927 198.612 25.11 198.289 25.11Z" fill="#FFFEFE"/>
<path d="M209.138 25.132C207.143 25.132 205.588 24.56 204.474 23.416C203.359 22.272 202.802 20.6074 202.802 18.422V9.60002H204.43V18.356C204.43 20.1454 204.833 21.48 205.64 22.36C206.446 23.24 207.612 23.68 209.138 23.68C210.678 23.68 211.851 23.24 212.658 22.36C213.464 21.48 213.868 20.1454 213.868 18.356V9.60002H215.452V18.422C215.452 20.6074 214.894 22.272 213.78 23.416C212.68 24.56 211.132 25.132 209.138 25.132Z" fill="#FFFEFE"/>
<path d="M229.693 20.886H221.113L219.265 25H217.571L224.611 9.60002H226.217L233.257 25H231.541L229.693 20.886ZM229.099 19.566L225.403 11.294L221.707 19.566H229.099Z" fill="#FFFEFE"/>
</svg>
