<?xml version="1.0" standalone="no"?>
<!DOCTYPE svg PUBLIC "-//W3C//DTD SVG 20010904//EN"
 "http://www.w3.org/TR/2001/REC-SVG-20010904/DTD/svg10.dtd">
<svg version="1.0" xmlns="http://www.w3.org/2000/svg"
 width="70.000000pt" height="70.000000pt" viewBox="0 0 70.000000 70.000000"
 preserveAspectRatio="xMidYMid meet">
<metadata>
Created by potrace 1.11, written by Peter Selinger 2001-2013
</metadata>
<g transform="translate(0.000000,70.000000) scale(0.100000,-0.100000)"
fill="#000000" stroke="none">
<path d="M0 350 l0 -350 350 0 350 0 0 350 0 350 -350 0 -350 0 0 -350z m402
250 c53 -15 96 -55 108 -101 l11 -40 50 28 c28 15 62 40 75 56 23 27 24 28 24
6 0 -58 -67 -144 -127 -163 -22 -7 -23 -13 -23 -105 0 -100 7 -121 42 -121 24
0 26 -65 2 -74 -51 -20 -114 10 -114 55 0 19 -2 19 -35 -6 -74 -57 -198 -72
-275 -32 -76 39 -101 125 -61 213 15 33 30 47 73 68 58 28 170 56 231 56 65 0
59 58 -10 81 -44 14 -160 7 -220 -15 l-42 -15 -10 31 c-6 17 -11 34 -11 39 0
7 67 31 115 42 39 9 161 7 197 -3z"/>
<path d="M340 359 c-146 -19 -206 -69 -179 -149 21 -59 136 -67 223 -16 l46
27 0 74 c0 54 -4 75 -12 74 -7 -1 -42 -5 -78 -10z"/>
</g>
</svg>
