<svg id="Capa_1" enable-background="new 0 0 472.041 472.041" height="512" viewBox="0 0 472.041 472.041" width="512" xmlns="http://www.w3.org/2000/svg"><path d="m230.021 28.445v29.077c0 3.314 2.686 6 6 6s6-2.686 6-6v-29.077c0-3.314-2.686-6-6-6-3.313 0-6 2.686-6 6z"/><path d="m395.603 94.963c2.344-2.343 2.344-6.142.001-8.486s-6.142-2.344-8.486-.001l-22.024 22.024c-2.343 2.343-2.344 6.142-.001 8.485s6.142 2.344 8.486.001z"/><path d="m98.463 116.986c2.343 2.343 6.142 2.343 8.486-.001 2.343-2.343 2.343-6.142-.001-8.486l-22.027-22.023c-2.344-2.343-6.143-2.342-8.486.001-2.343 2.344-2.342 6.143.002 8.486z"/><path d="m126.221 10.602c-3.003 1.401-4.301 4.971-2.9 7.974l27.581 59.147c1.401 3.003 4.971 4.302 7.974 2.901s4.302-4.971 2.901-7.974l-27.578-59.146c-1.4-3.004-4.969-4.304-7.973-2.904-.001 0-.003.001-.005.002z"/><path d="m315.696 81.187c2.333.001 4.455-1.35 5.441-3.464l27.584-59.147c1.425-2.992.154-6.572-2.838-7.997s-6.572-.154-7.997 2.838c-.014.029-.027.058-.041.087l-27.583 59.146c-1.401 3.003-.103 6.573 2.9 7.974.794.37 1.659.562 2.534.563z"/><path d="m65.145 172.381c3.314.004 6.003-2.68 6.007-5.993.003-2.335-1.35-4.46-3.467-5.446l-59.146-27.58c-3.004-1.401-6.575-.101-7.975 2.902s-.101 6.575 2.902 7.975l59.147 27.58c.793.371 1.657.562 2.532.562z"/><path d="m463.503 133.362-59.146 27.578c-3.014 1.376-4.342 4.936-2.966 7.95s4.936 4.342 7.95 2.966c.029-.013.058-.027.087-.041l59.147-27.58c3.003-1.401 4.302-4.971 2.901-7.974s-4.971-4.302-7.974-2.901v.002z"/><path d="m114.262 290.177c-22.973-20.105-47.626-38.205-73.69-54.1l33.1 112.678c10.338 35.201 43.642 58.576 80.261 56.334 1.789-.109 3.585-.28 5.34-.5 14.116-1.819 27.464-7.471 38.594-16.341-24.562-41.195-56.709-74.519-83.605-98.071z"/><path d="m227.63 321.74c-2.258-36.599-29.511-66.779-65.691-72.746l-105.908-17.479c23.26 14.86 45.368 31.452 66.136 49.633 26.629 23.32 49.563 48.124 68.165 73.728 5.981 8.233 11.514 16.55 16.6 24.951 12.295-13.341 19.607-30.517 20.7-48.626-.165-3.152-.166-6.31-.002-9.461z"/><path d="m269.399 388.247c11.132 8.871 24.482 14.522 38.6 16.34 1.756.226 3.552.4 5.339.506 36.619 2.242 69.923-21.133 80.261-56.334l33.1-112.672c-26.145 15.945-50.873 34.107-73.91 54.284-26.827 23.513-58.881 56.769-83.39 97.876z"/><path d="m345.099 281.148c20.768-18.182 42.876-34.773 66.137-49.633l-105.908 17.478c-36.18 5.967-63.433 36.147-65.69 72.746.165 3.152.165 6.31 0 9.462 1.092 18.109 8.405 35.286 20.7 48.626 5.081-8.395 10.615-16.712 16.6-24.951 18.599-25.604 41.532-50.408 68.161-73.728z"/><path d="m207.407 257.153c11.687 9.845 20.706 22.474 26.226 36.723 11.548-29.934 38.083-51.516 69.742-56.723l70.1-11.57c-2.582-74.243-63.774-133.843-138.636-133.843-74.993 0-136.272 59.815-138.653 134.241l67.706 11.174c16.036 2.644 31.066 9.551 43.515 19.998z"/><path d="m260.339 379.827c-10.773 17.659-19.721 36.368-26.706 55.839-6.983-19.47-15.929-38.18-26.7-55.839-2.796 3.039-5.826 5.854-9.061 8.42 12.82 21.199 22.788 43.995 29.647 67.8 0 3.314 2.686 6 6 6 .041 0 .08-.009.121-.01s.079.01.12.01c3.314 0 6-2.686 6-6 6.859-23.805 16.827-46.601 29.646-67.8-3.237-2.566-6.269-5.381-9.067-8.42z"/></svg>