<svg height="512pt" viewBox="-60 0 512 512" width="512pt" xmlns="http://www.w3.org/2000/svg"><path d="m282.210938 311.953125c-10.417969 0-16.554688 5.765625-16.554688 18.601563v49.289062c0 12.835938 6.136719 18.601562 16.554688 18.601562 10.417968 0 16.738281-5.765624 16.738281-18.601562v-49.289062c0-12.835938-6.324219-18.601563-16.738281-18.601563zm0 0"/><path d="m111.464844 360.128906h-18.601563v37.199219h18.601563c9.300781 0 14.878906-5.207031 14.878906-17.113281v-2.976563c0-12.644531-5.578125-17.109375-14.878906-17.109375zm0 0"/><path d="m122.996094 324.972656c0-6.507812-3.53125-13.019531-10.601563-13.019531h-19.53125v25.855469h19.53125c7.070313 0 10.601563-6.511719 10.601563-12.835938zm0 0"/><path d="m353.890625 160.503906-41.613281-70.117187c-.582032.066406-1.167969.113281-1.765625.113281h-67.203125l3.898437 19.4375c1.628907 8.125-3.632812 16.03125-11.757812 17.660156-.992188.199219-1.984375.292969-2.964844.292969-7 0-13.261719-4.925781-14.691406-12.050781l-5.082031-25.339844h-36l-12.160157 48.636719c-1.703125 6.816406-7.820312 11.367187-14.539062 11.367187-1.207031 0-2.429688-.148437-3.648438-.453125-8.039062-2.007812-12.925781-10.152343-10.914062-18.1875l10.339843-41.363281h-66.28125c-.316406 0-.625-.027344-.941406-.046875l-40.941406 68.394531c-24.613281 41.121094-37.625 88.1875-37.625 136.109375v117.042969c0 55.226562 44.773438 100 100 100h191c55.226562 0 100-44.773438 100-100v-116.25c0-47.570312-12.832031-94.335938-37.109375-135.246094zm-198.527344 222.132813c0 29.386719-16.371093 39.988281-37.386719 39.988281h-41.292968c-7.8125 0-12.648438-4.089844-12.648438-8.742188v-118.296874c0-5.953126 6.324219-8.929688 12.648438-8.929688h38.128906c18.601562 0 37.203125 6.695312 37.203125 33.109375 0 15.066406-5.953125 24.925781-15.8125 29.203125 11.347656 4.277344 19.15625 11.160156 19.15625 29.761719v3.90625zm54.398438 31.0625c0 5.949219-7.253907 8.925781-14.507813 8.925781s-14.507812-2.976562-14.507812-8.925781v-118.300781c0-6.136719 7.253906-8.742188 14.507812-8.742188s14.507813 2.605469 14.507813 8.742188zm118.207031-33.855469c0 31.996094-20.089844 43.898438-45.757812 43.898438-25.671876 0-45.570313-11.902344-45.570313-43.898438v-49.289062c0-31.992188 19.898437-43.898438 45.570313-43.898438 25.667968 0 45.757812 11.90625 45.757812 43.898438zm0 0"/><path d="m80.820312 60.5h229.359376l19.257812-38.835938c2.304688-4.648437 2.042969-10.160156-.691406-14.570312s-7.558594-7.09375-12.746094-7.09375h-241c-5.1875 0-10.011719 2.683594-12.746094 7.09375s-2.996094 9.921875-.691406 14.570312zm0 0"/></svg>