<svg height="512" viewBox="0 0 64 64" width="512" xmlns="http://www.w3.org/2000/svg"><path d="m7.899 42.826h10.001v15.999h-10.001z" transform="matrix(.819 -.573 .573 .819 -26.802 16.571)"/><path d="m59.4 40.82a1.9 1.9 0 0 0 -.1-1.03 2 2 0 0 0 -2.56-1.2l-9.96 3.63a4.017 4.017 0 0 1 -3.84 2.85 3.419 3.419 0 0 1 -.71-.07l-10.8-1.91.34-1.96 10.81 1.91a2.009 2.009 0 0 0 2.29-1.42 1.768 1.768 0 0 0 .05-.84 2.012 2.012 0 0 0 -.33-.86 2.048 2.048 0 0 0 -1.3-.83l-10.04-1.77a19.244 19.244 0 0 0 -8.85.55l-.18.05a18.6 18.6 0 0 0 -5.31 2.6l-3.14 2.19 6.31 9.02a10.883 10.883 0 0 1 8.09-1.74l1.79.3a10.988 10.988 0 0 0 5.68-.49l20.47-7.45a2 2 0 0 0 1.29-1.53z"/><path d="m57 12v-3a1 1 0 0 0 -1-1h-11v4z"/><path d="m39.29 14.29a1.008 1.008 0 0 1 1.42 0l2.29 2.3v-8.59h-6v8.59z"/><path d="m23 9v3h12v-4h-11a1 1 0 0 0 -1 1z"/><path d="m35.62 19.92a.987.987 0 0 1 -.62-.92v-5h-12v22.23c.22-.08.44-.17.67-.23l.18-.06a20.993 20.993 0 0 1 9.74-.58l10.05 1.77a3.873 3.873 0 0 1 1.85.87h7.03l3.54-1.29a3.847 3.847 0 0 1 .94-.2v-22.51h-12v5a.987.987 0 0 1 -.62.92.838.838 0 0 1 -.38.08 1.007 1.007 0 0 1 -.71-.29l-3.29-3.3-3.29 3.3a1 1 0 0 1 -1.09.21z"/></svg>