<svg height="511pt" viewBox="-1 1 511 511.99999" width="511pt" xmlns="http://www.w3.org/2000/svg"><path d="m243.007812 18.398438c3.097657-.453126 5.773438-2.398438 7.152344-5.207032l6.515625-13.191406 6.507813 13.191406c1.382812 2.808594 4.0625 4.757813 7.160156 5.207032l14.558594 2.105468-10.542969 10.238282c-2.234375 2.183593-3.253906 5.328124-2.722656 8.40625l2.488281 14.511718-13.03125-6.855468c-2.769531-1.445313-6.074219-1.445313-8.84375 0l-13.019531 6.855468 2.476562-14.511718c.53125-3.078126-.488281-6.222657-2.722656-8.40625l-10.542969-10.273438zm0 0"/><path d="m272.054688 489.09375c-2.246094 2.175781-3.265626 5.324219-2.726563 8.402344l2.476563 14.503906-13.019532-6.847656c-2.769531-1.457032-6.074218-1.457032-8.84375 0l-13.03125 6.847656 2.488282-14.503906c.53125-3.078125-.488282-6.222656-2.722657-8.402344l-10.554687-10.289062 14.570312-2.105469c3.097656-.449219 5.777344-2.394531 7.160156-5.207031l6.507813-13.191407 6.515625 13.191407c1.378906 2.808593 4.054688 4.753906 7.152344 5.207031l14.566406 2.105469zm0 0"/><path d="m80.621094 84.671875c3.097656-.453125 5.769531-2.398437 7.152344-5.207031l6.515624-13.191406 6.515626 13.203124c1.382812 2.800782 4.058593 4.746094 7.152343 5.195313l14.597657 2.105469-10.542969 10.277344c-2.238281 2.179687-3.261719 5.324218-2.734375 8.40625l2.488281 14.511718-13.03125-6.847656c-2.765625-1.453125-6.070313-1.453125-8.832031 0l-13.03125 6.847656 2.488281-14.511718c.527344-3.082032-.496094-6.226563-2.734375-8.40625l-10.574219-10.277344zm0 0"/><path d="m401.34375 408.65625c3.09375-.449219 5.765625-2.390625 7.148438-5.195312l6.515624-13.199219 6.515626 13.199219c1.382812 2.804687 4.058593 4.746093 7.152343 5.195312l14.570313 2.121094-10.542969 10.3125c-2.238281 2.179687-3.261719 5.324218-2.734375 8.40625l2.488281 14.511718-13.023437-6.847656c-2.765625-1.457031-6.074219-1.457031-8.839844 0l-13.03125 6.847656 2.488281-14.511718c.527344-3.078125-.492187-6.214844-2.726562-8.394532l-10.542969-10.277343zm0 0"/><path d="m15.070312 248.757812c3.09375-.449218 5.769532-2.398437 7.152344-5.203124l6.515625-13.191407 6.503907 13.191407c1.382812 2.808593 4.0625 4.753906 7.160156 5.203124l14.570312 2.109376-10.550781 10.285156c-2.238281 2.183594-3.257813 5.324218-2.726563 8.40625l2.488282 14.5-13.03125-6.847656c-2.765625-1.453126-6.074219-1.453126-8.84375 0l-13.019532 6.847656 2.480469-14.5c.539063-3.082032-.484375-6.230469-2.726562-8.40625l-10.542969-10.285156zm0 0"/><path d="m475.71875 243.488281 6.515625-13.203125 6.511719 13.203125c1.386718 2.800781 4.058594 4.746094 7.152344 5.195313l14.570312 2.117187-10.542969 10.265625c-2.242187 2.183594-3.265625 5.332032-2.734375 8.417969l2.488282 14.511719-13.03125-6.859375c-2.765626-1.449219-6.066407-1.449219-8.832032 0l-13.03125 6.859375 2.488282-14.511719c.527343-3.082031-.496094-6.226563-2.734376-8.40625l-10.523437-10.277344 14.570313-2.117187c3.085937-.457032 5.75-2.398438 7.132812-5.195313zm0 0"/><path d="m110.347656 421.148438c-2.238281 2.179687-3.261718 5.324218-2.734375 8.40625l2.488281 14.511718-13.03125-6.828125c-2.765624-1.445312-6.066406-1.445312-8.832031 0l-13.03125 6.855469 2.488281-14.511719c.527344-3.082031-.496093-6.226562-2.734374-8.40625l-10.542969-10.277343 14.578125-2.117188c3.09375-.449219 5.769531-2.390625 7.152344-5.195312l6.507812-13.199219 6.523438 13.199219c1.382812 2.800781 4.050781 4.742187 7.140624 5.195312l14.570313 2.117188zm0 0"/><path d="m402.976562 88.03125c3.097657-.445312 5.773438-2.386719 7.160157-5.195312l6.503906-13.191407 6.515625 13.191407c1.386719 2.804687 4.058594 4.746093 7.152344 5.195312l14.570312 2.117188-10.542968 10.269531c-2.242188 2.183593-3.265626 5.328125-2.734376 8.414062l2.46875 14.511719-13.019531-6.855469c-2.769531-1.457031-6.074219-1.457031-8.84375 0l-13.03125 6.855469 2.488281-14.511719c.53125-3.078125-.488281-6.222656-2.726562-8.40625l-10.539062-10.273437zm0 0"/><path d="m293.507812 234.9375v-47.484375c0-20.984375-17.007812-37.992187-37.988281-37.992187-20.984375 0-37.992187 17.007812-37.992187 37.992187v47.484375h-18.996094v85.480469h113.972656v-85.480469zm-56.984374-47.484375c0-10.492187 8.503906-18.996094 18.996093-18.996094 10.488281 0 18.992188 8.503907 18.992188 18.996094v47.484375h-37.988281zm37.988281 113.96875h-37.988281v-18.996094h9.496093v-28.492187h18.996094v28.492187h9.496094zm0 0"/></svg>