<svg id="bold" enable-background="new 0 0 24 24" height="512" viewBox="0 0 24 24" width="512" xmlns="http://www.w3.org/2000/svg"><g><path d="m18.58 13.5c-1.27 0-2.62-.98-2.62-2.79v-1.31c-.01-.08-.07-.16-.17-.24-1.5-1.17-2.33-2.92-2.29-4.81.04-1.45.6-2.79 1.52-3.82-.63-.24-1.29-.39-1.98-.47-.353-.043-.91-.06-1.09-.06-2.42 0-4.69.94-6.41 2.66-.74.74-1.34 1.63-1.76 2.63-.55 1.19-.83 2.46-.83 3.76 0 .15.01.3.02.45v.04c-.06.4-.2.77-.39 1.08l-2.21 3.2c-.28.43-.42.67-.42.94 0 .68.56 1.24 1.24 1.24h1.82v2.78c0 1.23 1 2.22 2.22 2.22.24 0 .47-.04.63-.09l2.14-.59v2.93c0 .41.34.75.75.75h8.5c.41 0 .75-.34.75-.75v-4.92c0-1.19.33-2.4.95-3.49.35-.42.66-.87.93-1.34z"/><path d="m21.54 10.17v.72c0 .61-.5 1.11-1.12 1.11h-1.84c-.54 0-1.12-.4-1.12-1.29v-.54z"/><path d="m24 4.47c0 1.35-.6 2.61-1.65 3.46-.42.34-.69.78-.78 1.24h-4.13c-.07-.45-.32-.87-.73-1.19-1.11-.87-1.74-2.18-1.71-3.6.05-2.38 2.04-4.35 4.43-4.38 1.21-.03 2.37.44 3.24 1.3.86.84 1.33 1.97 1.33 3.17z"/></g></svg>