<svg height="512" viewBox="0 0 192 192" width="512" xmlns="http://www.w3.org/2000/svg"><path d="m116.736 123.248c23.729-17.433 35.264-36.813 35.264-59.248 0-35.29-25.121-64-56-64s-56 28.71-56 64c0 22.435 11.535 41.815 35.264 59.248 7.879 5.789 6.566 8.576 2.215 17.81-2.568 5.45-5.479 11.628-5.479 18.942 0 21.008 12.073 32 24 32s24-10.992 24-32c0-7.314-2.911-13.492-5.479-18.942-4.351-9.234-5.664-12.021 2.215-17.81zm-20.736-11.248c-22.056 0-40-21.533-40-48s17.944-48 40-48 40 21.533 40 48-17.944 48-40 48z"/><path d="m120.152 37.761-49.926 49.927c4.2 7.116 10.231 12.435 17.233 14.853l40.5-40.5a45.678 45.678 0 0 0 -7.807-24.28z"/><path d="m96 24c-15.377 0-28.213 13.562-31.289 31.637l31.625-31.625c-.112-.002-.223-.012-.336-.012z"/><path d="m99.26 24.219-35.027 35.026c-.148 1.561-.233 3.145-.233 4.755a49.518 49.518 0 0 0 .85 9.106l45.1-45.1a27.157 27.157 0 0 0 -10.69-3.787z"/><path d="m95.031 103.969c.322.012.644.031.969.031 15.6 0 28.583-13.954 31.418-32.418z"/><path d="m36 100a12.013 12.013 0 0 1 -12-12 4 4 0 0 0 -8 0 12.013 12.013 0 0 1 -12 12 4 4 0 0 0 0 8 12.013 12.013 0 0 1 12 12 4 4 0 0 0 8 0 12.013 12.013 0 0 1 12-12 4 4 0 0 0 0-8z"/><path d="m172 128a12.013 12.013 0 0 1 -12-12 4 4 0 0 0 -8 0 12.013 12.013 0 0 1 -12 12 4 4 0 0 0 0 8 12.013 12.013 0 0 1 12 12 4 4 0 0 0 8 0 12.013 12.013 0 0 1 12-12 4 4 0 0 0 0-8z"/><path d="m183 16a12.013 12.013 0 0 1 -12-12 4 4 0 0 0 -8 0 12.013 12.013 0 0 1 -12 12 4 4 0 0 0 0 8 12.013 12.013 0 0 1 12 12 4 4 0 0 0 8 0 12.013 12.013 0 0 1 12-12 4 4 0 0 0 0-8z"/></svg>