<?xml version="1.0" encoding="iso-8859-1"?>
<!-- Generator: Adobe Illustrator 19.0.0, SVG Export Plug-In . SVG Version: 6.00 Build 0)  -->
<svg version="1.1" id="Capa_1" xmlns="http://www.w3.org/2000/svg" xmlns:xlink="http://www.w3.org/1999/xlink" x="0px" y="0px"
	 viewBox="0 0 512 512" style="enable-background:new 0 0 512 512;" xml:space="preserve">
<g>
	<g>
		<g>
			<path d="M121.99,175.427c18.042,15.969,29.677,36.885,33.635,60.51l5.406,32.479c0.854,5.146,5.302,8.917,10.521,8.917h168.896
				c5.219,0,9.667-3.771,10.521-8.917l5.406-32.427c3.958-23.635,15.594-44.583,33.656-60.563c2.333-2.073,3.646-5.052,3.594-8.177
				c-0.052-3.115-1.469-6.052-3.875-8.042c-7.833-6.458-17.198-9.875-27.083-9.875h-96V128H320
				c23.531,0,42.667-19.135,42.667-42.667V42.667C362.667,19.135,343.531,0,320,0H192c-23.531,0-42.667,19.135-42.667,42.667v42.667
				C149.333,108.865,168.469,128,192,128h53.333v21.333h-96c-9.896,0-19.26,3.417-27.073,9.885c-2.406,1.99-3.823,4.927-3.875,8.042
				C118.333,170.375,119.646,173.365,121.99,175.427z"/>
			<path d="M458.667,170.667c-40.406,0-74.573,28.948-81.25,68.833l-9.854,59.167l-223.125,0.01l-9.854-59.208
				c-6.677-39.865-40.844-68.802-81.25-68.802c-17.646,0-32,14.354-32,32c0,17.646,14.354,32,32,32
				c9.01,0,16.635,6.458,18.125,15.333l9.854,59.219c5.198,30.969,31.75,53.448,63.125,53.448h99.775l-6.487,64.871
				c-45.385,2.844-88.392,16.296-88.392,41.796C149.333,498.646,204.625,512,256,512s106.667-13.354,106.667-42.667
				c0-25.5-43.007-38.952-88.392-41.796l-6.487-64.871h99.775c31.375,0,57.927-22.49,63.125-53.49l9.854-59.146
				c1.49-8.906,9.115-15.365,18.125-15.365c17.646,0,32-14.354,32-32C490.667,185.021,476.313,170.667,458.667,170.667z"/>
		</g>
	</g>
</g>
<g>
</g>
<g>
</g>
<g>
</g>
<g>
</g>
<g>
</g>
<g>
</g>
<g>
</g>
<g>
</g>
<g>
</g>
<g>
</g>
<g>
</g>
<g>
</g>
<g>
</g>
<g>
</g>
<g>
</g>
</svg>
