<?xml version="1.0" encoding="iso-8859-1"?>
<!-- Generator: Adobe Illustrator 19.0.0, SVG Export Plug-In . SVG Version: 6.00 Build 0)  -->
<svg version="1.1" id="Capa_1" xmlns="http://www.w3.org/2000/svg" xmlns:xlink="http://www.w3.org/1999/xlink" x="0px" y="0px"
	 viewBox="0 0 512 512" style="enable-background:new 0 0 512 512;" xml:space="preserve">
<g>
	<g>
		<g>
			<path d="M386.286,83.84c10.545,15.884,12.694,35.908,5.76,53.669c-9.42,25.522-22.544,49.52-38.949,71.223
				c2.651,2.103,5.303,4.297,7.954,6.491c2.103,1.737,4.114,3.566,6.126,5.394l0.731-1.006c17.63-23.39,31.681-49.274,41.691-76.8
				c8.559-23.153,5.464-49.009-8.32-69.486c-29.166-41.6-100.023-51.931-131.657-54.491v18.377
				C314.332,40.869,365.898,54.766,386.286,83.84z"/>
			<path d="M205.624,64h36.571c5.043-0.015,9.128-4.1,9.143-9.143V9.143c-0.015-5.043-4.1-9.128-9.143-9.143h-36.571
				c-5.043,0.015-9.128,4.1-9.143,9.143v45.714C196.496,59.9,200.58,63.985,205.624,64z"/>
			<path d="M356.846,236.16c-5.77,8.581-11.081,17.462-15.909,26.606c-14.263,26.971-26.697,53.394-23.68,79.543
				c1.081,8.931,4.381,17.449,9.6,24.777l0.009,0.011c16.108-29.04,46.691-47.067,79.899-47.097c0.438,0,0.861,0.06,1.297,0.066
				L408.046,320C398.621,288.05,380.964,259.138,356.846,236.16z"/>
			<path d="M251.338,166.309V128c-0.007-5.047-4.096-9.136-9.143-9.143h-36.571c-5.047,0.007-9.136,4.096-9.143,9.143v38.4
				c9.093-1.213,18.255-1.824,27.429-1.829C233.079,164.598,242.238,165.178,251.338,166.309z"/>
			<rect x="214.766" y="82.286" width="18.286" height="18.286"/>
			<path d="M406.766,338.286c-40.396,0-73.143,32.747-73.143,73.143s32.747,73.143,73.143,73.143
				c40.377-0.046,73.097-32.766,73.143-73.143C479.909,371.033,447.162,338.286,406.766,338.286z"/>
			<path d="M315.63,417.217c-36.061-3.89-71.506-12.2-105.538-24.744c-56.965-21.671-119.605-23.329-177.637-4.703l0.003,0.069
				C38.858,470.217,103.224,512,223.909,512c54.217,0,97.829-8.869,129.646-26.331l0.028-0.018
				C331.301,469.693,317.367,444.569,315.63,417.217z"/>
			<path d="M216.516,375.353c32.186,11.855,65.694,19.754,99.786,23.524c0.569-4.169,1.427-8.294,2.569-12.344l-0.06-0.064
				c-10.782-11.587-17.657-26.265-19.657-41.966c-3.657-31.36,10.606-61.806,25.509-90.24c5.486-10.423,11.886-20.571,18.286-30.263
				c-24.58-19.301-53.474-32.353-84.206-38.034h-0.183c-11.438-2.044-23.032-3.084-34.651-3.109
				c-11.62,0.012-23.215,1.052-34.651,3.109h-0.091c-88.964,16.157-154.476,92.383-157.074,182.766l-0.001,0.039
				C92.609,350.558,157.451,352.873,216.516,375.353z"/>
			<rect x="114.195" y="9.143" width="18.286" height="36.571"/>
			<rect x="150.766" y="18.286" width="27.429" height="18.286"/>
		</g>
	</g>
</g>
<g>
</g>
<g>
</g>
<g>
</g>
<g>
</g>
<g>
</g>
<g>
</g>
<g>
</g>
<g>
</g>
<g>
</g>
<g>
</g>
<g>
</g>
<g>
</g>
<g>
</g>
<g>
</g>
<g>
</g>
</svg>
