<svg id="Capa_1" enable-background="new 0 0 511.998 511.998" height="512" viewBox="0 0 511.998 511.998" width="512" xmlns="http://www.w3.org/2000/svg"><g><path d="m261.372 221.775-10.729-18.973-21.361 4.341-2.471 21.656 19.832 9.043z"/><path d="m184.694 365.437-1.044 21.772 20.383 7.72 13.642-17-11.952-18.226z"/><path d="m336.168 308.809-11.819 18.313 13.764 16.9 20.327-7.868-1.203-21.764z"/><path d="m355.646 110.571c-43.931-60.624-87.19-104.319-89.01-106.149-5.863-5.897-15.411-5.896-21.273 0-1.82 1.83-45.079 45.525-89.01 106.149-59.954 82.737-90.354 153.872-90.354 211.427 0 115.963 73.966 190 190 190 115.963 0 190-73.966 190-190 0-57.555-30.399-128.689-90.353-211.427zm-167.398 123.891 8.302-5.085 3.295-28.869-7.574-6.942c-6.106-5.598-6.52-15.086-.922-21.193s15.087-6.52 21.193-.922l7.575 6.943 28.473-5.787 3.207-6.428c3.697-7.414 12.703-10.425 20.118-6.728 7.413 3.698 10.425 12.705 6.728 20.118l-3.128 6.272 13.522 23.912 8.044 1.009c8.22 1.031 14.047 8.531 13.017 16.75-1.032 8.222-8.535 14.048-16.751 13.016l-7.594-.953-19.261 21.012 1.597 7.431c1.74 8.1-3.414 16.076-11.514 17.816-8.08 1.739-16.073-3.399-17.816-11.514l-1.692-7.874-24.995-11.397-8.153 4.994c-7.059 4.325-16.296 2.113-20.626-4.956-4.328-7.063-2.109-16.298 4.955-20.625zm77.576 147.149c-.649 7.833-7.209 13.76-14.932 13.76-.975 0-1.25-.052-8.242-.632l-17.193 21.425 2.045 7.844c2.473 9.485-4.684 18.788-14.524 18.788-6.663 0-12.745-4.471-14.505-11.219l-1.931-7.406-26.656-10.097-6.31 4.239c-6.871 4.617-16.192 2.794-20.815-4.086-4.62-6.877-2.79-16.196 4.087-20.816l6.685-4.491 1.316-27.438-7.662-5.72c-6.639-4.956-8.002-14.355-3.046-20.993s14.354-8.003 20.993-3.046l7.802 5.825 28.033-7.645 3.64-9.609c2.934-7.747 11.59-11.65 19.341-8.714 7.747 2.935 11.648 11.594 8.714 19.341l-3.639 9.608 15.933 24.298 7.158.594c8.256.686 14.394 7.934 13.708 16.19zm135.851-17.553c-4.494 6.963-13.778 8.96-20.737 4.469l-8.633-5.572-27.095 10.489-2.081 6.875c-1.961 6.48-7.914 10.659-14.352 10.659-10.065 0-17.274-9.728-14.363-19.348l2.03-6.709-17.348-21.3c-.54.024-8.236.372-8.77.372-7.979 0-14.619-6.289-14.974-14.34-.365-8.276 6.049-15.281 14.325-15.646l7.646-.337 15.456-23.949-2.823-7.058c-3.076-7.691.665-16.421 8.357-19.498 7.693-3.076 16.421.665 19.498 8.357l2.991 7.477 26.554 7.034 7.198-6.293c6.235-5.453 15.713-4.818 21.165 1.419 5.453 6.236 4.818 15.713-1.419 21.166l-7.33 6.409 1.603 29.011 8.634 5.573c6.96 4.496 8.961 13.78 4.468 20.74z"/></g></svg>