<svg width="164" height="164" fill="none" xmlns="http://www.w3.org/2000/svg"><path d="M78.268 4.185a5 5 0 017.464 0l3.62 4.06a5 5 0 006.374.916l4.616-2.875a5 5 0 017.162 2.103l2.329 4.914a5 5 0 005.858 2.675l5.239-1.457a5 5 0 016.279 4.035l.851 5.37a5 5 0 004.867 4.219l5.438.077a5 5 0 014.887 5.64l-.697 5.394a5 5 0 003.482 5.418l5.196 1.606a5 5 0 013.1 6.79l-2.189 4.977a5 5 0 001.815 6.18l4.533 3.005a5 5 0 011.062 7.388l-3.503 4.16a5 5 0 000 6.44l3.503 4.16a5 5 0 01-1.062 7.388l-4.533 3.005a5 5 0 00-1.815 6.18l2.189 4.978a5 5 0 01-3.1 6.789l-5.196 1.606a5 5 0 00-3.482 5.418l.697 5.393a5 5 0 01-4.887 5.641l-5.438.077a5 5 0 00-4.867 4.218l-.851 5.371a5 5 0 01-6.279 4.036l-5.239-1.458a5 5 0 00-5.858 2.675l-2.329 4.914a5 5 0 01-7.162 2.103l-4.616-2.875a5 5 0 00-6.375.917l-3.62 4.059a5 5 0 01-7.463 0l-3.62-4.059a5 5 0 00-6.374-.917l-4.616 2.875a5 5 0 01-7.162-2.103l-2.329-4.914a5 5 0 00-5.858-2.675l-5.24 1.458a5 5 0 01-6.278-4.036l-.85-5.371a5 5 0 00-4.868-4.218l-5.438-.077a5 5 0 01-4.887-5.641l.697-5.393a5 5 0 00-3.482-5.418l-5.196-1.606a5 5 0 01-3.1-6.789l2.188-4.978a5 5 0 00-1.814-6.18l-4.533-3.005a5 5 0 01-1.062-7.388l3.503-4.16a5 5 0 000-6.44l-3.503-4.16a5 5 0 011.062-7.388l4.533-3.005a5 5 0 001.814-6.18L9.667 53.07a5 5 0 013.1-6.79l5.196-1.605a5 5 0 003.482-5.418l-.697-5.394a5 5 0 014.887-5.64l5.438-.077a5 5 0 004.867-4.218l.85-5.371a5 5 0 016.28-4.036l5.239 1.458a5 5 0 005.858-2.675l2.33-4.914a5 5 0 017.16-2.103l4.617 2.875a5 5 0 006.375-.917l3.62-4.059z" fill="#0052B4"/></svg>