<svg width="212" height="40" fill="none" xmlns="http://www.w3.org/2000/svg"><path d="M28.887 11.333c.888 1 1 2.111 1 2.111 2.11-2.666 4.555-3.777 7.666-3.777 3.778 0 6.222 1.333 7.556 3.889 2.11-2.445 4.889-3.89 8.222-3.89 5.889 0 8.667 3.334 8.667 9.445 0 0-.223 9 .222 10 .666 2 1.666 2.111 2.333 2.667l-1.111-.334s-4.556.111-5.111-2.222c-.556-2.444-.445-10.333-.445-10.333 0-3.778-1-6.111-4.666-6.111-3.222 0-5.334 1.222-7.222 3.666.11.778.222 1.556.222 2.445v12.555h-4V18.89c0-3.778-1-6.111-4.667-6.111-3.333 0-5.333 1.333-7.333 3.778v14.888h-4V10c-.111 0 1.667.333 2.667 1.333zm63.667-.111c.778 1 1 2.111 1 2.111 2.111-2.666 4.444-3.777 7.444-3.777s4.778.777 6.667 3.11l-2.667 2.445c-1.222-1.555-2.777-2.222-4.333-2.222-3.222 0-5 1.222-6.778 3.778v14.777h-4V10c-.11 0 1.89.333 2.667 1.222zm16.222 3.445l6.223 12.555h.222l6.444-17.333h4.334l-10.556 25.667c-1.111 2.777-3.778 4.444-6.778 4.444-1.111 0-1.778-.222-2.889-.556l.556-3.11c.555.11 1.111.222 1.667.222 2 0 3.444-.667 4.444-3l.778-1.89-6.889-14.555 2.444-2.444zm23.559-13c1.334 1.444 1.223 3.555 1.223 3.555v19.89c0 2.11.777 2.888 3.111 2.888v3.667c-.334 0-.667.11-1 .11-4.556 0-6.111-2.666-6.111-7.11V0s1.444.222 2.777 1.667zm13.108 2.111c0 1.444-1 2.666-2.778 2.666-1.777 0-2.777-1.333-2.777-2.666 0-1.445 1-2.667 2.777-2.667 1.667 0 2.778 1.222 2.778 2.667zm-.889 6.555V31.89h-4V10.333h4zM164.111 14c-2.222-1-4.222-1.333-6.556-1.333-3.778 0-5.333 1.222-5.333 2.889 0 2.11 2 2.666 5.778 3.11 5.333.556 8.444 2.334 8.444 6.778 0 4.445-4 6.556-10.222 6.556-3.111 0-5.333-.333-7.889-1.445l1-3.222c2.222 1 4.333 1.556 6.667 1.556 4.444 0 6.666-1.111 6.666-3.445 0-2.11-1.444-2.889-5.889-3.333-5.555-.556-8.333-2.333-8.333-6.222 0-3.445 3-6.222 9.222-6.222 3.111 0 5 .333 7.667 1.333l-1.222 3zM1.222 11c3.222-1.333 5.556-1.889 9.222-1.889 6.334 0 9.334 2.222 9.334 7.445v9c0 2.11.555 2.666 2.666 2.666v2.89c-1 .332-1.666.444-2.889.444-1.777 0-2.888-1.334-3-3.556-2 2.333-4.888 3.556-8.888 3.556C2.667 31.556 0 29 0 25c0-1.889.556-3.444 2-5.111 3.889-1.222 7.778-2.556 13.889-2.667l-.111-2.11c0-1.223-1.223-2.668-5.445-2.668-2.666 0-5.333.556-8.11 1.778l-1-3.222zm14.667 8.222c-5 .111-8.778.667-11 2.778-.667.667-.889 1.556-.889 2.556 0 2.333 1.556 3.555 4.222 3.555 2.89 0 5.222-.778 7.667-2.889v-6z" fill="#CE0058"/><path d="M17.333 19.333c-1.444.111-3.333 0-4.555.223-3.334.555-6.778.333-9.223 3.555.667-2.222-3.333-1.444-1.888-3 3.11-3.222 12.222-4 16-4.222C19.554 15.778 26 13 26.11 10c.555 4-2.111 6.444-2.889 7.111-1.333 1.111-2.556 1.667-4.778 2.222M65.11 11c3.223-1.333 5.556-1.889 9.223-1.889 6.333 0 9.333 2.222 9.333 7.445v9c0 2.11.556 2.666 2.667 2.666v2.89c-1 .332-1.667.444-2.889.444-1.778 0-2.889-1.334-3-3.556-2 2.333-4.889 3.556-8.889 3.556-5 0-7.666-2.556-7.666-6.556 0-1.889.555-3.444 2-5.111 3.889-1.222 7.777-2.556 13.889-2.667l-.112-2.11c0-1.223-1.222-2.668-5.444-2.668-2.667 0-5.333.556-8.111 1.778l-1-3.222zm14.556 8.222c-5 .111-8.777.667-11 2.778-.666.667-.888 1.556-.888 2.556 0 2.333 1.555 3.555 4.222 3.555 2.889 0 5.222-.778 7.666-2.889v-6z" fill="#CE0058"/><path d="M81.222 19.333c-1.445.111-3.334 0-4.556.223-3.333.555-6.778.333-9.222 3.555.667-2.222-3.333-1.444-1.889-3 3.111-3.222 12.222-4 16-4.222C83.445 15.778 89.888 13 90 10c.555 4-2.112 6.444-2.89 7.111-1.333 1.111-2.555 1.667-4.777 2.222m90.445 10c0 1-.666 1.778-1.778 1.778-1.111 0-1.777-.778-1.777-1.778s.666-1.777 1.777-1.777c1.112 0 1.778.777 1.778 1.777zm11.444-18.444c4 0 6.778 2.111 6.778 5.555 0 2.223-1.556 4.445-4.667 5.223l6.111 9.222h-2.778L184 22h-5.334v8.889h-2.333v-20h7.889zm-5.556 9.222h5.111c2.889 0 4.889-1.222 4.889-3.667 0-2.444-1.777-3.555-5-3.555h-5.111v7.222h.111zm18.889-9.222v11.333c0 4.89 2.333 7.111 6 7.111s6-2.333 6-7.11V10.888h2.333V22c0 6.444-3.222 9.333-8.333 9.333-5.111 0-8.333-2.889-8.333-9.333V10.889h2.333zM3.217 3.878H2.033v2.41H1V.585h1.033v2.41h1.205l1.85-2.41h1.109L4.034 3.33l2.314 2.96H5.132L3.217 3.877zm7.543 2.475a3.092 3.092 0 01-1.528-.377 2.781 2.781 0 01-1.065-1.033 3.01 3.01 0 01-.377-1.506c0-.56.126-1.058.377-1.496A2.68 2.68 0 019.232.908 3.092 3.092 0 0110.76.532c.567 0 1.072.125 1.517.376a2.61 2.61 0 011.055 1.033c.258.438.387.936.387 1.496 0 .56-.129 1.061-.387 1.506a2.703 2.703 0 01-1.055 1.033 3.03 3.03 0 01-1.517.377zm0-.904c.366 0 .692-.083.98-.248a1.82 1.82 0 00.688-.71 2.2 2.2 0 00.247-1.054c0-.395-.082-.743-.247-1.044a1.73 1.73 0 00-.689-.71 1.93 1.93 0 00-.979-.248c-.366 0-.696.083-.99.248a1.823 1.823 0 00-.688.71c-.165.301-.248.65-.248 1.044s.083.746.248 1.054c.172.302.401.538.688.71.294.165.624.248.99.248zm8.012.904a3.198 3.198 0 01-1.56-.377 2.781 2.781 0 01-1.065-1.033 2.944 2.944 0 01-.388-1.506c0-.56.13-1.058.388-1.496A2.68 2.68 0 0117.212.908c.46-.25.98-.376 1.56-.376.517 0 .976.104 1.378.312.408.208.724.509.946.903l-.785.506a1.755 1.755 0 00-.667-.613 1.903 1.903 0 00-.883-.205c-.373 0-.71.083-1.011.248a1.8 1.8 0 00-.7.71 2.15 2.15 0 00-.247 1.044c0 .401.083.757.248 1.065.172.301.405.534.699.7a2.07 2.07 0 001.011.247c.323 0 .617-.068.883-.205.265-.136.488-.34.667-.613l.785.495c-.222.395-.538.7-.947.915-.401.208-.86.312-1.377.312zM30.084.585v5.703h-.936V2.124l-2.13 3.519h-.453l-2.108-3.53v4.175h-.947V.585h1.065l2.238 3.852L29.116.585h.968zm5.636 4.864c.682 0 1.23-.23 1.647-.689l.56.667a2.4 2.4 0 01-.958.689c-.38.158-.807.237-1.28.237-.603 0-1.138-.122-1.604-.366a2.72 2.72 0 01-1.087-1.044 3.01 3.01 0 01-.376-1.506c0-.553.122-1.051.366-1.496A2.67 2.67 0 0134.01.908a2.908 2.908 0 011.474-.376c.516 0 .986.118 1.41.355a2.6 2.6 0 011.01.979c.252.423.381.91.388 1.463l-4.53.882c.144.395.384.7.721.915.345.215.757.323 1.238.323zm-.236-4.046c-.359 0-.682.083-.968.248-.28.165-.499.398-.657.699a2.153 2.153 0 00-.237 1.033v.108l3.648-.689a1.744 1.744 0 00-.624-1.011c-.323-.259-.71-.388-1.162-.388zM47.969.532c.717 0 1.284.208 1.7.624.423.416.635 1.033.635 1.85v3.282H49.27V3.125c0-.553-.13-.969-.388-1.248-.25-.28-.613-.42-1.087-.42-.523 0-.94.165-1.248.495-.308.323-.462.789-.462 1.399v2.937h-1.033V3.125c0-.553-.13-.969-.388-1.248-.25-.28-.613-.42-1.086-.42-.524 0-.94.165-1.248.495-.309.323-.463.789-.463 1.399v2.937h-1.033V.585h.99v.85c.208-.294.48-.516.817-.667a2.701 2.701 0 011.152-.236c.445 0 .84.09 1.183.269.345.179.61.44.797.785.215-.33.513-.588.893-.775.387-.186.821-.28 1.302-.28zm10.445.053v5.703h-.99v-.84a2.07 2.07 0 01-.817.668 2.582 2.582 0 01-1.109.237c-.76 0-1.359-.208-1.797-.624-.437-.424-.656-1.044-.656-1.862V.585h1.033V3.75c0 .552.133.972.398 1.259.266.28.646.42 1.14.42.546 0 .976-.166 1.292-.496.316-.33.473-.796.473-1.398V.585h1.033zm5.304 3.293h-1.184v2.41h-1.032V.585h1.032v2.41h1.206l1.85-2.41h1.108L64.536 3.33l2.313 2.96h-1.216l-1.915-2.411zM74.177.585v5.703h-.99v-.904c-.229.316-.52.556-.87.721a2.7 2.7 0 01-1.163.248 2.997 2.997 0 01-1.485-.366 2.668 2.668 0 01-1.033-1.022c-.244-.445-.366-.954-.366-1.528 0-.574.122-1.08.366-1.517A2.668 2.668 0 0169.67.897a2.998 2.998 0 011.485-.365c.409 0 .785.079 1.13.236.344.151.631.377.86.678v-.86h1.033zM71.24 5.45c.359 0 .685-.083.98-.248a1.82 1.82 0 00.688-.71c.165-.308.247-.66.247-1.054 0-.395-.082-.743-.247-1.044a1.73 1.73 0 00-.689-.71 1.967 1.967 0 00-.979-.248c-.366 0-.696.083-.99.248a1.823 1.823 0 00-.689.71c-.165.301-.247.65-.247 1.044s.083.746.248 1.054c.172.302.401.538.688.71.294.165.624.248.99.248zm12.398.903a3.092 3.092 0 01-1.528-.377 2.781 2.781 0 01-1.066-1.033 3.01 3.01 0 01-.376-1.506c0-.56.125-1.058.376-1.496A2.688 2.688 0 0182.11.908a3.092 3.092 0 011.528-.376c.566 0 1.072.125 1.517.376a2.61 2.61 0 011.054 1.033c.258.438.388.936.388 1.496 0 .56-.13 1.061-.388 1.506a2.704 2.704 0 01-1.054 1.033c-.445.251-.95.377-1.517.377zm0-.904c.365 0 .692-.083.979-.248a1.82 1.82 0 00.688-.71 2.2 2.2 0 00.248-1.054c0-.395-.083-.743-.248-1.044a1.73 1.73 0 00-.688-.71 1.93 1.93 0 00-.98-.248c-.365 0-.695.083-.99.248a1.823 1.823 0 00-.688.71c-.165.301-.247.65-.247 1.044s.082.746.247 1.054c.172.302.402.538.689.71.294.165.624.248.99.248zM94.447.585v5.703h-1.033V1.49h-3.217v4.8h-1.033V.584h5.283zm10.209-.053c.717 0 1.284.208 1.7.624.423.416.635 1.033.635 1.85v3.282h-1.033V3.125c0-.553-.129-.969-.388-1.248-.251-.28-.613-.42-1.086-.42-.524 0-.94.165-1.248.495-.309.323-.463.789-.463 1.399v2.937h-1.033V3.125c0-.553-.129-.969-.387-1.248-.251-.28-.614-.42-1.087-.42-.524 0-.94.165-1.248.495-.309.323-.463.789-.463 1.399v2.937h-1.033V.585h.99v.85a1.96 1.96 0 01.818-.667 2.686 2.686 0 011.151-.236c.445 0 .839.09 1.184.269.344.179.609.44.796.785.215-.33.513-.588.893-.775a2.96 2.96 0 011.302-.28zm7.691 5.821a3.092 3.092 0 01-1.528-.377 2.779 2.779 0 01-1.065-1.033 3.011 3.011 0 01-.377-1.506c0-.56.126-1.058.377-1.496a2.68 2.68 0 011.065-1.033 3.092 3.092 0 011.528-.376c.567 0 1.072.125 1.517.376.452.244.803.588 1.054 1.033.259.438.388.936.388 1.496 0 .56-.129 1.061-.388 1.506a2.702 2.702 0 01-1.054 1.033c-.445.251-.95.377-1.517.377zm0-.904c.366 0 .692-.083.979-.248.294-.172.524-.408.689-.71a2.2 2.2 0 00.247-1.054c0-.395-.082-.743-.247-1.044a1.731 1.731 0 00-.689-.71 1.928 1.928 0 00-.979-.248c-.366 0-.696.083-.99.248a1.823 1.823 0 00-.689.71c-.165.301-.247.65-.247 1.044s.082.746.247 1.054c.172.302.402.538.689.71.294.165.624.248.99.248zM124.448.585v5.703h-.936V2.124l-2.131 3.519h-.452l-2.109-3.53v4.175h-.947V.585h1.066l2.238 3.852 2.302-3.852h.969z" fill="#CE0058"/></svg>